{
.appVersion = "1271";
DisplayStrings = (
S
);
copyright = "Copyright 2019 The Violet Sans Project Authors (https://github.com/violetoffice/violet_sans)";
customParameters = (
{
name = license;
value = "This Font Software is licensed under the SIL Open Font License, Version 1.1. This license is available with a FAQ at: http://scripts.sil.org/OFL";
},
{
name = licenseURL;
value = "http://scripts.sil.org/OFL";
},
{
name = fsType;
value = (
);
},
{
name = blueScale;
value = 0.06196;
}
);
date = "2020-01-13 23:56:50 +0000";
designer = "Calvin Waterman";
designerURL = www.calvinwaterman.com;
disablesAutomaticAlignment = 1;
familyName = "Violet Sans";
featurePrefixes = (
{
automatic = 1;
code = "languagesystem DFLT dflt;\012\012languagesystem latn dflt;\012languagesystem latn ROM;\012languagesystem latn MOL;\012languagesystem latn KAZ;\012languagesystem latn TAT;\012languagesystem latn TRK;\012languagesystem latn CRT;\012languagesystem latn AZE;\012";
name = Languagesystems;
}
);
features = (
{
automatic = 1;
code = "feature locl;\012";
name = aalt;
},
{
automatic = 1;
code = "lookup ccmp_Other_1 {\012	@CombiningTopAccents = [acutecomb brevecomb caroncomb circumflexcomb commaturnedabovecomb dieresiscomb dotaccentcomb gravecomb hungarumlautcomb macroncomb ringcomb tildecomb];\012	@CombiningNonTopAccents = [cedillacomb ogonekcomb];\012	sub [i]' @CombiningTopAccents by [idotless];\012	sub [i]' @CombiningNonTopAccents @CombiningTopAccents by [idotless];\012} ccmp_Other_1;\012";
name = ccmp;
},
{
automatic = 1;

glyphs = (
{
glyphname = A;
lastChange = "2019-11-06 01:38:25 +0000";
layers = (
{
anchors = (
{
name = "new anchor";
position = "{342, 810}";
}
);
layerId = "800095D7-3F7A-4DA4-A19A-FCDA22F72CA5";
paths = (
{
closed = 1;
nodes = (
"10 0 LINE",
"105 0 LINE",
"354 710 LINE",
"259 710 LINE"
);
},
{
closed = 1;
nodes = (
"395 624 LINE",
"395 710 LINE",
"270 710 LINE",
"270 624 LINE"
);
},
{
closed = 1;
nodes = (
"329 710 LINE",
"578 0 LINE",
"673 0 LINE",
"424 710 LINE"
);
},
{
closed = 1;
nodes = (
"176 224 LINE",
"508 224 LINE",
"508 310 LINE",
"176 310 LINE"
);
}
);
width = 683;
}
);
leftKerningGroup = A;
rightKerningGroup = A;
unicode = 0041;
},
{
glyphname = AE;
lastChange = "2019-11-06 01:34:35 +0000";
layers = (
{
anchors = (
{
name = "new anchor";
position = "{-36, 810}";
}
);
components = (
{
name = E;
transform = "{1, 0, 0, 1, 388, 0}";
}
);
layerId = "800095D7-3F7A-4DA4-A19A-FCDA22F72CA5";
paths = (
{
closed = 1;
nodes = (
"10 0 LINE",
"105 0 LINE",
"394 710 LINE",
"299 710 LINE"
);
},
{
closed = 1;
nodes = (
"505 624 LINE",
"505 710 LINE",
"310 710 LINE",
"310 624 LINE"
);
},
{
closed = 1;
nodes = (
"176 224 LINE",
"502 224 LINE",
"502 310 LINE",
"176 310 LINE"
);
}
);
width = 988;
}
);
leftKerningGroup = A;
rightKerningGroup = E;
unicode = 00C6;
},
{
glyphname = B;
lastChange = "2019-11-06 03:15:41 +0000";
layers = (
{
layerId = "800095D7-3F7A-4DA4-A19A-FCDA22F72CA5";
paths = (
{
closed = 1;
nodes = (
"50 0 LINE",
"140 0 LINE",
"140 710 LINE",
"50 710 LINE"
);
},
{
closed = 1;
nodes = (
"521 372 OFFCURVE",
"584 450 OFFCURVE",
"584 527 CURVE SMOOTH",
"584 646 OFFCURVE",
"507 710 OFFCURVE",
"364 710 CURVE SMOOTH",
"122 710 LINE",
"122 624 LINE",
"359 624 LINE SMOOTH",
"473 624 OFFCURVE",
"489 566 OFFCURVE",
"489 522 CURVE SMOOTH",
"489 478 OFFCURVE",
"473 420 OFFCURVE",
"359 420 CURVE SMOOTH",
"122 420 LINE",
"122 334 LINE",
"387 334 LINE SMOOTH",
"512 334 OFFCURVE",
"530 260 OFFCURVE",
"530 216 CURVE SMOOTH",
"530 148 OFFCURVE",
"494 86 OFFCURVE",
"380 86 CURVE SMOOTH",
"80 86 LINE",
"80 0 LINE",
"409 0 LINE SMOOTH",
"478 0 OFFCURVE",
"625 48 OFFCURVE",
"625 211 CURVE SMOOTH",
"625 312 OFFCURVE",
"560 395 OFFCURVE",
"431 395 CURVE",
"431 372 LINE"
);
}
);
width = 640;
}
);
leftKerningGroup = B;
rightKerningGroup = B;
unicode = 0042;
},
{
glyphname = C;
lastChange = "2019-11-21 03:32:15 +0000";
layers = (
{
layerId = "800095D7-3F7A-4DA4-A19A-FCDA22F72CA5";
paths = (
{
closed = 1;
nodes = (
"45 100 OFFCURVE",
"174 -16 OFFCURVE",
"344 -16 CURVE SMOOTH",
"426 -16 LINE SMOOTH",
"554 -16 OFFCURVE",
"673 69 OFFCURVE",
"697 233 CURVE",
"604 233 LINE",
"584 141 OFFCURVE",
"511 73 OFFCURVE",
"385 73 CURVE SMOOTH",
"195 73 OFFCURVE",
"135 192 OFFCURVE",
"135 329 CURVE SMOOTH",
"135 381 LINE SMOOTH",
"135 518 OFFCURVE",
"195 640 OFFCURVE",
"385 640 CURVE SMOOTH",
"501 640 OFFCURVE",
"574 580 OFFCURVE",
"598 496 CURVE",
"694 496 LINE",
"663 645 OFFCURVE",
"547 726 OFFCURVE",
"426 726 CURVE SMOOTH",
"344 726 LINE SMOOTH",
"174 726 OFFCURVE",
"45 610 OFFCURVE",
"45 389 CURVE SMOOTH",
"45 321 LINE SMOOTH"
);
}
);
width = 737;
}
);
leftKerningGroup = C;
rightKerningGroup = C;
unicode = 0043;
},
{
glyphname = D;
lastChange = "2019-11-06 01:44:08 +0000";
layers = (
{
layerId = "800095D7-3F7A-4DA4-A19A-FCDA22F72CA5";
paths = (
{
closed = 1;
nodes = (
"156 624 LINE",
"359 624 LINE",
"565 624 OFFCURVE",
"625 502 OFFCURVE",
"625 381 CURVE SMOOTH",
"625 329 LINE SMOOTH",
"625 208 OFFCURVE",
"565 89 OFFCURVE",
"359 89 CURVE",
"156 89 LINE",
"156 0 LINE",
"416 0 LINE SMOOTH",
"586 0 OFFCURVE",
"715 116 OFFCURVE",
"715 321 CURVE SMOOTH",
"715 389 LINE SMOOTH",
"715 591 OFFCURVE",
"586 704 OFFCURVE",
"416 710 CURVE",
"156 710 LINE"
);
},
{
closed = 1;
nodes = (
"90 0 LINE",
"180 0 LINE",
"180 710 LINE",
"90 710 LINE"
);
}
);
width = 760;
}
);
leftKerningGroup = B;
rightKerningGroup = D;
unicode = 0044;
},
{
glyphname = E;
lastChange = "2019-11-06 01:43:48 +0000";
layers = (
{
layerId = "800095D7-3F7A-4DA4-A19A-FCDA22F72CA5";
paths = (
{
closed = 1;
nodes = (
"168 317 LINE",
"558 317 LINE",
"558 403 LINE",
"168 403 LINE"
);
},
{
closed = 1;
nodes = (
"90 0 LINE",
"180 0 LINE",
"180 710 LINE",
"90 710 LINE"
);
},
{
closed = 1;
nodes = (
"168 624 LINE",
"580 624 LINE",
"580 710 LINE",
"168 710 LINE"
);
},
{
closed = 1;
nodes = (
"168 0 LINE",
"580 0 LINE",
"580 86 LINE",
"168 86 LINE"
);
}
);
width = 640;
}
);
leftKerningGroup = B;
rightKerningGroup = E;
unicode = 0045;
},
{
glyphname = F;
lastChange = "2019-11-06 01:44:48 +0000";
layers = (
{
layerId = "800095D7-3F7A-4DA4-A19A-FCDA22F72CA5";
paths = (
{
closed = 1;
nodes = (
"168 317 LINE",
"548 317 LINE",
"548 403 LINE",
"168 403 LINE"
);
},
{
closed = 1;
nodes = (
"90 0 LINE",
"180 0 LINE",
"180 710 LINE",
"90 710 LINE"
);
},
{
closed = 1;
nodes = (
"168 624 LINE",
"570 624 LINE",
"570 710 LINE",
"168 710 LINE"
);
}
);
width = 600;
}
);
leftKerningGroup = B;
rightKerningGroup = F;
unicode = 0046;
},
{
glyphname = G;
lastChange = "2019-11-06 01:42:39 +0000";
layers = (
{
layerId = "800095D7-3F7A-4DA4-A19A-FCDA22F72CA5";
paths = (
{
closed = 1;
nodes = (
"45 100 OFFCURVE",
"174 -16 OFFCURVE",
"344 -16 CURVE SMOOTH",
"426 -16 LINE SMOOTH",
"596 -16 OFFCURVE",
"720 100 OFFCURVE",
"720 321 CURVE SMOOTH",
"720 329 LINE",
"630 329 LINE",
"630 192 OFFCURVE",
"575 73 OFFCURVE",
"385 73 CURVE SMOOTH",
"195 73 OFFCURVE",
"135 192 OFFCURVE",
"135 329 CURVE SMOOTH",
"135 381 LINE SMOOTH",
"135 518 OFFCURVE",
"195 640 OFFCURVE",
"385 640 CURVE SMOOTH",
"521 640 OFFCURVE",
"585 578 OFFCURVE",
"614 492 CURVE",
"709 492 LINE",
"674 643 OFFCURVE",
"567 726 OFFCURVE",
"426 726 CURVE",
"344 726 LINE SMOOTH",
"174 726 OFFCURVE",
"45 610 OFFCURVE",
"45 389 CURVE SMOOTH",
"45 321 LINE SMOOTH"
);
},
{
closed = 1;
nodes = (
"391 278 LINE",
"695 278 LINE",
"720 329 LINE",
"720 364 LINE",
"391 364 LINE"
);
},
{
closed = 1;
nodes = (
"622 131 LINE",
"666 0 LINE",
"720 0 LINE",
"720 364 LINE",
"630 364 LINE"
);
}
);
width = 775;
}
);
leftKerningGroup = G;
rightKerningGroup = G;
unicode = 0047;
},
{
glyphname = H;
lastChange = "2019-11-06 01:42:44 +0000";
layers = (
{
layerId = "800095D7-3F7A-4DA4-A19A-FCDA22F72CA5";
paths = (
{
closed = 1;
nodes = (
"168 317 LINE",
"602 317 LINE",
"602 403 LINE",
"168 403 LINE"
);
},
{
closed = 1;
nodes = (
"90 0 LINE",
"180 0 LINE",
"180 710 LINE",
"90 710 LINE"
);
},
{
closed = 1;
nodes = (
"592 0 LINE",
"682 0 LINE",
"682 710 LINE",
"592 710 LINE"
);
}
);
width = 772;
}
);
leftKerningGroup = H;
rightKerningGroup = H;
unicode = 0048;
},
{
glyphname = Hbar;
lastChange = "2019-11-21 02:47:23 +0000";
layers = (
{
components = (
{
name = H;
}
);
layerId = "800095D7-3F7A-4DA4-A19A-FCDA22F72CA5";
paths = (
{
closed = 1;
nodes = (
"42 506 LINE",
"729 506 LINE",
"729 592 LINE",
"42 592 LINE"
);
}
);
width = 772;
}
);
leftKerningGroup = H;
rightKerningGroup = H;
unicode = 0126;
},
{
glyphname = I;
lastChange = "2019-11-06 01:43:37 +0000";
layers = (
{
layerId = "800095D7-3F7A-4DA4-A19A-FCDA22F72CA5";
paths = (
{
closed = 1;
nodes = (
"90 0 LINE",
"180 0 LINE",
"180 710 LINE",
"90 710 LINE"
);
}
);
width = 270;
}
);
leftKerningGroup = B;
rightKerningGroup = H;
unicode = 0049;
},
{
glyphname = J;
lastChange = "2019-11-06 01:43:26 +0000";
layers = (
{
layerId = "800095D7-3F7A-4DA4-A19A-FCDA22F72CA5";
paths = (
{
closed = 1;
nodes = (
"410 710 LINE",
"410 218 LINE SMOOTH",
"410 128 OFFCURVE",
"374 70 OFFCURVE",
"260 70 CURVE SMOOTH",
"146 70 OFFCURVE",
"110 128 OFFCURVE",
"110 218 CURVE",
"20 218 LINE",
"20 202 LINE SMOOTH",
"20 53 OFFCURVE",
"118 -16 OFFCURVE",
"231 -16 CURVE SMOOTH",
"289 -16 LINE SMOOTH",
"402 -16 OFFCURVE",
"500 53 OFFCURVE",
"500 202 CURVE SMOOTH",
"500 710 LINE"
);
}
);
width = 580;
}
);
leftKerningGroup = J;
rightKerningGroup = J;
unicode = 004A;
},
{
glyphname = K;
lastChange = "2019-11-06 01:45:36 +0000";
layers = (
{
layerId = "800095D7-3F7A-4DA4-A19A-FCDA22F72CA5";
paths = (
{
closed = 1;
nodes = (
"226 344 LINE",
"295 336 LINE",
"336 344 LINE",
"619 710 LINE",
"503 710 LINE"
);
},
{
closed = 1;
nodes = (
"90 0 LINE",
"180 0 LINE",
"180 710 LINE",
"90 710 LINE"
);
},
{
closed = 1;
nodes = (
"659 0 LINE",
"343 408 LINE",
"272 353 LINE",
"541 0 LINE"
);
},
{
closed = 1;
nodes = (
"149 330 LINE",
"351 330 LINE",
"351 420 LINE",
"149 420 LINE"
);
}
);
width = 674;
}
);
leftKerningGroup = B;
rightKerningGroup = K;
unicode = 004B;
},
{
glyphname = L;
lastChange = "2019-11-06 01:45:45 +0000";
layers = (
{
layerId = "800095D7-3F7A-4DA4-A19A-FCDA22F72CA5";
paths = (
{
closed = 1;
nodes = (
"168 0 LINE",
"548 0 LINE",
"548 86 LINE",
"168 86 LINE"
);
},
{
closed = 1;
nodes = (
"90 0 LINE",
"180 0 LINE",
"180 710 LINE",
"90 710 LINE"
);
}
);
width = 573;
}
);
leftKerningGroup = B;
rightKerningGroup = L;
unicode = 004C;
},
{
glyphname = Lslash;
lastChange = "2019-11-21 03:34:10 +0000";
layers = (
{
components = (
{
name = L;
}
);
layerId = "800095D7-3F7A-4DA4-A19A-FCDA22F72CA5";
paths = (
{
closed = 1;
nodes = (
"25 370 LINE",
"25 280 LINE",
"351 464 LINE",
"351 554 LINE"
);
}
);
width = 573;
}
);
leftKerningGroup = B;
rightKerningGroup = L;
unicode = 0141;
},
{
glyphname = M;
lastChange = "2019-11-06 01:46:03 +0000";
layers = (
{
layerId = "800095D7-3F7A-4DA4-A19A-FCDA22F72CA5";
paths = (
{
closed = 1;
nodes = (
"393 0 LINE",
"484 0 LINE",
"293 710 LINE",
"202 710 LINE"
);
},
{
closed = 1;
nodes = (
"111 624 LINE",
"234 624 LINE",
"234 710 LINE",
"111 710 LINE"
);
},
{
closed = 1;
nodes = (
"412 0 LINE",
"535 0 LINE",
"535 86 LINE",
"412 86 LINE"
);
},
{
closed = 1;
nodes = (
"90 0 LINE",
"180 0 LINE",
"180 710 LINE",
"90 710 LINE"
);
},
{
closed = 1;
nodes = (
"654 710 LINE",
"463 0 LINE",
"554 0 LINE",
"745 710 LINE"
);
},
{
closed = 1;
nodes = (
"713 710 LINE",
"713 624 LINE",
"836 624 LINE",
"836 710 LINE"
);
},
{
closed = 1;
nodes = (
"767 710 LINE",
"767 0 LINE",
"857 0 LINE",
"857 710 LINE"
);
}
);
width = 947;
}
);
leftKerningGroup = B;
rightKerningGroup = H;
unicode = 004D;
},
{
glyphname = N;
lastChange = "2019-11-06 01:46:03 +0000";
layers = (
{
components = (
{
name = stem_upper;
},
{
name = stem_upper;
transform = "{1, 0, 0, 1, 500, 0}";
}
);
layerId = "800095D7-3F7A-4DA4-A19A-FCDA22F72CA5";
paths = (
{
closed = 1;
nodes = (
"505 0 LINE",
"600 0 LINE",
"265 710 LINE",
"170 710 LINE"
);
},
{
closed = 1;
nodes = (
"111 624 LINE",
"234 624 LINE",
"234 710 LINE",
"111 710 LINE"
);
},
{
closed = 1;
nodes = (
"537 0 LINE",
"660 0 LINE",
"660 86 LINE",
"537 86 LINE"
);
}
);
width = 770;
}
);
leftKerningGroup = B;
rightKerningGroup = H;
unicode = 004E;
},
{
glyphname = Eng;
lastChange = "2019-11-21 03:34:20 +0000";
layers = (
{
components = (
{
name = N;
}
);
layerId = "800095D7-3F7A-4DA4-A19A-FCDA22F72CA5";
paths = (
{
closed = 1;
nodes = (
"680 -28 OFFCURVE",
"680 -2 OFFCURVE",
"680 18 CURVE SMOOTH",
"680 32 OFFCURVE",
"590 41 OFFCURVE",
"590 25 CURVE SMOOTH",
"590 -2 OFFCURVE",
"590 -42 OFFCURVE",
"590 -59 CURVE",
"590 -115 OFFCURVE",
"480 -115 OFFCURVE",
"429 -106 CURVE",
"429 -182 LINE",
"517 -197 OFFCURVE",
"680 -195 OFFCURVE",
"680 -59 CURVE"
);
}
);
width = 770;
}
);
leftKerningGroup = B;
rightKerningGroup = H;
unicode = 014A;
},
{
glyphname = O;
lastChange = "2019-11-06 01:46:20 +0000";
layers = (
{
layerId = "800095D7-3F7A-4DA4-A19A-FCDA22F72CA5";
paths = (
{
closed = 1;
nodes = (
"344 726 LINE",
"174 726 OFFCURVE",
"45 610 OFFCURVE",
"45 389 CURVE SMOOTH",
"45 321 LINE SMOOTH",
"45 100 OFFCURVE",
"174 -16 OFFCURVE",
"344 -16 CURVE",
"426 -16 LINE",
"596 -16 OFFCURVE",
"725 100 OFFCURVE",
"725 321 CURVE SMOOTH",
"725 389 LINE SMOOTH",
"725 607 OFFCURVE",
"596 726 OFFCURVE",
"426 726 CURVE"
);
},
{
closed = 1;
nodes = (
"635 192 OFFCURVE",
"575 76 OFFCURVE",
"385 76 CURVE SMOOTH",
"195 76 OFFCURVE",
"135 192 OFFCURVE",
"135 329 CURVE SMOOTH",
"135 381 LINE SMOOTH",
"135 518 OFFCURVE",
"195 640 OFFCURVE",
"385 640 CURVE SMOOTH",
"575 640 OFFCURVE",
"635 518 OFFCURVE",
"635 381 CURVE SMOOTH",
"635 329 LINE SMOOTH"
);
}
);
width = 770;
}
);
leftKerningGroup = C;
rightKerningGroup = D;
unicode = 004F;
},
{
glyphname = P;
lastChange = "2019-11-21 02:53:20 +0000";
layers = (
{
layerId = "800095D7-3F7A-4DA4-A19A-FCDA22F72CA5";
paths = (
{
closed = 1;
nodes = (
"90 0 LINE",
"180 0 LINE",
"180 710 LINE",
"90 710 LINE"
);
},
{
closed = 1;
nodes = (
"123 347 LINE",
"123 261 LINE",
"416 261 LINE",
"529 261 OFFCURVE",
"642 310 OFFCURVE",
"642 485 CURVE SMOOTH",
"642 651 OFFCURVE",
"529 710 OFFCURVE",
"416 710 CURVE",
"123 710 LINE",
"123 623 LINE",
"397 623 LINE",
"511 623 OFFCURVE",
"547 565 OFFCURVE",
"547 485 CURVE SMOOTH",
"547 405 OFFCURVE",
"511 347 OFFCURVE",
"397 347 CURVE"
);
}
);
width = 672;
}
);
leftKerningGroup = B;
rightKerningGroup = P;
unicode = 0050;
},
{
glyphname = Thorn;
lastChange = "2019-11-06 01:47:38 +0000";
layers = (
{
components = (
{
name = stem_upper;
}
);
layerId = "800095D7-3F7A-4DA4-A19A-FCDA22F72CA5";
paths = (
{
closed = 1;
nodes = (
"138 247 LINE",
"138 161 LINE",
"292 161 LINE",
"404 161 OFFCURVE",
"517 210 OFFCURVE",
"517 355 CURVE SMOOTH",
"517 491 OFFCURVE",
"404 549 OFFCURVE",
"292 549 CURVE",
"138 550 LINE",
"138 463 LINE",
"284 463 LINE",
"398 463 OFFCURVE",
"422 405 OFFCURVE",
"422 355 CURVE SMOOTH",
"422 305 OFFCURVE",
"398 247 OFFCURVE",
"284 247 CURVE"
);
}
);
width = 537;
}
);
leftKerningGroup = b;
rightKerningGroup = b;
unicode = 00DE;
},
{
glyphname = Q;
lastChange = "2019-11-06 01:47:54 +0000";
layers = (
{
layerId = "800095D7-3F7A-4DA4-A19A-FCDA22F72CA5";
paths = (
{
closed = 1;
nodes = (
"344 726 LINE",
"174 726 OFFCURVE",
"45 610 OFFCURVE",
"45 389 CURVE SMOOTH",
"45 321 LINE SMOOTH",
"45 100 OFFCURVE",
"174 -16 OFFCURVE",
"344 -16 CURVE",
"426 -16 LINE",
"596 -16 OFFCURVE",
"725 100 OFFCURVE",
"725 321 CURVE SMOOTH",
"725 389 LINE SMOOTH",
"725 607 OFFCURVE",
"596 720 OFFCURVE",
"426 726 CURVE"
);
},
{
closed = 1;
nodes = (
"635 192 OFFCURVE",
"575 76 OFFCURVE",
"385 76 CURVE SMOOTH",
"197 76 OFFCURVE",
"135 187 OFFCURVE",
"135 329 CURVE SMOOTH",
"135 381 LINE SMOOTH",
"135 518 OFFCURVE",
"195 640 OFFCURVE",
"385 640 CURVE SMOOTH",
"575 640 OFFCURVE",
"635 518 OFFCURVE",
"635 381 CURVE SMOOTH",
"635 329 LINE SMOOTH"
);
},
{
closed = 1;
nodes = (
"707 -35 LINE",
"768 32 LINE",
"508 270 LINE",
"447 204 LINE"
);
}
);
width = 813;
}
);
leftKerningGroup = C;
rightKerningGroup = Q;
unicode = 0051;
},
{
glyphname = R;
lastChange = "2019-11-21 02:53:06 +0000";
layers = (
{
layerId = "800095D7-3F7A-4DA4-A19A-FCDA22F72CA5";
paths = (
{
closed = 1;
nodes = (
"90 0 LINE",
"180 0 LINE",
"180 710 LINE",
"90 710 LINE"
);
},
{
closed = 1;
nodes = (
"123 347 LINE",
"123 261 LINE",
"416 261 LINE",
"529 261 OFFCURVE",
"642 310 OFFCURVE",
"642 485 CURVE SMOOTH",
"642 651 OFFCURVE",
"529 710 OFFCURVE",
"416 710 CURVE",
"123 710 LINE",
"123 623 LINE",
"397 623 LINE",
"511 623 OFFCURVE",
"547 565 OFFCURVE",
"547 485 CURVE SMOOTH",
"547 405 OFFCURVE",
"511 347 OFFCURVE",
"397 347 CURVE"
);
},
{
closed = 1;
nodes = (
"660 0 LINE",
"480 309 LINE",
"380 309 LINE",
"557 0 LINE"
);
}
);
width = 705;
}
);
leftKerningGroup = B;
rightKerningGroup = R;
unicode = 0052;
},
{
glyphname = S;
lastChange = "2020-01-13 23:57:58 +0000";
layers = (
{
layerId = "800095D7-3F7A-4DA4-A19A-FCDA22F72CA5";
paths = (
{
closed = 1;
nodes = (
"59 56 OFFCURVE",
"184 -16 OFFCURVE",
"344 -16 CURVE",
"556 -16 OFFCURVE",
"632 77 OFFCURVE",
"632 199 CURVE",
"632 367 OFFCURVE",
"492 392 OFFCURVE",
"329 420 CURVE SMOOTH",
"233 436 OFFCURVE",
"159 452 OFFCURVE",
"158 525 CURVE",
"158 596 OFFCURVE",
"225 640 OFFCURVE",
"323 640 CURVE SMOOTH",
"444 640 OFFCURVE",
"492 584 OFFCURVE",
"506 508 CURVE",
"596 508 LINE",
"579 640 OFFCURVE",
"495 726 OFFCURVE",
"323 726 CURVE SMOOTH",
"163 726 OFFCURVE",
"68 648 OFFCURVE",
"68 522 CURVE",
"69 389 OFFCURVE",
"185 357 OFFCURVE",
"317 332 CURVE SMOOTH",
"462 305 OFFCURVE",
"542 285 OFFCURVE",
"542 197 CURVE",
"542 122 OFFCURVE",
"480 73 OFFCURVE",
"353 73 CURVE SMOOTH",
"232 73 OFFCURVE",
"157 121 OFFCURVE",
"138 210 CURVE",
"38 210 LINE"
);
}
);
width = 677;
}
);
leftKerningGroup = S;
rightKerningGroup = S;
unicode = 0053;
},
{
glyphname = T;
lastChange = "2019-11-06 01:48:23 +0000";
layers = (
{
layerId = "800095D7-3F7A-4DA4-A19A-FCDA22F72CA5";
paths = (
{
closed = 1;
nodes = (
"240 0 LINE",
"330 0 LINE",
"330 710 LINE",
"240 710 LINE"
);
},
{
closed = 1;
nodes = (
"10 624 LINE",
"560 624 LINE",
"560 710 LINE",
"10 710 LINE"
);
}
);
width = 570;
}
);
leftKerningGroup = T;
rightKerningGroup = T;
unicode = 0054;
},
{
glyphname = Tbar;
lastChange = "2019-11-21 03:41:05 +0000";
layers = (
{
components = (
{
name = T;
}
);
layerId = "800095D7-3F7A-4DA4-A19A-FCDA22F72CA5";
paths = (
{
closed = 1;
nodes = (
"90 314 LINE",
"480 314 LINE",
"480 400 LINE",
"90 400 LINE"
);
}
);
width = 570;
}
);
leftKerningGroup = T;
rightKerningGroup = T;
unicode = 0166;
},
{
glyphname = Tcedilla;
lastChange = "2019-11-21 03:41:05 +0000";
layers = (
{
components = (
{
name = T;
}
);
layerId = "800095D7-3F7A-4DA4-A19A-FCDA22F72CA5";
paths = (
{
closed = 1;
nodes = (
"400 -66 OFFCURVE",
"326 -32 OFFCURVE",
"258 -38 CURVE",
"227 -70 LINE",
"227 -104 LINE",
"266 -92 OFFCURVE",
"334 -98 OFFCURVE",
"334 -135 CURVE",
"334 -177 OFFCURVE",
"250 -177 OFFCURVE",
"212 -170 CURVE",
"212 -227 LINE",
"278 -238 OFFCURVE",
"400 -237 OFFCURVE",
"400 -135 CURVE"
);
},
{
closed = 1;
nodes = (
"330 0 LINE",
"330 11 LINE",
"270 11 LINE",
"227 -70 LINE",
"294 -70 LINE"
);
}
);
width = 570;
}
);
leftKerningGroup = T;
rightKerningGroup = T;
unicode = 0162;
},
{
glyphname = U;
lastChange = "2019-11-21 03:41:14 +0000";
layers = (
{
layerId = "800095D7-3F7A-4DA4-A19A-FCDA22F72CA5";
paths = (
{
closed = 1;
nodes = (
"610 710 LINE",
"610 329 LINE SMOOTH",
"610 172 OFFCURVE",
"570 76 OFFCURVE",
"390 76 CURVE SMOOTH",
"210 76 OFFCURVE",
"170 172 OFFCURVE",
"170 329 CURVE SMOOTH",
"170 710 LINE",
"80 710 LINE",
"80 321 LINE SMOOTH",
"80 80 OFFCURVE",
"189 -16 OFFCURVE",
"379 -16 CURVE SMOOTH",
"401 -16 LINE SMOOTH",
"591 -16 OFFCURVE",
"700 80 OFFCURVE",
"700 321 CURVE SMOOTH",
"700 710 LINE"
);
}
);
width = 780;
}
);
leftKerningGroup = U;
rightKerningGroup = J;
unicode = 0055;
},
{
glyphname = Uogonek;
lastChange = "2019-11-21 03:41:14 +0000";
layers = (
{
components = (
{
name = U;
}
);
layerId = "800095D7-3F7A-4DA4-A19A-FCDA22F72CA5";
paths = (
{
closed = 1;
nodes = (
"371 -208 OFFCURVE",
"493 -209 OFFCURVE",
"559 -198 CURVE",
"559 -132 LINE",
"521 -139 OFFCURVE",
"437 -139 OFFCURVE",
"437 -97 CURVE",
"437 -36 OFFCURVE",
"507 -6 OFFCURVE",
"534 5 CURVE",
"492 31 LINE",
"426 7 OFFCURVE",
"371 -19 OFFCURVE",
"371 -106 CURVE"
);
}
);
width = 780;
}
);
leftKerningGroup = U;
rightKerningGroup = J;
unicode = 0172;
},
{
glyphname = V;
lastChange = "2019-11-06 01:49:10 +0000";
layers = (
{
layerId = "800095D7-3F7A-4DA4-A19A-FCDA22F72CA5";
paths = (
{
closed = 1;
nodes = (
"339 0 LINE",
"105 710 LINE",
"10 710 LINE",
"249 0 LINE"
);
},
{
closed = 1;
nodes = (
"278 0 LINE",
"403 0 LINE",
"403 86 LINE",
"278 86 LINE"
);
},
{
closed = 1;
nodes = (
"659 710 LINE",
"564 710 LINE",
"330 0 LINE",
"420 0 LINE"
);
}
);
width = 669;
}
);
leftKerningGroup = "10";
rightKerningGroup = "10";
unicode = 0056;
},
{
glyphname = W;
lastChange = "2019-11-06 01:49:23 +0000";
layers = (
{
layerId = "800095D7-3F7A-4DA4-A19A-FCDA22F72CA5";
paths = (
{
closed = 1;
nodes = (
"239 0 LINE",
"110 710 LINE",
"15 710 LINE",
"149 0 LINE"
);
},
{
closed = 1;
nodes = (
"453 710 LINE",
"363 710 LINE",
"247 0 LINE",
"337 0 LINE"
);
},
{
closed = 1;
nodes = (
"190 0 LINE",
"315 0 LINE",
"315 86 LINE",
"190 86 LINE"
);
},
{
closed = 1;
nodes = (
"660 0 LINE",
"544 710 LINE",
"454 710 LINE",
"570 0 LINE"
);
},
{
closed = 1;
nodes = (
"892 710 LINE",
"797 710 LINE",
"668 0 LINE",
"758 0 LINE"
);
},
{
closed = 1;
nodes = (
"601 0 LINE",
"726 0 LINE",
"726 86 LINE",
"601 86 LINE"
);
},
{
closed = 1;
nodes = (
"399 624 LINE",
"524 624 LINE",
"524 710 LINE",
"399 710 LINE"
);
}
);
width = 907;
}
);
leftKerningGroup = W;
rightKerningGroup = W;
unicode = 0057;
},
{
glyphname = X;
lastChange = "2019-11-06 01:49:30 +0000";
layers = (
{
layerId = "800095D7-3F7A-4DA4-A19A-FCDA22F72CA5";
paths = (
{
closed = 1;
nodes = (
"314 371 LINE",
"120 710 LINE",
"20 710 LINE",
"219 371 LINE"
);
},
{
closed = 1;
nodes = (
"626 710 LINE",
"526 710 LINE",
"332 371 LINE",
"427 371 LINE"
);
},
{
closed = 1;
nodes = (
"10 0 LINE",
"110 0 LINE",
"314 371 LINE",
"219 371 LINE"
);
},
{
closed = 1;
nodes = (
"332 371 LINE",
"536 0 LINE",
"636 0 LINE",
"427 371 LINE"
);
},
{
closed = 1;
nodes = (
"239 326 LINE",
"407 326 LINE",
"407 416 LINE",
"239 416 LINE"
);
}
);
width = 646;
}
);
leftKerningGroup = X;
rightKerningGroup = X;
unicode = 0058;
},
{
glyphname = Y;
lastChange = "2019-11-06 01:49:43 +0000";
layers = (
{
layerId = "800095D7-3F7A-4DA4-A19A-FCDA22F72CA5";
paths = (
{
closed = 1;
nodes = (
"299 284 LINE",
"110 710 LINE",
"10 710 LINE",
"209 284 LINE"
);
},
{
closed = 1;
nodes = (
"229 284 LINE",
"397 284 LINE",
"397 370 LINE",
"229 370 LINE"
);
},
{
closed = 1;
nodes = (
"616 710 LINE",
"516 710 LINE",
"327 284 LINE",
"417 284 LINE"
);
},
{
closed = 1;
nodes = (
"268 0 LINE",
"358 0 LINE",
"358 337 LINE",
"268 337 LINE"
);
}
);
width = 626;
}
);
leftKerningGroup = Y;
rightKerningGroup = Y;
unicode = 0059;
},
{
glyphname = Z;
lastChange = "2019-11-21 03:41:39 +0000";
layers = (
{
layerId = "800095D7-3F7A-4DA4-A19A-FCDA22F72CA5";
paths = (
{
closed = 1;
nodes = (
"45 163 LINE",
"45 75 LINE",
"85 75 LINE",
"593 554 LINE",
"593 639 LINE",
"554 639 LINE"
);
},
{
closed = 1;
nodes = (
"50 624 LINE",
"593 624 LINE",
"593 710 LINE",
"50 710 LINE"
);
},
{
closed = 1;
nodes = (
"45 0 LINE",
"633 0 LINE",
"633 90 LINE",
"45 90 LINE"
);
},
{
closed = 1;
nodes = (
"503 554 LINE",
"593 554 LINE",
"593 686 LINE",
"503 686 LINE"
);
},
{
closed = 1;
nodes = (
"45 55 LINE",
"135 55 LINE",
"135 149 LINE",
"45 149 LINE"
);
}
);
width = 673;
}
);
leftKerningGroup = Z;
rightKerningGroup = Z;
unicode = 005A;
},
{
glyphname = a;
lastChange = "2019-12-10 22:14:44 +0000";
layers = (
{
anchors = (
{
name = "new anchor";
position = "{270, 565}";
}
);
layerId = "800095D7-3F7A-4DA4-A19A-FCDA22F72CA5";
paths = (
{
closed = 1;
nodes = (
"260 496 LINE",
"260 410 LINE",
"299 410 LINE",
"397 410 OFFCURVE",
"404 362 OFFCURVE",
"404 282 CURVE",
"404 181 LINE",
"494 181 LINE",
"494 298 LINE",
"494 447 OFFCURVE",
"417 496 OFFCURVE",
"328 496 CURVE"
);
},
{
closed = 1;
nodes = (
"424 228 LINE",
"424 304 LINE",
"241 304 LINE SMOOTH",
"124 304 OFFCURVE",
"50 242 OFFCURVE",
"50 154 CURVE SMOOTH",
"50 143 LINE SMOOTH",
"50 21 OFFCURVE",
"148 -15 OFFCURVE",
"241 -15 CURVE SMOOTH",
"309 -15 OFFCURVE",
"394 3 OFFCURVE",
"421 69 CURVE",
"404 149 LINE",
"404 85 OFFCURVE",
"310 71 OFFCURVE",
"270 71 CURVE SMOOTH",
"176 71 OFFCURVE",
"140 91 OFFCURVE",
"140 147 CURVE SMOOTH",
"140 179 OFFCURVE",
"158 228 OFFCURVE",
"270 228 CURVE SMOOTH"
);
},
{
closed = 1;
nodes = (
"63 423 OFFCURVE",
"132 496 OFFCURVE",
"230 496 CURVE",
"260 496 LINE",
"260 410 LINE",
"239 410 LINE",
"189 410 OFFCURVE",
"153 382 OFFCURVE",
"153 350 CURVE",
"63 350 LINE"
);
},
{
closed = 1;
nodes = (
"533 86 LINE",
"515 86 OFFCURVE",
"494 92 OFFCURVE",
"494 123 CURVE",
"494 197 LINE",
"404 197 LINE",
"404 100 LINE",
"404 1 OFFCURVE",
"476 0 OFFCURVE",
"533 0 CURVE"
);
}
);
width = 573;
}
);
leftKerningGroup = a;
rightKerningGroup = a;
unicode = 0061;
},
{
glyphname = ae;
lastChange = "2019-11-06 01:50:24 +0000";
layers = (
{
anchors = (
{
name = "new anchor";
position = "{270, 565}";
}
);
components = (
{
name = e;
transform = "{1, 0, 0, 1, 377, 0}";
}
);
layerId = "800095D7-3F7A-4DA4-A19A-FCDA22F72CA5";
paths = (
{
closed = 1;
nodes = (
"260 496 LINE",
"260 410 LINE",
"299 410 LINE",
"397 410 OFFCURVE",
"404 362 OFFCURVE",
"404 282 CURVE",
"404 99 LINE",
"494 99 LINE",
"494 298 LINE",
"494 447 OFFCURVE",
"417 496 OFFCURVE",
"328 496 CURVE"
);
},
{
closed = 1;
nodes = (
"424 223 LINE",
"424 297 LINE",
"241 297 LINE SMOOTH",
"124 297 OFFCURVE",
"50 242 OFFCURVE",
"50 154 CURVE SMOOTH",
"50 143 LINE SMOOTH",
"50 21 OFFCURVE",
"148 -15 OFFCURVE",
"241 -15 CURVE SMOOTH",
"368 -15 OFFCURVE",
"471 31 OFFCURVE",
"471 149 CURVE",
"404 149 LINE",
"404 85 OFFCURVE",
"310 71 OFFCURVE",
"270 71 CURVE SMOOTH",
"176 71 OFFCURVE",
"140 91 OFFCURVE",
"140 147 CURVE SMOOTH",
"140 179 OFFCURVE",
"158 223 OFFCURVE",
"270 223 CURVE SMOOTH"
);
},
{
closed = 1;
nodes = (
"63 423 OFFCURVE",
"132 496 OFFCURVE",
"230 496 CURVE",
"260 496 LINE",
"260 410 LINE",
"239 410 LINE",
"189 410 OFFCURVE",
"153 382 OFFCURVE",
"153 350 CURVE",
"63 350 LINE"
);
}
);
width = 927;
}
);
leftKerningGroup = a;
rightKerningGroup = e;
unicode = 00E6;
},
{
glyphname = b;
lastChange = "2019-11-06 01:50:40 +0000";
layers = (
{
components = (
{
name = bulb_lowercase;
transform = "{1, 0, 0, 1, -10, 0}";
}
);
layerId = "800095D7-3F7A-4DA4-A19A-FCDA22F72CA5";
paths = (
{
closed = 1;
nodes = (
"170 231 LINE",
"170 229 LINE"
);
},
{
closed = 1;
nodes = (
"170 249 LINE",
"170 251 LINE"
);
},
{
closed = 1;
nodes = (
"80 0 LINE",
"170 0 LINE",
"170 726 LINE",
"80 726 LINE"
);
}
);
width = 584;
}
);
leftKerningGroup = b;
rightKerningGroup = b;
unicode = 0062;
},
{
glyphname = c;
lastChange = "2019-11-06 01:50:43 +0000";
layers = (
{
layerId = "800095D7-3F7A-4DA4-A19A-FCDA22F72CA5";
paths = (
{
closed = 1;
nodes = (
"40 53 OFFCURVE",
"138 -16 OFFCURVE",
"246 -16 CURVE SMOOTH",
"304 -16 LINE SMOOTH",
"400 -16 OFFCURVE",
"483 42 OFFCURVE",
"492 167 CURVE",
"399 167 LINE",
"391 107 OFFCURVE",
"358 70 OFFCURVE",
"275 70 CURVE SMOOTH",
"166 70 OFFCURVE",
"130 128 OFFCURVE",
"130 218 CURVE SMOOTH",
"130 262 LINE SMOOTH",
"130 352 OFFCURVE",
"166 410 OFFCURVE",
"275 410 CURVE SMOOTH",
"351 410 OFFCURVE",
"385 378 OFFCURVE",
"396 325 CURVE",
"490 325 LINE",
"477 442 OFFCURVE",
"396 496 OFFCURVE",
"304 496 CURVE SMOOTH",
"246 496 LINE SMOOTH",
"138 496 OFFCURVE",
"40 427 OFFCURVE",
"40 278 CURVE SMOOTH",
"40 202 LINE SMOOTH"
);
}
);
width = 522;
}
);
leftKerningGroup = c;
rightKerningGroup = c;
unicode = 0063;
},
{
glyphname = d;
lastChange = "2019-11-06 01:50:58 +0000";
layers = (
{
components = (
{
name = bulb_lowercase;
transform = "{-1, 0, 0, 1, 599, 0}";
}
);
layerId = "800095D7-3F7A-4DA4-A19A-FCDA22F72CA5";
paths = (
{
closed = 1;
nodes = (
"419 726 LINE",
"419 0 LINE",
"509 0 LINE",
"509 726 LINE"
);
}
);
width = 584;
}
);
leftKerningGroup = c;
rightKerningGroup = d;
unicode = 0064;
},
{
glyphname = eth;
lastChange = "2019-11-06 03:08:45 +0000";
layers = (
{
layerId = "800095D7-3F7A-4DA4-A19A-FCDA22F72CA5";
paths = (
{
closed = 1;
nodes = (
"248 76 OFFCURVE",
"180 150 OFFCURVE",
"180 251 CURVE SMOOTH",
"180 325 OFFCURVE",
"214 410 OFFCURVE",
"320 410 CURVE SMOOTH",
"417 410 OFFCURVE",
"469 347 OFFCURVE",
"469 251 CURVE SMOOTH",
"469 153 OFFCURVE",
"434 76 OFFCURVE",
"320 76 CURVE SMOOTH"
);
},
{
closed = 1;
nodes = (
"559 688 OFFCURVE",
"268 726 OFFCURVE",
"176 726 CURVE",
"176 646 LINE",
"275 646 OFFCURVE",
"448 582 OFFCURVE",
"463 418 CURVE",
"434 470 OFFCURVE",
"369 496 OFFCURVE",
"315 496 CURVE SMOOTH",
"175 496 OFFCURVE",
"90 413 OFFCURVE",
"90 251 CURVE SMOOTH",
"90 77 OFFCURVE",
"200 -16 OFFCURVE",
"320 -16 CURVE SMOOTH",
"434 -16 OFFCURVE",
"559 55 OFFCURVE",
"559 276 CURVE"
);
},
{
closed = 1;
nodes = (
"176 508 LINE",
"484 660 LINE",
"484 737 LINE",
"176 585 LINE"
);
}
);
width = 657;
}
);
unicode = 00F0;
},
{
glyphname = dcaron;
lastChange = "2019-11-22 00:58:51 +0000";
layers = (
{
anchors = (
{
name = top;
position = "{354, 768}";
}
);
components = (
{
name = d;
}
);
layerId = "800095D7-3F7A-4DA4-A19A-FCDA22F72CA5";
paths = (
{
closed = 1;
nodes = (
"665 771 LINE",
"575 771 LINE",
"547 551 LINE",
"627 551 LINE"
);
}
);
width = 584;
}
);
leftKerningGroup = c;
rightKerningGroup = d;
unicode = 010F;
},
{
glyphname = e;
lastChange = "2019-11-06 01:52:46 +0000";
layers = (
{
layerId = "800095D7-3F7A-4DA4-A19A-FCDA22F72CA5";
paths = (
{
closed = 1;
nodes = (
"40 52 OFFCURVE",
"133 -16 OFFCURVE",
"251 -16 CURVE SMOOTH",
"309 -16 LINE SMOOTH",
"409 -16 OFFCURVE",
"498 38 OFFCURVE",
"516 155 CURVE",
"422 155 LINE",
"406 102 OFFCURVE",
"364 70 OFFCURVE",
"280 70 CURVE SMOOTH",
"166 70 OFFCURVE",
"127 128 OFFCURVE",
"127 218 CURVE SMOOTH",
"127 262 LINE SMOOTH",
"127 352 OFFCURVE",
"156 410 OFFCURVE",
"280 410 CURVE SMOOTH",
"404 410 OFFCURVE",
"433 352 OFFCURVE",
"433 262 CURVE",
"520 262 LINE",
"520 278 LINE",
"520 427 OFFCURVE",
"412 496 OFFCURVE",
"299 496 CURVE SMOOTH",
"261 496 LINE SMOOTH",
"148 496 OFFCURVE",
"40 427 OFFCURVE",
"40 278 CURVE SMOOTH",
"40 202 LINE SMOOTH"
);
},
{
closed = 1;
nodes = (
"117 223 LINE",
"520 223 LINE",
"520 267 LINE",
"506 297 LINE",
"117 297 LINE"
);
}
);
width = 560;
}
);
leftKerningGroup = c;
rightKerningGroup = e;
unicode = 0065;
},
{
glyphname = eogonek;
lastChange = "2019-11-21 03:49:06 +0000";
layers = (
{
components = (
{
name = e;
}
);
layerId = "800095D7-3F7A-4DA4-A19A-FCDA22F72CA5";
paths = (
{
closed = 1;
nodes = (
"300 -192 OFFCURVE",
"422 -193 OFFCURVE",
"488 -182 CURVE",
"488 -116 LINE",
"450 -123 OFFCURVE",
"366 -123 OFFCURVE",
"366 -81 CURVE",
"366 -20 OFFCURVE",
"395 -7 OFFCURVE",
"435 20 CURVE",
"391 43 LINE",
"357 13 OFFCURVE",
"300 -3 OFFCURVE",
"300 -90 CURVE"
);
}
);
width = 560;
}
);
leftKerningGroup = c;
rightKerningGroup = e;
unicode = 0119;
},
{
glyphname = f;
lastChange = "2019-11-06 02:42:08 +0000";
layers = (
{
layerId = "800095D7-3F7A-4DA4-A19A-FCDA22F72CA5";
paths = (
{
closed = 1;
nodes = (
"168 710 OFFCURVE",
"91 661 OFFCURVE",
"91 512 CURVE",
"91 0 LINE",
"181 0 LINE",
"181 496 LINE",
"181 576 OFFCURVE",
"206 624 OFFCURVE",
"286 624 CURVE",
"386 624 LINE",
"386 710 LINE",
"257 710 LINE"
);
},
{
closed = 1;
nodes = (
"20 394 LINE",
"326 394 LINE",
"326 480 LINE",
"20 480 LINE"
);
}
);
width = 396;
}
);
leftKerningGroup = f;
rightKerningGroup = f;
unicode = 0066;
},
{
glyphname = g;
lastChange = "2019-11-06 01:53:07 +0000";
layers = (
{
layerId = "800095D7-3F7A-4DA4-A19A-FCDA22F72CA5";
paths = (
{
closed = 1;
nodes = (
"509 12 LINE",
"509 480 LINE",
"419 480 LINE",
"419 28 LINE"
);
},
{
closed = 1;
nodes = (
"419 28 LINE",
"419 -62 OFFCURVE",
"405 -120 OFFCURVE",
"281 -120 CURVE SMOOTH",
"192 -120 OFFCURVE",
"170 -99 OFFCURVE",
"153 -64 CURVE",
"52 -64 LINE",
"80 -161 OFFCURVE",
"162 -206 OFFCURVE",
"253 -206 CURVE SMOOTH",
"305 -206 LINE SMOOTH",
"423 -206 OFFCURVE",
"509 -138 OFFCURVE",
"509 12 CURVE"
);
},
{
closed = 1;
nodes = (
"419 236 LINE",
"419 113 OFFCURVE",
"335 86 OFFCURVE",
"285 86 CURVE SMOOTH",
"171 86 OFFCURVE",
"135 146 OFFCURVE",
"135 236 CURVE SMOOTH",
"135 262 LINE SMOOTH",
"135 352 OFFCURVE",
"171 410 OFFCURVE",
"285 410 CURVE SMOOTH",
"335 410 OFFCURVE",
"419 374 OFFCURVE",
"419 251 CURVE",
"425 381 LINE",
"398 447 OFFCURVE",
"324 496 OFFCURVE",
"256 496 CURVE SMOOTH",
"143 496 OFFCURVE",
"45 427 OFFCURVE",
"45 278 CURVE SMOOTH",
"45 220 LINE SMOOTH",
"45 71 OFFCURVE",
"143 0 OFFCURVE",
"256 0 CURVE SMOOTH",
"324 0 OFFCURVE",
"403 40 OFFCURVE",
"425 106 CURVE"
);
}
);
width = 579;
}
);
leftKerningGroup = c;
rightKerningGroup = g;
unicode = 0067;
},
{
glyphname = h;
lastChange = "2019-11-21 03:45:56 +0000";
layers = (
{
components = (
{
name = shoulder_01;
transform = "{1, 0, 0, 1, 170, 0}";
}
);
layerId = "800095D7-3F7A-4DA4-A19A-FCDA22F72CA5";
paths = (
{
closed = 1;
nodes = (
"80 0 LINE",
"170 0 LINE",
"170 726 LINE",
"80 726 LINE"
);
}
);
width = 584;
}
);
leftKerningGroup = b;
rightKerningGroup = h;
unicode = 0068;
},
{
glyphname = imacron;
lastChange = "2019-11-22 00:46:59 +0000";
layers = (
{
components = (
{
name = stem_lowercase;
transform = "{1, 0, 0, 1, -16, 0}";
}
);
layerId = "800095D7-3F7A-4DA4-A19A-FCDA22F72CA5";
paths = (
{
closed = 1;
nodes = (
"0.269 591 LINE",
"238 591 LINE",
"238 661 LINE",
"0.269 661 LINE"
);
}
);
width = 238;
}
);
leftKerningGroup = i;
rightKerningGroup = i;
unicode = 012B;
},
{
glyphname = j;
lastChange = "2019-11-06 01:53:52 +0000";
layers = (
{
components = (
{
name = dotaccentcomb;
transform = "{1, 0, 0, 1, 52, 0}";
}
);
layerId = "800095D7-3F7A-4DA4-A19A-FCDA22F72CA5";
paths = (
{
closed = 1;
nodes = (
"133 -206 OFFCURVE",
"210 -157 OFFCURVE",
"210 -8 CURVE",
"210 480 LINE",
"120 480 LINE",
"120 8 LINE",
"120 -72 OFFCURVE",
"95 -120 OFFCURVE",
"15 -120 CURVE",
"15 -120 LINE",
"-15 -120 LINE",
"-15 -206 LINE",
"44 -206 LINE"
);
}
);
width = 282;
}
);
leftKerningGroup = j;
rightKerningGroup = j;
unicode = 006A;
},
{
glyphname = k;
lastChange = "2019-11-06 01:53:59 +0000";
layers = (
{
layerId = "800095D7-3F7A-4DA4-A19A-FCDA22F72CA5";
paths = (
{
closed = 1;
nodes = (
"173 274 LINE",
"200 239 LINE",
"252 239 LINE",
"502 495 LINE",
"378 495 LINE"
);
},
{
closed = 1;
nodes = (
"80 0 LINE",
"170 0 LINE",
"170 726 LINE",
"80 726 LINE"
);
},
{
closed = 1;
nodes = (
"544 0 LINE",
"278 331 LINE",
"215 272 LINE",
"428 0 LINE"
);
},
{
closed = 1;
nodes = (
"139 238 LINE",
"264 238 LINE",
"264 328 LINE",
"139 328 LINE"
);
}
);
width = 554;
}
);
leftKerningGroup = b;
rightKerningGroup = k;
unicode = 006B;
},
{
glyphname = l;
lastChange = "2019-11-22 01:00:20 +0000";
layers = (
{
layerId = "800095D7-3F7A-4DA4-A19A-FCDA22F72CA5";
paths = (
{
closed = 1;
nodes = (
"80 0 LINE",
"170 0 LINE",
"170 726 LINE",
"80 726 LINE"
);
}
);
width = 250;
}
);
leftKerningGroup = b;
rightKerningGroup = d;
unicode = 006C;
},
{
glyphname = lslash;
lastChange = "2019-11-22 01:00:20 +0000";
layers = (
{
components = (
{
name = l;
}
);
layerId = "800095D7-3F7A-4DA4-A19A-FCDA22F72CA5";
paths = (
{
closed = 1;
nodes = (
"22 366 LINE",
"22 276 LINE",
"231 460 LINE",
"231 550 LINE"
);
}
);
width = 250;
}
);
leftKerningGroup = b;
rightKerningGroup = d;
unicode = 0142;
},
{
glyphname = m;
lastChange = "2019-11-06 01:54:22 +0000";
layers = (
{
components = (
{
name = stem_lowercase;
transform = "{1, 0, 0, 1, -10, 0}";
}
);
layerId = "800095D7-3F7A-4DA4-A19A-FCDA22F72CA5";
paths = (
{
closed = 1;
nodes = (
"484 0 LINE",
"484 298 LINE SMOOTH",
"484 447 OFFCURVE",
"378 496 OFFCURVE",
"315 496 CURVE SMOOTH",
"247 496 OFFCURVE",
"181 447 OFFCURVE",
"154 381 CURVE",
"170 251 LINE",
"170 374 OFFCURVE",
"236 410 OFFCURVE",
"286 410 CURVE SMOOTH",
"350 410 OFFCURVE",
"394 372 OFFCURVE",
"394 282 CURVE SMOOTH",
"394 0 LINE"
);
},
{
closed = 1;
nodes = (
"798 0 LINE",
"798 298 LINE SMOOTH",
"798 447 OFFCURVE",
"692 496 OFFCURVE",
"629 496 CURVE SMOOTH",
"561 496 OFFCURVE",
"495 447 OFFCURVE",
"468 381 CURVE",
"484 251 LINE",
"484 374 OFFCURVE",
"550 410 OFFCURVE",
"600 410 CURVE SMOOTH",
"664 410 OFFCURVE",
"708 372 OFFCURVE",
"708 282 CURVE SMOOTH",
"708 0 LINE"
);
}
);
width = 868;
}
);
leftKerningGroup = m;
rightKerningGroup = h;
unicode = 006D;
},
{
glyphname = eng;
lastChange = "2019-11-22 01:00:36 +0000";
layers = (
{
components = (
{
name = n;
}
);
layerId = "800095D7-3F7A-4DA4-A19A-FCDA22F72CA5";
paths = (
{
closed = 1;
nodes = (
"514 -28 OFFCURVE",
"514 -2 OFFCURVE",
"514 18 CURVE SMOOTH",
"514 32 OFFCURVE",
"424 41 OFFCURVE",
"424 25 CURVE SMOOTH",
"424 -2 OFFCURVE",
"424 -42 OFFCURVE",
"424 -59 CURVE",
"424 -115 OFFCURVE",
"314 -115 OFFCURVE",
"263 -106 CURVE",
"263 -182 LINE",
"351 -197 OFFCURVE",
"514 -195 OFFCURVE",
"514 -59 CURVE"
);
}
);
width = 584;
}
);
leftKerningGroup = m;
rightKerningGroup = h;
unicode = 014B;
},
{
glyphname = o;
lastChange = "2019-11-06 01:54:31 +0000";
layers = (
{
layerId = "800095D7-3F7A-4DA4-A19A-FCDA22F72CA5";
paths = (
{
closed = 1;
nodes = (
"251 496 LINE",
"138 496 OFFCURVE",
"40 427 OFFCURVE",
"40 278 CURVE SMOOTH",
"40 202 LINE SMOOTH",
"40 53 OFFCURVE",
"138 -16 OFFCURVE",
"251 -16 CURVE",
"309 -16 LINE",
"422 -16 OFFCURVE",
"520 53 OFFCURVE",
"520 202 CURVE SMOOTH",
"520 278 LINE SMOOTH",
"520 427 OFFCURVE",
"422 496 OFFCURVE",
"309 496 CURVE"
);
},
{
closed = 1;
nodes = (
"430 128 OFFCURVE",
"394 70 OFFCURVE",
"280 70 CURVE SMOOTH",
"166 70 OFFCURVE",
"130 128 OFFCURVE",
"130 218 CURVE SMOOTH",
"130 262 LINE SMOOTH",
"130 352 OFFCURVE",
"166 410 OFFCURVE",
"280 410 CURVE SMOOTH",
"394 410 OFFCURVE",
"430 352 OFFCURVE",
"430 262 CURVE SMOOTH",
"430 218 LINE SMOOTH"
);
}
);
width = 560;
}
);
leftKerningGroup = c;
rightKerningGroup = b;
unicode = 006F;
},
{
glyphname = oslash;
lastChange = "2019-11-22 01:01:36 +0000";
layers = (
{
components = (
{
name = o;
}
);
layerId = "800095D7-3F7A-4DA4-A19A-FCDA22F72CA5";
paths = (
{
closed = 1;
nodes = (
"46 -38 LINE",
"103 -78 LINE",
"508 504 LINE",
"450 544 LINE"
);
}
);
width = 560;
}
);
leftKerningGroup = c;
rightKerningGroup = b;
unicode = 00F8;
},
{
glyphname = r;
lastChange = "2019-11-06 01:56:10 +0000";
layers = (
{
components = (
{
name = stem_lowercase;
transform = "{1, 0, 0, 1, -10, 0}";
}
);
layerId = "800095D7-3F7A-4DA4-A19A-FCDA22F72CA5";
paths = (
{
closed = 1;
nodes = (
"401 394 LINE",
"401 480 LINE",
"333 480 LINE",
"255 480 OFFCURVE",
"170 421 OFFCURVE",
"154 355 CURVE",
"170 225 LINE",
"170 348 OFFCURVE",
"254 394 OFFCURVE",
"304 394 CURVE"
);
}
);
width = 421;
}
);
leftKerningGroup = m;
rightKerningGroup = r;
unicode = 0072;
},
{
glyphname = s;
lastChange = "2019-11-06 01:56:42 +0000";
layers = (
{
layerId = "800095D7-3F7A-4DA4-A19A-FCDA22F72CA5";
paths = (
{
closed = 1;
nodes = (
"261 296 CURVE SMOOTH",
"180 304 OFFCURVE",
"145 315 OFFCURVE",
"145 355 CURVE SMOOTH",
"145 388 OFFCURVE",
"188 413 OFFCURVE",
"253 413 CURVE SMOOTH",
"331 413 OFFCURVE",
"361 389 OFFCURVE",
"371 354 CURVE",
"471 354 LINE",
"449 451 OFFCURVE",
"363 496 OFFCURVE",
"263 496 CURVE SMOOTH",
"131 496 OFFCURVE",
"55 438 OFFCURVE",
"55 347 CURVE SMOOTH",
"55 274 OFFCURVE",
"96 232 OFFCURVE",
"231 216 CURVE SMOOTH",
"373 199 OFFCURVE",
"402 189 OFFCURVE",
"402 146 CURVE SMOOTH",
"402 112 OFFCURVE",
"383 70 OFFCURVE",
"269 70 CURVE SMOOTH",
"175 70 OFFCURVE",
"143 103 OFFCURVE",
"135 138 CURVE",
"35 138 LINE",
"57 41 OFFCURVE",
"126 -16 OFFCURVE",
"268 -16 CURVE SMOOTH",
"422 -16 OFFCURVE",
"492 49 OFFCURVE",
"492 145 CURVE SMOOTH",
"492 233 OFFCURVE",
"442 278 OFFCURVE"
);
}
);
width = 537;
}
);
leftKerningGroup = s;
rightKerningGroup = s;
unicode = 0073;
},
{
glyphname = germandbls;
lastChange = "2019-11-06 01:56:57 +0000";
layers = (
{
layerId = "800095D7-3F7A-4DA4-A19A-FCDA22F72CA5";
paths = (
{
closed = 1;
nodes = (
"80 0 LINE",
"175 0 LINE",
"175 591 LINE",
"80 527 LINE"
);
},
{
closed = 1;
nodes = (
"430 372 OFFCURVE",
"493 450 OFFCURVE",
"493 527 CURVE SMOOTH",
"493 646 OFFCURVE",
"412 710 OFFCURVE",
"279 710 CURVE SMOOTH",
"279 710 LINE",
"279 634 LINE",
"279 634 LINE SMOOTH",
"355 634 OFFCURVE",
"398 591 OFFCURVE",
"398 522 CURVE SMOOTH",
"398 478 OFFCURVE",
"382 420 OFFCURVE",
"288 420 CURVE SMOOTH",
"262 420 LINE",
"262 334 LINE",
"316 334 LINE SMOOTH",
"421 334 OFFCURVE",
"439 260 OFFCURVE",
"439 216 CURVE SMOOTH",
"439 148 OFFCURVE",
"403 86 OFFCURVE",
"309 86 CURVE SMOOTH",
"262 86 LINE",
"262 0 LINE",
"338 0 LINE SMOOTH",
"387 0 OFFCURVE",
"534 48 OFFCURVE",
"534 211 CURVE SMOOTH",
"534 312 OFFCURVE",
"469 395 OFFCURVE",
"360 395 CURVE",
"360 372 LINE"
);
},
{
closed = 1;
nodes = (
"175 522 LINE",
"175 566 OFFCURVE",
"199 634 OFFCURVE",
"279 634 CURVE SMOOTH",
"279 634 LINE",
"279 710 LINE",
"279 710 LINE SMOOTH",
"180 710 OFFCURVE",
"80 646 OFFCURVE",
"80 527 CURVE"
);
}
);
width = 559;
}
);
leftKerningGroup = germandbls;
rightKerningGroup = germandbls;
unicode = 00DF;
},
{
glyphname = t;
lastChange = "2019-11-22 02:22:57 +0000";
layers = (
{
layerId = "800095D7-3F7A-4DA4-A19A-FCDA22F72CA5";
paths = (
{
closed = 1;
nodes = (
"316 0 LINE",
"316 86 LINE",
"286 86 LINE",
"286 86 LINE",
"206 86 OFFCURVE",
"181 134 OFFCURVE",
"181 214 CURVE",
"181 726 LINE",
"91 726 LINE",
"91 198 LINE",
"91 49 OFFCURVE",
"168 0 OFFCURVE",
"257 0 CURVE"
);
},
{
closed = 1;
nodes = (
"20 394 LINE",
"316 394 LINE",
"316 480 LINE",
"20 480 LINE"
);
}
);
width = 361;
}
);
leftKerningGroup = t;
rightKerningGroup = t;
unicode = 0074;
},
{
glyphname = tbar;
lastChange = "2019-11-22 01:02:44 +0000";
layers = (
{
layerId = "800095D7-3F7A-4DA4-A19A-FCDA22F72CA5";
paths = (
{
closed = 1;
nodes = (
"316 0 LINE",
"316 86 LINE",
"286 86 LINE",
"286 86 LINE",
"206 86 OFFCURVE",
"181 134 OFFCURVE",
"181 214 CURVE",
"181 726 LINE",
"91 726 LINE",
"91 198 LINE",
"91 49 OFFCURVE",
"168 0 OFFCURVE",
"257 0 CURVE"
);
},
{
closed = 1;
nodes = (
"20 430 LINE",
"316 430 LINE",
"316 516 LINE",
"20 516 LINE"
);
},
{
closed = 1;
nodes = (
"20 258 LINE",
"316 258 LINE",
"316 344 LINE",
"20 344 LINE"
);
}
);
width = 361;
}
);
leftKerningGroup = t;
rightKerningGroup = t;
unicode = 0167;
},
{
glyphname = tcaron;
lastChange = "2019-11-26 02:17:37 +0000";
layers = (
{
components = (
{
name = t;
}
);
layerId = "800095D7-3F7A-4DA4-A19A-FCDA22F72CA5";
paths = (
{
closed = 1;
nodes = (
"332 771 LINE",
"242 771 LINE",
"214 551 LINE",
"294 551 LINE"
);
}
);
width = 361;
}
);
leftKerningGroup = t;
rightKerningGroup = t;
unicode = 0165;
},
{
glyphname = tcedilla;
lastChange = "2019-11-22 01:02:44 +0000";
layers = (
{
components = (
{
name = t;
}
);
layerId = "800095D7-3F7A-4DA4-A19A-FCDA22F72CA5";
paths = (
{
closed = 1;
nodes = (
"314 -66 OFFCURVE",
"240 -32 OFFCURVE",
"172 -38 CURVE",
"141 -70 LINE",
"141 -104 LINE",
"180 -92 OFFCURVE",
"248 -98 OFFCURVE",
"248 -135 CURVE",
"248 -177 OFFCURVE",
"164 -177 OFFCURVE",
"126 -170 CURVE",
"126 -227 LINE",
"192 -238 OFFCURVE",
"314 -237 OFFCURVE",
"314 -135 CURVE"
);
},
{
closed = 1;
nodes = (
"250 11 LINE",
"196 33 LINE",
"141 -70 LINE",
"208 -70 LINE"
);
}
);
width = 361;
}
);
leftKerningGroup = t;
rightKerningGroup = t;
unicode = 0163;
},
{
glyphname = v;
lastChange = "2019-11-06 01:58:11 +0000";
layers = (
{
layerId = "800095D7-3F7A-4DA4-A19A-FCDA22F72CA5";
paths = (
{
closed = 1;
nodes = (
"264 0 LINE",
"110 480 LINE",
"10 480 LINE",
"180 0 LINE"
);
},
{
closed = 1;
nodes = (
"494 480 LINE",
"394 480 LINE",
"240 0 LINE",
"324 0 LINE"
);
},
{
closed = 1;
nodes = (
"194 0 LINE",
"319 0 LINE",
"319 90 LINE",
"194 90 LINE"
);
}
);
width = 504;
}
);
leftKerningGroup = v;
rightKerningGroup = v;
unicode = 0076;
},
{
glyphname = w;
lastChange = "2019-11-06 01:58:27 +0000";
layers = (
{
layerId = "800095D7-3F7A-4DA4-A19A-FCDA22F72CA5";
paths = (
{
closed = 1;
nodes = (
"249 0 LINE",
"115 480 LINE",
"15 480 LINE",
"166 0 LINE"
);
},
{
closed = 1;
nodes = (
"421 480 LINE",
"331 480 LINE",
"237 0 LINE",
"320 0 LINE"
);
},
{
closed = 1;
nodes = (
"186 0 LINE",
"311 0 LINE",
"311 86 LINE",
"186 86 LINE"
);
},
{
closed = 1;
nodes = (
"585 0 LINE",
"491 480 LINE",
"402 480 LINE",
"502 0 LINE"
);
},
{
closed = 1;
nodes = (
"807 480 LINE",
"707 480 LINE",
"573 0 LINE",
"656 0 LINE"
);
},
{
closed = 1;
nodes = (
"526 0 LINE",
"651 0 LINE",
"651 86 LINE",
"526 86 LINE"
);
},
{
closed = 1;
nodes = (
"352 394 LINE",
"477 394 LINE",
"477 480 LINE",
"352 480 LINE"
);
}
);
width = 822;
}
);
leftKerningGroup = w;
rightKerningGroup = w;
unicode = 0077;
},
{
glyphname = x;
lastChange = "2019-11-06 01:58:36 +0000";
layers = (
{
layerId = "800095D7-3F7A-4DA4-A19A-FCDA22F72CA5";
paths = (
{
closed = 1;
nodes = (
"212 209 LINE",
"320 209 LINE",
"320 295 LINE",
"212 295 LINE"
);
},
{
closed = 1;
nodes = (
"250 295 LINE",
"212 295 LINE",
"10 0 LINE",
"117 0 LINE",
"250 209 LINE"
);
},
{
closed = 1;
nodes = (
"23 480 LINE",
"212 209 LINE",
"250 209 LINE",
"250 295 LINE",
"128 480 LINE"
);
},
{
closed = 1;
nodes = (
"431 0 LINE",
"538 0 LINE",
"336 295 LINE",
"298 295 LINE",
"298 209 LINE"
);
},
{
closed = 1;
nodes = (
"298 295 LINE",
"298 209 LINE",
"336 209 LINE",
"525 480 LINE",
"420 480 LINE"
);
}
);
width = 548;
}
);
leftKerningGroup = x;
rightKerningGroup = x;
unicode = 0078;
},
{
glyphname = y;
lastChange = "2019-11-06 01:58:42 +0000";
layers = (
{
layerId = "800095D7-3F7A-4DA4-A19A-FCDA22F72CA5";
paths = (
{
closed = 1;
nodes = (
"269 61 LINE",
"110 480 LINE",
"10 480 LINE",
"209 -16 LINE"
);
},
{
closed = 1;
nodes = (
"292 -206 OFFCURVE",
"308 -139 OFFCURVE",
"354 -8 CURVE",
"534 480 LINE",
"434 480 LINE",
"239 -74 LINE",
"222 -113 OFFCURVE",
"196 -120 OFFCURVE",
"160 -120 CURVE",
"160 -120 LINE",
"126 -120 LINE",
"126 -206 LINE",
"204 -206 LINE"
);
},
{
closed = 1;
nodes = (
"209 -16 LINE",
"322 -16 LINE",
"322 70 LINE",
"209 70 LINE"
);
}
);
width = 544;
}
);
leftKerningGroup = y;
rightKerningGroup = y;
unicode = 0079;
},
{
glyphname = z;
lastChange = "2019-11-06 01:59:49 +0000";
layers = (
{
layerId = "800095D7-3F7A-4DA4-A19A-FCDA22F72CA5";
paths = (
{
closed = 1;
nodes = (
"40 169 LINE",
"40 96 LINE",
"80 96 LINE",
"498 319 LINE",
"498 388 LINE",
"459 388 LINE"
);
},
{
closed = 1;
nodes = (
"55 394 LINE",
"498 394 LINE",
"498 480 LINE",
"55 480 LINE"
);
},
{
closed = 1;
nodes = (
"40 0 LINE",
"498 0 LINE",
"498 90 LINE",
"40 90 LINE"
);
},
{
closed = 1;
nodes = (
"408 356 LINE",
"498 356 LINE",
"498 456 LINE",
"408 456 LINE"
);
},
{
closed = 1;
nodes = (
"40 36 LINE",
"130 36 LINE",
"130 136 LINE",
"40 136 LINE"
);
}
);
width = 538;
}
);
leftKerningGroup = z;
rightKerningGroup = z;
unicode = 007A;
},
{
glyphname = f_f.liga;
lastChange = "2019-11-22 01:40:04 +0000";
layers = (
{
layerId = "800095D7-3F7A-4DA4-A19A-FCDA22F72CA5";
paths = (
{
closed = 1;
nodes = (
"515 710 OFFCURVE",
"438 661 OFFCURVE",
"438 512 CURVE",
"438 0 LINE",
"528 0 LINE",
"528 496 LINE",
"528 576 OFFCURVE",
"553 624 OFFCURVE",
"633 624 CURVE",
"733 624 LINE",
"733 710 LINE",
"604 710 LINE"
);
},
{
closed = 1;
nodes = (
"367 394 LINE",
"673 394 LINE",
"673 480 LINE",
"367 480 LINE"
);
},
{
closed = 1;
nodes = (
"168 710 OFFCURVE",
"91 661 OFFCURVE",
"91 512 CURVE",
"91 0 LINE",
"181 0 LINE",
"181 496 LINE",
"181 576 OFFCURVE",
"206 624 OFFCURVE",
"286 624 CURVE",
"386 624 LINE",
"386 710 LINE",
"257 710 LINE"
);
},
{
closed = 1;
nodes = (
"20 394 LINE",
"386 394 LINE",
"386 480 LINE",
"20 480 LINE"
);
}
);
width = 743;
}
);
leftKerningGroup = f;
rightKerningGroup = f;
},
{
glyphname = f_f_i.liga;
lastChange = "2019-11-22 01:40:02 +0000";
layers = (
{
layerId = "800095D7-3F7A-4DA4-A19A-FCDA22F72CA5";
paths = (
{
closed = 1;
nodes = (
"515 710 OFFCURVE",
"438 661 OFFCURVE",
"438 512 CURVE",
"438 0 LINE",
"528 0 LINE",
"528 496 LINE",
"528 576 OFFCURVE",
"553 624 OFFCURVE",
"633 624 CURVE",
"733 624 LINE",
"733 710 LINE",
"604 710 LINE"
);
},
{
closed = 1;
nodes = (
"367 394 LINE",
"738 394 LINE",
"738 480 LINE",
"367 480 LINE"
);
},
{
closed = 1;
nodes = (
"168 710 OFFCURVE",
"91 661 OFFCURVE",
"91 512 CURVE",
"91 0 LINE",
"181 0 LINE",
"181 496 LINE",
"181 576 OFFCURVE",
"206 624 OFFCURVE",
"286 624 CURVE",
"386 624 LINE",
"386 710 LINE",
"257 710 LINE"
);
},
{
closed = 1;
nodes = (
"20 394 LINE",
"386 394 LINE",
"386 480 LINE",
"20 480 LINE"
);
},
{
closed = 1;
nodes = (
"684 0 LINE",
"774 0 LINE",
"774 480 LINE",
"684 480 LINE"
);
}
);
width = 833;
}
);
leftKerningGroup = f;
rightKerningGroup = i;
},
{
glyphname = f_i.liga;
lastChange = "2019-11-22 01:40:15 +0000";
layers = (
{
layerId = "800095D7-3F7A-4DA4-A19A-FCDA22F72CA5";
paths = (
{
closed = 1;
nodes = (
"168 710 OFFCURVE",
"91 661 OFFCURVE",
"91 512 CURVE",
"91 0 LINE",
"181 0 LINE",
"181 496 LINE",
"181 576 OFFCURVE",
"206 624 OFFCURVE",
"286 624 CURVE",
"386 624 LINE",
"386 710 LINE",
"257 710 LINE"
);
},
{
closed = 1;
nodes = (
"20 394 LINE",
"393 394 LINE",
"393 480 LINE",
"20 480 LINE"
);
},
{
closed = 1;
nodes = (
"336 0 LINE",
"426 0 LINE",
"426 480 LINE",
"336 480 LINE"
);
}
);
width = 485;
}
);
leftKerningGroup = f;
leftMetricsKey = f;
rightKerningGroup = i;
},
{
glyphname = f_l.liga;
lastChange = "2019-11-22 01:40:07 +0000";
layers = (
{
layerId = "800095D7-3F7A-4DA4-A19A-FCDA22F72CA5";
paths = (
{
closed = 1;
nodes = (
"168 710 OFFCURVE",
"91 661 OFFCURVE",
"91 512 CURVE",
"91 0 LINE",
"181 0 LINE",
"181 496 LINE",
"181 576 OFFCURVE",
"206 624 OFFCURVE",
"286 624 CURVE",
"451 624 LINE",
"451 710 LINE",
"257 710 LINE"
);
},
{
closed = 1;
nodes = (
"20 394 LINE",
"326 394 LINE",
"326 480 LINE",
"20 480 LINE"
);
},
{
closed = 1;
nodes = (
"442 0 LINE",
"532 0 LINE",
"532 710 LINE",
"442 710 LINE"
);
}
);
width = 612;
}
);
leftKerningGroup = f;
leftMetricsKey = f;
rightKerningGroup = d;
},
{
glyphname = i_f.liga;
lastChange = "2019-11-22 01:40:12 +0000";
layers = (
{
components = (
{
name = dotaccentcomb;
transform = "{1, 0, 0, 1, 9, 0}";
}
);
layerId = "800095D7-3F7A-4DA4-A19A-FCDA22F72CA5";
paths = (
{
closed = 1;
nodes = (
"395 710 OFFCURVE",
"318 661 OFFCURVE",
"318 512 CURVE",
"318 0 LINE",
"408 0 LINE",
"408 496 LINE",
"408 576 OFFCURVE",
"433 624 OFFCURVE",
"513 624 CURVE",
"613 624 LINE",
"613 710 LINE",
"484 710 LINE"
);
},
{
closed = 1;
nodes = (
"125 394 LINE",
"553 394 LINE",
"553 480 LINE",
"125 480 LINE"
);
},
{
closed = 1;
nodes = (
"73 0 LINE",
"163 0 LINE",
"163 480 LINE",
"73 480 LINE"
);
}
);
width = 623;
}
);
leftKerningGroup = i;
rightKerningGroup = f;
},
{
glyphname = r_a.liga;
lastChange = "2019-11-22 01:40:09 +0000";
layers = (
{
layerId = "800095D7-3F7A-4DA4-A19A-FCDA22F72CA5";
paths = (
{
closed = 1;
nodes = (
"511 410 LINE",
"511 496 LINE",
"333 496 LINE",
"255 496 OFFCURVE",
"170 437 OFFCURVE",
"154 371 CURVE",
"170 241 LINE",
"170 364 OFFCURVE",
"254 410 OFFCURVE",
"304 410 CURVE"
);
},
{
closed = 1;
nodes = (
"496 496 LINE",
"496 410 LINE",
"535 410 LINE",
"633 410 OFFCURVE",
"640 362 OFFCURVE",
"640 282 CURVE",
"640 181 LINE",
"730 181 LINE",
"730 298 LINE",
"730 447 OFFCURVE",
"653 496 OFFCURVE",
"564 496 CURVE"
);
},
{
closed = 1;
nodes = (
"660 218 LINE",
"660 304 LINE",
"477 304 LINE SMOOTH",
"360 304 OFFCURVE",
"286 242 OFFCURVE",
"286 154 CURVE SMOOTH",
"286 143 LINE SMOOTH",
"286 21 OFFCURVE",
"384 -15 OFFCURVE",
"477 -15 CURVE SMOOTH",
"545 -15 OFFCURVE",
"630 3 OFFCURVE",
"657 69 CURVE",
"640 149 LINE",
"640 85 OFFCURVE",
"546 71 OFFCURVE",
"506 71 CURVE SMOOTH",
"412 71 OFFCURVE",
"376 91 OFFCURVE",
"376 147 CURVE SMOOTH",
"376 179 OFFCURVE",
"394 218 OFFCURVE",
"506 218 CURVE SMOOTH"
);
},
{
closed = 1;
nodes = (
"769 85 LINE",
"754 84 OFFCURVE",
"731 90 OFFCURVE",
"730 122 CURVE",
"730 196 LINE",
"640 196 LINE",
"640 99 LINE",
"640 1 OFFCURVE",
"712 -1 OFFCURVE",
"769 -1 CURVE"
);
},
{
closed = 1;
nodes = (
"80 0 LINE",
"170 0 LINE",
"170 480 LINE",
"80 480 LINE"
);
}
);
width = 829;
}
);
leftKerningGroup = i;
rightKerningGroup = a;
},
{
glyphname = r_f.liga;
lastChange = "2019-11-22 01:40:21 +0000";
layers = (
{
layerId = "800095D7-3F7A-4DA4-A19A-FCDA22F72CA5";
paths = (
{
closed = 1;
nodes = (
"518 710 OFFCURVE",
"441 661 OFFCURVE",
"441 512 CURVE",
"441 0 LINE",
"531 0 LINE",
"531 496 LINE",
"531 576 OFFCURVE",
"556 624 OFFCURVE",
"636 624 CURVE",
"736 624 LINE",
"736 710 LINE",
"607 710 LINE"
);
},
{
closed = 1;
nodes = (
"370 394 LINE",
"676 394 LINE",
"676 480 LINE",
"370 480 LINE"
);
},
{
closed = 1;
nodes = (
"493 394 LINE",
"493 480 LINE",
"333 480 LINE",
"255 480 OFFCURVE",
"170 421 OFFCURVE",
"154 355 CURVE",
"170 225 LINE",
"170 348 OFFCURVE",
"254 394 OFFCURVE",
"304 394 CURVE"
);
},
{
closed = 1;
nodes = (
"80 0 LINE",
"170 0 LINE",
"170 480 LINE",
"80 480 LINE"
);
}
);
width = 746;
}
);
leftKerningGroup = i;
rightKerningGroup = f;
},
{
glyphname = ordfeminine;
lastChange = "2019-11-22 20:16:19 +0000";
layers = (
{
components = (
{
name = a;
transform = "{0.57143, 0, 0, 0.57143, 21, 443}";
}
);
layerId = "800095D7-3F7A-4DA4-A19A-FCDA22F72CA5";
paths = (
{
closed = 1;
nodes = (
"50 332 LINE",
"326 332 LINE",
"326 382 LINE",
"50 382 LINE"
);
}
);
width = 366;
}
);
leftKerningGroup = a;
rightKerningGroup = a;
unicode = 00AA;
},
{
glyphname = zero;
lastChange = "2019-11-06 00:23:51 +0000";
layers = (
{
layerId = "800095D7-3F7A-4DA4-A19A-FCDA22F72CA5";
paths = (
{
closed = 1;
nodes = (
"184 726 OFFCURVE",
"34 619 OFFCURVE",
"34 355 CURVE SMOOTH",
"34 93 OFFCURVE",
"184 -16 OFFCURVE",
"334 -16 CURVE",
"492 -16 OFFCURVE",
"634 76 OFFCURVE",
"634 355 CURVE SMOOTH",
"634 616 OFFCURVE",
"489 726 OFFCURVE",
"334 726 CURVE"
);
},
{
closed = 1;
nodes = (
"544 192 OFFCURVE",
"484 76 OFFCURVE",
"334 76 CURVE SMOOTH",
"184 76 OFFCURVE",
"124 192 OFFCURVE",
"124 355 CURVE SMOOTH",
"124 518 OFFCURVE",
"184 640 OFFCURVE",
"334 640 CURVE SMOOTH",
"484 640 OFFCURVE",
"544 518 OFFCURVE",
"544 355 CURVE SMOOTH"
);
},
{
closed = 1;
nodes = (
"532 641 LINE",
"437 641 LINE",
"133 70 LINE",
"228 70 LINE"
);
}
);
width = 668;
}
);
unicode = 0030;
},
{
glyphname = one;
lastChange = "2019-11-06 00:24:16 +0000";
layers = (
{
layerId = "800095D7-3F7A-4DA4-A19A-FCDA22F72CA5";
paths = (
{
closed = 1;
nodes = (
"231 0 LINE",
"321 0 LINE",
"321 710 LINE",
"231 710 LINE"
);
},
{
closed = 1;
nodes = (
"321 513 LINE",
"321 710 LINE",
"231 710 LINE",
"231 686 LINE",
"231 626 OFFCURVE",
"190 599 OFFCURVE",
"135 599 CURVE",
"90 599 LINE",
"90 513 LINE"
);
}
);
width = 411;
}
);
unicode = 0031;
},
{
glyphname = two;
lastChange = "2019-11-06 00:24:24 +0000";
layers = (
{
layerId = "800095D7-3F7A-4DA4-A19A-FCDA22F72CA5";
paths = (
{
closed = 1;
nodes = (
"157 280 OFFCURVE",
"537 244 OFFCURVE",
"537 506 CURVE SMOOTH",
"537 641 OFFCURVE",
"442 726 OFFCURVE",
"305 726 CURVE SMOOTH",
"176 726 OFFCURVE",
"62 647 OFFCURVE",
"55 516 CURVE",
"151 516 LINE",
"153 582 OFFCURVE",
"228 640 OFFCURVE",
"305 640 CURVE SMOOTH",
"402 640 OFFCURVE",
"447 580 OFFCURVE",
"447 506 CURVE SMOOTH",
"447 327 OFFCURVE",
"53 351 OFFCURVE",
"53 74 CURVE SMOOTH",
"53 0 LINE",
"53 0 OFFCURVE",
"544 0 OFFCURVE",
"544 0 CURVE",
"544 89 LINE",
"157 89 LINE"
);
}
);
width = 597;
}
);
unicode = 0032;
},
{
glyphname = three;
lastChange = "2019-11-06 00:24:33 +0000";
layers = (
{
layerId = "800095D7-3F7A-4DA4-A19A-FCDA22F72CA5";
paths = (
{
closed = 1;
nodes = (
"390 350 OFFCURVE",
"522 397 OFFCURVE",
"522 516 CURVE SMOOTH",
"522 646 OFFCURVE",
"410 726 OFFCURVE",
"273 726 CURVE SMOOTH",
"144 726 OFFCURVE",
"47 647 OFFCURVE",
"30 516 CURVE",
"126 516 LINE",
"128 582 OFFCURVE",
"196 640 OFFCURVE",
"283 640 CURVE SMOOTH",
"380 640 OFFCURVE",
"432 590 OFFCURVE",
"432 506 CURVE SMOOTH",
"432 390 OFFCURVE",
"311 395 OFFCURVE",
"181 395 CURVE",
"181 314 LINE",
"311 314 OFFCURVE",
"442 319 OFFCURVE",
"442 203 CURVE SMOOTH",
"442 119 OFFCURVE",
"380 69 OFFCURVE",
"283 69 CURVE SMOOTH",
"196 69 OFFCURVE",
"128 127 OFFCURVE",
"126 193 CURVE",
"30 193 LINE",
"47 62 OFFCURVE",
"144 -17 OFFCURVE",
"273 -17 CURVE SMOOTH",
"420 -17 OFFCURVE",
"532 63 OFFCURVE",
"532 193 CURVE SMOOTH",
"532 322 OFFCURVE",
"391 359 OFFCURVE",
"351 367 CURVE",
"351 343 LINE"
);
}
);
width = 586;
}
);
unicode = 0033;
},
{
glyphname = four;
lastChange = "2019-11-06 00:24:41 +0000";
layers = (
{
layerId = "800095D7-3F7A-4DA4-A19A-FCDA22F72CA5";
paths = (
{
closed = 1;
nodes = (
"383 710 LINE",
"283 710 LINE",
"37 298 LINE",
"116 268 LINE"
);
},
{
closed = 1;
nodes = (
"400 0 LINE",
"490 0 LINE",
"490 710 LINE",
"400 710 LINE"
);
},
{
closed = 1;
nodes = (
"37 172 LINE",
"587 172 LINE",
"587 258 LINE",
"37 258 LINE"
);
},
{
closed = 1;
nodes = (
"301 624 LINE",
"470 624 LINE",
"470 710 LINE",
"301 710 LINE"
);
},
{
closed = 1;
nodes = (
"37 223 LINE",
"127 223 LINE",
"127 298 LINE",
"37 298 LINE"
);
}
);
width = 596;
}
);
unicode = 0034;
},
{
glyphname = five;
lastChange = "2019-11-06 00:24:53 +0000";
layers = (
{
layerId = "800095D7-3F7A-4DA4-A19A-FCDA22F72CA5";
paths = (
{
closed = 1;
nodes = (
"141 624 LINE",
"493 624 LINE",
"493 710 LINE",
"141 710 LINE"
);
},
{
closed = 1;
nodes = (
"235 710 LINE",
"135 710 LINE",
"55 291 LINE",
"139 291 LINE"
);
},
{
closed = 1;
nodes = (
"40 170 LINE",
"82 49 OFFCURVE",
"178 -16 OFFCURVE",
"300 -16 CURVE SMOOTH",
"433 -16 OFFCURVE",
"570 47 OFFCURVE",
"570 219 CURVE SMOOTH",
"570 379 OFFCURVE",
"445 449 OFFCURVE",
"323 449 CURVE SMOOTH",
"209 449 OFFCURVE",
"132 382 OFFCURVE",
"106 327 CURVE",
"139 291 LINE",
"167 335 OFFCURVE",
"234 363 OFFCURVE",
"313 363 CURVE SMOOTH",
"392 363 OFFCURVE",
"480 320 OFFCURVE",
"480 219 CURVE SMOOTH",
"480 130 OFFCURVE",
"402 76 OFFCURVE",
"300 76 CURVE SMOOTH",
"216 76 OFFCURVE",
"168 120 OFFCURVE",
"144 170 CURVE"
);
}
);
width = 610;
}
);
unicode = 0035;
},
{
glyphname = six;
lastChange = "2019-11-06 00:25:03 +0000";
layers = (
{
layerId = "800095D7-3F7A-4DA4-A19A-FCDA22F72CA5";
paths = (
{
closed = 1;
nodes = (
"214 76 OFFCURVE",
"154 152 OFFCURVE",
"154 219 CURVE SMOOTH",
"154 287 OFFCURVE",
"221 363 OFFCURVE",
"338 363 CURVE SMOOTH",
"417 363 OFFCURVE",
"505 320 OFFCURVE",
"505 219 CURVE SMOOTH",
"505 130 OFFCURVE",
"427 76 OFFCURVE",
"325 76 CURVE SMOOTH"
);
},
{
closed = 1;
nodes = (
"38 93 OFFCURVE",
"154 -16 OFFCURVE",
"325 -16 CURVE SMOOTH",
"458 -16 OFFCURVE",
"595 47 OFFCURVE",
"595 219 CURVE SMOOTH",
"595 379 OFFCURVE",
"470 449 OFFCURVE",
"348 449 CURVE SMOOTH",
"233 449 OFFCURVE",
"156 378 OFFCURVE",
"131 323 CURVE",
"129 334 OFFCURVE",
"128 344 OFFCURVE",
"128 355 CURVE SMOOTH",
"128 518 OFFCURVE",
"192 640 OFFCURVE",
"329 640 CURVE SMOOTH",
"416 640 OFFCURVE",
"484 582 OFFCURVE",
"486 516 CURVE",
"582 516 LINE",
"575 647 OFFCURVE",
"448 726 OFFCURVE",
"329 726 CURVE SMOOTH",
"182 726 OFFCURVE",
"38 619 OFFCURVE",
"38 355 CURVE SMOOTH"
);
}
);
width = 623;
}
);
unicode = 0036;
},
{
glyphname = seven;
lastChange = "2019-11-06 00:25:18 +0000";
layers = (
{
layerId = "800095D7-3F7A-4DA4-A19A-FCDA22F72CA5";
paths = (
{
closed = 1;
nodes = (
"145 1 LINE",
"245 1 LINE",
"506 574 LINE",
"426 618 LINE"
);
},
{
closed = 1;
nodes = (
"33 624 LINE",
"506 624 LINE",
"506 710 LINE",
"33 710 LINE"
);
},
{
closed = 1;
nodes = (
"416 574 LINE",
"506 574 LINE",
"506 686 LINE",
"416 686 LINE"
);
}
);
width = 540;
}
);
unicode = 0037;
},
{
glyphname = eight;
lastChange = "2019-11-06 00:25:26 +0000";
layers = (
{
layerId = "800095D7-3F7A-4DA4-A19A-FCDA22F72CA5";
paths = (
{
closed = 1;
nodes = (
"180 383 OFFCURVE",
"45 331 OFFCURVE",
"45 199 CURVE SMOOTH",
"45 47 OFFCURVE",
"182 -16 OFFCURVE",
"308 -16 CURVE SMOOTH",
"434 -16 OFFCURVE",
"571 47 OFFCURVE",
"571 199 CURVE SMOOTH",
"571 331 OFFCURVE",
"436 383 OFFCURVE",
"308 383 CURVE SMOOTH"
);
},
{
closed = 1;
nodes = (
"213 76 OFFCURVE",
"135 130 OFFCURVE",
"135 199 CURVE SMOOTH",
"135 280 OFFCURVE",
"223 323 OFFCURVE",
"308 323 CURVE SMOOTH",
"393 323 OFFCURVE",
"481 280 OFFCURVE",
"481 199 CURVE SMOOTH",
"481 130 OFFCURVE",
"403 76 OFFCURVE",
"308 76 CURVE SMOOTH"
);
},
{
closed = 1;
nodes = (
"436 339 OFFCURVE",
"551 376 OFFCURVE",
"551 508 CURVE SMOOTH",
"551 660 OFFCURVE",
"424 710 OFFCURVE",
"308 710 CURVE SMOOTH",
"192 710 OFFCURVE",
"65 660 OFFCURVE",
"65 508 CURVE SMOOTH",
"65 376 OFFCURVE",
"180 339 OFFCURVE",
"308 339 CURVE SMOOTH"
);
},
{
closed = 1;
nodes = (
"393 618 OFFCURVE",
"461 577 OFFCURVE",
"461 508 CURVE SMOOTH",
"461 427 OFFCURVE",
"393 399 OFFCURVE",
"308 399 CURVE SMOOTH",
"223 399 OFFCURVE",
"155 427 OFFCURVE",
"155 508 CURVE SMOOTH",
"155 577 OFFCURVE",
"223 618 OFFCURVE",
"308 618 CURVE SMOOTH"
);
}
);
width = 616;
}
);
unicode = 0038;
},
{
glyphname = nine;
lastChange = "2019-11-06 00:25:35 +0000";
layers = (
{
layerId = "800095D7-3F7A-4DA4-A19A-FCDA22F72CA5";
paths = (
{
closed = 1;
nodes = (
"408 640 OFFCURVE",
"468 558 OFFCURVE",
"468 491 CURVE SMOOTH",
"468 423 OFFCURVE",
"401 347 OFFCURVE",
"284 347 CURVE SMOOTH",
"205 347 OFFCURVE",
"117 390 OFFCURVE",
"117 491 CURVE SMOOTH",
"117 580 OFFCURVE",
"195 640 OFFCURVE",
"297 640 CURVE SMOOTH"
);
},
{
closed = 1;
nodes = (
"584 603 OFFCURVE",
"468 726 OFFCURVE",
"297 726 CURVE SMOOTH",
"164 726 OFFCURVE",
"27 649 OFFCURVE",
"27 491 CURVE SMOOTH",
"27 331 OFFCURVE",
"152 261 OFFCURVE",
"274 261 CURVE SMOOTH",
"389 261 OFFCURVE",
"466 332 OFFCURVE",
"491 387 CURVE",
"493 376 OFFCURVE",
"494 366 OFFCURVE",
"494 355 CURVE SMOOTH",
"494 192 OFFCURVE",
"430 76 OFFCURVE",
"293 76 CURVE SMOOTH",
"206 76 OFFCURVE",
"138 128 OFFCURVE",
"136 194 CURVE",
"40 194 LINE",
"47 63 OFFCURVE",
"174 -16 OFFCURVE",
"293 -16 CURVE SMOOTH",
"440 -16 OFFCURVE",
"584 75 OFFCURVE",
"584 355 CURVE SMOOTH"
);
}
);
width = 626;
}
);
unicode = 0039;
},
{
glyphname = fraction;
lastChange = "2019-11-22 21:41:34 +0000";
layers = (
{
layerId = "800095D7-3F7A-4DA4-A19A-FCDA22F72CA5";
paths = (
{
closed = 1;
nodes = (
"70 0 LINE",
"131 0 LINE",
"593 710 LINE",
"532 710 LINE"
);
}
);
width = 633;
}
);
unicode = 2044;
},
{
glyphname = period;
lastChange = "2019-11-06 02:06:05 +0000";
layers = (
{
layerId = "800095D7-3F7A-4DA4-A19A-FCDA22F72CA5";
paths = (
{
closed = 1;
nodes = (
"171 -5 OFFCURVE",
"200 23 OFFCURVE",
"200 59 CURVE SMOOTH",
"200 95 OFFCURVE",
"171 125 OFFCURVE",
"135 125 CURVE SMOOTH",
"99 125 OFFCURVE",
"70 95 OFFCURVE",
"70 59 CURVE SMOOTH",
"70 23 OFFCURVE",
"99 -5 OFFCURVE",
"135 -5 CURVE SMOOTH"
);
}
);
width = 270;
}
);
leftKerningGroup = comma;
rightKerningGroup = comma;
unicode = 002E;
},
{
glyphname = comma;
lastChange = "2019-11-06 02:06:03 +0000";
layers = (
{
layerId = "800095D7-3F7A-4DA4-A19A-FCDA22F72CA5";
paths = (
{
closed = 1;
nodes = (
"70 -121 LINE",
"138 -121 LINE",
"184 -40 LINE",
"127 -10 LINE"
);
},
{
closed = 1;
nodes = (
"184 114 LINE",
"70 114 LINE",
"70 0 LINE",
"184 0 LINE"
);
},
{
closed = 1;
nodes = (
"184 35 LINE",
"116 35 LINE",
"116 -40 LINE",
"184 -40 LINE"
);
}
);
width = 254;
}
);
leftKerningGroup = comma;
rightKerningGroup = comma;
unicode = 002C;
},
{
glyphname = colon;
lastChange = "2019-11-06 02:06:13 +0000";
layers = (
{
layerId = "800095D7-3F7A-4DA4-A19A-FCDA22F72CA5";
paths = (
{
closed = 1;
nodes = (
"301 -5 OFFCURVE",
"330 23 OFFCURVE",
"330 59 CURVE SMOOTH",
"330 95 OFFCURVE",
"301 125 OFFCURVE",
"265 125 CURVE SMOOTH",
"229 125 OFFCURVE",
"200 95 OFFCURVE",
"200 59 CURVE SMOOTH",
"200 23 OFFCURVE",
"229 -5 OFFCURVE",
"265 -5 CURVE SMOOTH"
);
},
{
closed = 1;
nodes = (
"301 350 OFFCURVE",
"330 378 OFFCURVE",
"330 414 CURVE SMOOTH",
"330 450 OFFCURVE",
"301 480 OFFCURVE",
"265 480 CURVE SMOOTH",
"229 480 OFFCURVE",
"200 450 OFFCURVE",
"200 414 CURVE SMOOTH",
"200 378 OFFCURVE",
"229 350 OFFCURVE",
"265 350 CURVE SMOOTH"
);
}
);
width = 530;
}
);
leftKerningGroup = colon;
rightKerningGroup = colon;
unicode = 003A;
},
{
glyphname = semicolon;
lastChange = "2019-11-06 02:06:25 +0000";
layers = (
{
layerId = "800095D7-3F7A-4DA4-A19A-FCDA22F72CA5";
paths = (
{
closed = 1;
nodes = (
"301 350 OFFCURVE",
"330 378 OFFCURVE",
"330 414 CURVE SMOOTH",
"330 450 OFFCURVE",
"301 480 OFFCURVE",
"265 480 CURVE SMOOTH",
"229 480 OFFCURVE",
"200 450 OFFCURVE",
"200 414 CURVE SMOOTH",
"200 378 OFFCURVE",
"229 350 OFFCURVE",
"265 350 CURVE SMOOTH"
);
},
{
closed = 1;
nodes = (
"207 -121 LINE",
"275 -121 LINE",
"321 -40 LINE",
"264 -10 LINE"
);
},
{
closed = 1;
nodes = (
"321 114 LINE",
"207 114 LINE",
"207 0 LINE",
"321 0 LINE"
);
},
{
closed = 1;
nodes = (
"321 35 LINE",
"253 35 LINE",
"253 -40 LINE",
"321 -40 LINE"
);
}
);
width = 530;
}
);
leftKerningGroup = colon;
rightKerningGroup = colon;
unicode = 003B;
},
{
glyphname = exclam;
lastChange = "2019-11-06 02:03:35 +0000";
layers = (
{
layerId = "800095D7-3F7A-4DA4-A19A-FCDA22F72CA5";
paths = (
{
closed = 1;
nodes = (
"191 -5 OFFCURVE",
"220 23 OFFCURVE",
"220 59 CURVE SMOOTH",
"220 95 OFFCURVE",
"191 125 OFFCURVE",
"155 125 CURVE SMOOTH",
"119 125 OFFCURVE",
"90 95 OFFCURVE",
"90 59 CURVE SMOOTH",
"90 23 OFFCURVE",
"119 -5 OFFCURVE",
"155 -5 CURVE SMOOTH"
);
},
{
closed = 1;
nodes = (
"110 255 LINE",
"200 255 LINE",
"210 710 LINE",
"100 710 LINE"
);
}
);
width = 310;
}
);
leftKerningGroup = exclam;
unicode = 0021;
},
{
glyphname = exclamdown;
lastChange = "2019-11-06 02:03:52 +0000";
layers = (
{
layerId = "800095D7-3F7A-4DA4-A19A-FCDA22F72CA5";
paths = (
{
closed = 1;
nodes = (
"99 544 OFFCURVE",
"70 516 OFFCURVE",
"70 480 CURVE SMOOTH",
"70 444 OFFCURVE",
"99 414 OFFCURVE",
"135 414 CURVE SMOOTH",
"171 414 OFFCURVE",
"200 444 OFFCURVE",
"200 480 CURVE SMOOTH",
"200 516 OFFCURVE",
"171 544 OFFCURVE",
"135 544 CURVE SMOOTH"
);
},
{
closed = 1;
nodes = (
"180 284 LINE",
"90 284 LINE",
"80 -172 LINE",
"190 -172 LINE"
);
}
);
width = 270;
}
);
leftKerningGroup = exclamdown.case;
rightKerningGroup = exclamdown.case;
unicode = 00A1;
},
{
glyphname = question;
lastChange = "2019-11-06 02:04:15 +0000";
layers = (
{
layerId = "800095D7-3F7A-4DA4-A19A-FCDA22F72CA5";
paths = (
{
closed = 1;
nodes = (
"289 378 OFFCURVE",
"467 322 OFFCURVE",
"467 521 CURVE SMOOTH",
"467 643 OFFCURVE",
"382 726 OFFCURVE",
"254 726 CURVE SMOOTH",
"125 726 OFFCURVE",
"42 647 OFFCURVE",
"35 516 CURVE",
"125 516 LINE",
"127 582 OFFCURVE",
"177 640 OFFCURVE",
"254 640 CURVE SMOOTH",
"336 640 OFFCURVE",
"377 582 OFFCURVE",
"377 525 CURVE SMOOTH",
"377 382 OFFCURVE",
"199 438 OFFCURVE",
"199 227 CURVE",
"289 227 LINE"
);
},
{
closed = 1;
nodes = (
"280 -5 OFFCURVE",
"309 23 OFFCURVE",
"309 59 CURVE SMOOTH",
"309 95 OFFCURVE",
"280 125 OFFCURVE",
"244 125 CURVE SMOOTH",
"208 125 OFFCURVE",
"179 95 OFFCURVE",
"179 59 CURVE SMOOTH",
"179 23 OFFCURVE",
"208 -5 OFFCURVE",
"244 -5 CURVE SMOOTH"
);
}
);
width = 502;
}
);
leftKerningGroup = question;
rightKerningGroup = question;
unicode = 003F;
},
{
glyphname = questiondown;
lastChange = "2019-11-06 02:04:45 +0000";
layers = (
{
layerId = "800095D7-3F7A-4DA4-A19A-FCDA22F72CA5";
paths = (
{
closed = 1;
nodes = (
"198 161 OFFCURVE",
"20 217 OFFCURVE",
"20 18 CURVE SMOOTH",
"20 -104 OFFCURVE",
"105 -187 OFFCURVE",
"233 -187 CURVE SMOOTH",
"362 -187 OFFCURVE",
"445 -108 OFFCURVE",
"452 23 CURVE",
"362 23 LINE",
"360 -43 OFFCURVE",
"310 -101 OFFCURVE",
"233 -101 CURVE SMOOTH",
"151 -101 OFFCURVE",
"110 -43 OFFCURVE",
"110 14 CURVE SMOOTH",
"110 157 OFFCURVE",
"288 101 OFFCURVE",
"288 312 CURVE",
"198 312 LINE"
);
},
{
closed = 1;
nodes = (
"207 544 OFFCURVE",
"178 516 OFFCURVE",
"178 480 CURVE SMOOTH",
"178 444 OFFCURVE",
"207 414 OFFCURVE",
"243 414 CURVE SMOOTH",
"279 414 OFFCURVE",
"308 444 OFFCURVE",
"308 480 CURVE SMOOTH",
"308 516 OFFCURVE",
"279 544 OFFCURVE",
"243 544 CURVE SMOOTH"
);
}
);
width = 502;
}
);
leftKerningGroup = questiondown;
rightKerningGroup = questiondown;
unicode = 00BF;
},
{
glyphname = periodcentered;
lastChange = "2019-11-06 02:06:49 +0000";
layers = (
{
layerId = "800095D7-3F7A-4DA4-A19A-FCDA22F72CA5";
paths = (
{
closed = 1;
nodes = (
"171 188 OFFCURVE",
"200 216 OFFCURVE",
"200 252 CURVE SMOOTH",
"200 288 OFFCURVE",
"171 318 OFFCURVE",
"135 318 CURVE SMOOTH",
"99 318 OFFCURVE",
"70 288 OFFCURVE",
"70 252 CURVE SMOOTH",
"70 216 OFFCURVE",
"99 188 OFFCURVE",
"135 188 CURVE SMOOTH"
);
}
);
width = 270;
}
);
leftKerningGroup = periodcentered;
rightKerningGroup = periodcentered;
unicode = 00B7;
},
{
glyphname = bullet;
lastChange = "2019-11-06 02:06:58 +0000";
layers = (
{
layerId = "800095D7-3F7A-4DA4-A19A-FCDA22F72CA5";
paths = (
{
closed = 1;
nodes = (
"306 130 OFFCURVE",
"375 198 OFFCURVE",
"375 283 CURVE SMOOTH",
"375 367 OFFCURVE",
"306 435 OFFCURVE",
"223 435 CURVE SMOOTH",
"139 435 OFFCURVE",
"70 367 OFFCURVE",
"70 283 CURVE SMOOTH",
"70 198 OFFCURVE",
"139 130 OFFCURVE",
"223 130 CURVE SMOOTH"
);
}
);
width = 445;
}
);
leftKerningGroup = bullet;
rightKerningGroup = bullet;
unicode = 2022;
},
{
glyphname = asterisk;
lastChange = "2019-11-06 02:07:08 +0000";
layers = (
{
layerId = "800095D7-3F7A-4DA4-A19A-FCDA22F72CA5";
paths = (
{
closed = 1;
nodes = (
"241 639 OFFCURVE",
"262 657 OFFCURVE",
"262 682 CURVE SMOOTH",
"262 706 OFFCURVE",
"241 726 OFFCURVE",
"218 726 CURVE SMOOTH",
"194 726 OFFCURVE",
"174 706 OFFCURVE",
"174 682 CURVE SMOOTH",
"174 657 OFFCURVE",
"194 639 OFFCURVE",
"218 639 CURVE SMOOTH"
);
},
{
closed = 1;
nodes = (
"174 661 OFFCURVE",
"199 570 OFFCURVE",
"204 536 CURVE",
"231 536 LINE",
"237 570 OFFCURVE",
"262 661 OFFCURVE",
"262 682 CURVE",
"174 682 LINE"
);
},
{
closed = 1;
nodes = (
"259 438 OFFCURVE",
"254 412 OFFCURVE",
"268 392 CURVE SMOOTH",
"282 373 OFFCURVE",
"310 368 OFFCURVE",
"329 382 CURVE SMOOTH",
"348 396 OFFCURVE",
"353 425 OFFCURVE",
"339 444 CURVE SMOOTH",
"325 464 OFFCURVE",
"298 466 OFFCURVE",
"279 453 CURVE SMOOTH"
);
},
{
closed = 1;
nodes = (
"327 461 OFFCURVE",
"253 520 OFFCURVE",
"229 544 CURVE",
"207 528 LINE",
"222 498 OFFCURVE",
"256 409 OFFCURVE",
"268 392 CURVE",
"339 444 LINE"
);
},
{
closed = 1;
nodes = (
"324 544 OFFCURVE",
"347 529 OFFCURVE",
"371 537 CURVE SMOOTH",
"393 544 OFFCURVE",
"407 569 OFFCURVE",
"400 591 CURVE SMOOTH",
"392 614 OFFCURVE",
"367 627 OFFCURVE",
"345 620 CURVE SMOOTH",
"321 614 OFFCURVE",
"310 589 OFFCURVE",
"317 566 CURVE SMOOTH"
);
},
{
closed = 1;
nodes = (
"325 615 OFFCURVE",
"245 564 OFFCURVE",
"213 548 CURVE",
"222 524 LINE",
"256 528 OFFCURVE",
"351 530 OFFCURVE",
"371 537 CURVE",
"345 620 LINE"
);
},
{
closed = 1;
nodes = (
"324 544 OFFCURVE",
"347 529 OFFCURVE",
"371 537 CURVE SMOOTH",
"393 544 OFFCURVE",
"407 569 OFFCURVE",
"400 591 CURVE SMOOTH",
"392 614 OFFCURVE",
"367 627 OFFCURVE",
"345 620 CURVE SMOOTH",
"321 614 OFFCURVE",
"310 589 OFFCURVE",
"317 566 CURVE SMOOTH"
);
},
{
closed = 1;
nodes = (
"325 615 OFFCURVE",
"245 564 OFFCURVE",
"213 548 CURVE",
"222 524 LINE",
"256 528 OFFCURVE",
"351 530 OFFCURVE",
"371 537 CURVE",
"345 620 LINE"
);
},
{
closed = 1;
nodes = (
"138 466 OFFCURVE",
"111 464 OFFCURVE",
"96 444 CURVE SMOOTH",
"83 425 OFFCURVE",
"87 396 OFFCURVE",
"106 382 CURVE SMOOTH",
"126 368 OFFCURVE",
"154 373 OFFCURVE",
"167 392 CURVE SMOOTH",
"182 412 OFFCURVE",
"176 438 OFFCURVE",
"157 453 CURVE SMOOTH"
);
},
{
closed = 1;
nodes = (
"180 409 OFFCURVE",
"213 498 OFFCURVE",
"229 528 CURVE",
"207 544 LINE",
"183 520 OFFCURVE",
"109 461 OFFCURVE",
"96 444 CURVE",
"167 392 LINE"
);
},
{
closed = 1;
nodes = (
"127 590 OFFCURVE",
"115 615 OFFCURVE",
"92 623 CURVE SMOOTH",
"69 630 OFFCURVE",
"45 617 OFFCURVE",
"37 594 CURVE SMOOTH",
"30 572 OFFCURVE",
"42 547 OFFCURVE",
"65 539 CURVE SMOOTH",
"88 531 OFFCURVE",
"112 545 OFFCURVE",
"120 567 CURVE SMOOTH"
);
},
{
closed = 1;
nodes = (
"85 533 OFFCURVE",
"180 528 OFFCURVE",
"213 524 CURVE",
"222 548 LINE",
"192 564 OFFCURVE",
"112 616 OFFCURVE",
"92 623 CURVE",
"65 539 LINE"
);
}
);
width = 437;
}
);
leftKerningGroup = asterisk;
rightKerningGroup = asterisk;
unicode = 002A;
},
{
glyphname = numbersign;
lastChange = "2019-11-06 02:07:15 +0000";
layers = (
{
layerId = "800095D7-3F7A-4DA4-A19A-FCDA22F72CA5";
paths = (
{
closed = 1;
nodes = (
"119 0 LINE",
"209 0 LINE",
"381 710 LINE",
"291 710 LINE"
);
},
{
closed = 1;
nodes = (
"362 0 LINE",
"452 0 LINE",
"624 710 LINE",
"534 710 LINE"
);
},
{
closed = 1;
nodes = (
"104 430 LINE",
"675 430 LINE",
"693 504 LINE",
"122 504 LINE"
);
},
{
closed = 1;
nodes = (
"50 206 LINE",
"621 206 LINE",
"639 280 LINE",
"68 280 LINE"
);
}
);
width = 743;
}
);
leftKerningGroup = numbersign;
rightKerningGroup = numbersign;
unicode = 0023;
},
{
glyphname = slash;
lastChange = "2019-11-06 02:07:28 +0000";
layers = (
{
layerId = "800095D7-3F7A-4DA4-A19A-FCDA22F72CA5";
paths = (
{
closed = 1;
nodes = (
"0 0 LINE",
"90 0 LINE",
"372 710 LINE",
"282 710 LINE"
);
}
);
width = 372;
}
);
leftKerningGroup = slash;
rightKerningGroup = slash;
unicode = 002F;
},
{
glyphname = backslash;
lastChange = "2019-11-06 02:07:32 +0000";
layers = (
{
layerId = "800095D7-3F7A-4DA4-A19A-FCDA22F72CA5";
paths = (
{
closed = 1;
nodes = (
"0 710 LINE",
"282 0 LINE",
"372 0 LINE",
"90 710 LINE"
);
}
);
width = 372;
}
);
leftKerningGroup = backslash;
rightKerningGroup = backslash;
unicode = 005C;
},
{
glyphname = parenleft;
lastChange = "2019-11-06 02:07:40 +0000";
layers = (
{
layerId = "800095D7-3F7A-4DA4-A19A-FCDA22F72CA5";
paths = (
{
closed = 1;
nodes = (
"55 -2 OFFCURVE",
"245 -163 OFFCURVE",
"245 -163 CURVE",
"295 -123 LINE",
"295 -123 OFFCURVE",
"145 27 OFFCURVE",
"145 302 CURVE",
"145 555 OFFCURVE",
"295 726 OFFCURVE",
"295 726 CURVE",
"245 766 LINE",
"245 766 OFFCURVE",
"55 602 OFFCURVE",
"55 302 CURVE"
);
}
);
width = 295;
}
);
leftKerningGroup = parenleft;
rightKerningGroup = parenleft;
unicode = 0028;
},
{
glyphname = parenright;
lastChange = "2019-11-06 02:07:46 +0000";
layers = (
{
layerId = "800095D7-3F7A-4DA4-A19A-FCDA22F72CA5";
paths = (
{
closed = 1;
nodes = (
"240 602 OFFCURVE",
"50 766 OFFCURVE",
"50 766 CURVE",
"0 726 LINE",
"0 726 OFFCURVE",
"150 555 OFFCURVE",
"150 302 CURVE",
"150 27 OFFCURVE",
"0 -123 OFFCURVE",
"0 -123 CURVE",
"50 -163 LINE",
"50 -163 OFFCURVE",
"240 -2 OFFCURVE",
"240 302 CURVE"
);
}
);
width = 295;
}
);
leftKerningGroup = parenright;
unicode = 0029;
},
{
glyphname = braceleft;
lastChange = "2019-11-06 02:49:45 +0000";
layers = (
{
layerId = "800095D7-3F7A-4DA4-A19A-FCDA22F72CA5";
paths = (
{
closed = 1;
nodes = (
"212 726 OFFCURVE",
"135 697 OFFCURVE",
"135 548 CURVE",
"135 446 LINE",
"225 430 LINE",
"225 532 LINE",
"225 632 OFFCURVE",
"250 640 OFFCURVE",
"330 640 CURVE",
"347 640 LINE",
"347 726 LINE",
"301 726 LINE"
);
},
{
closed = 1;
nodes = (
"347 -123 LINE",
"347 -37 LINE",
"330 -37 LINE",
"250 -37 OFFCURVE",
"225 -29 OFFCURVE",
"225 71 CURVE",
"225 174 LINE",
"135 158 LINE",
"135 55 LINE",
"135 -94 OFFCURVE",
"212 -123 OFFCURVE",
"301 -123 CURVE"
);
},
{
closed = 1;
nodes = (
"128 289 OFFCURVE",
"225 311 OFFCURVE",
"225 430 CURVE",
"135 446 LINE",
"135 393 OFFCURVE",
"130 345 OFFCURVE",
"80 345 CURVE",
"50 345 LINE",
"50 259 LINE",
"109 289 LINE"
);
},
{
closed = 1;
nodes = (
"50 325 LINE",
"50 259 LINE",
"80 259 LINE",
"130 259 OFFCURVE",
"135 211 OFFCURVE",
"135 158 CURVE",
"225 174 LINE",
"225 293 OFFCURVE",
"128 325 OFFCURVE",
"109 325 CURVE"
);
}
);
width = 352;
}
);
leftKerningGroup = braceleft;
rightKerningGroup = bracketleft;
unicode = 007B;
},
{
glyphname = braceright;
lastChange = "2019-11-06 02:08:18 +0000";
layers = (
{
layerId = "800095D7-3F7A-4DA4-A19A-FCDA22F72CA5";
paths = (
{
closed = 1;
nodes = (
"5 726 LINE",
"5 640 LINE",
"22 640 LINE",
"102 640 OFFCURVE",
"127 632 OFFCURVE",
"127 532 CURVE",
"127 430 LINE",
"217 446 LINE",
"217 548 LINE",
"217 697 OFFCURVE",
"140 726 OFFCURVE",
"51 726 CURVE"
);
},
{
closed = 1;
nodes = (
"140 -123 OFFCURVE",
"217 -94 OFFCURVE",
"217 55 CURVE",
"217 158 LINE",
"127 174 LINE",
"127 71 LINE",
"127 -29 OFFCURVE",
"102 -37 OFFCURVE",
"22 -37 CURVE",
"5 -37 LINE",
"5 -123 LINE",
"51 -123 LINE"
);
},
{
closed = 1;
nodes = (
"302 259 LINE",
"302 345 LINE",
"272 345 LINE",
"222 345 OFFCURVE",
"217 393 OFFCURVE",
"217 446 CURVE",
"127 430 LINE",
"127 311 OFFCURVE",
"224 289 OFFCURVE",
"243 289 CURVE"
);
},
{
closed = 1;
nodes = (
"224 325 OFFCURVE",
"127 293 OFFCURVE",
"127 174 CURVE",
"217 158 LINE",
"217 211 OFFCURVE",
"222 259 OFFCURVE",
"272 259 CURVE",
"302 259 LINE",
"302 325 LINE",
"243 325 LINE"
);
}
);
width = 352;
}
);
leftKerningGroup = bracketright;
rightKerningGroup = braceright;
unicode = 007D;
},
{
glyphname = bracketleft;
lastChange = "2019-11-06 02:08:29 +0000";
layers = (
{
layerId = "800095D7-3F7A-4DA4-A19A-FCDA22F72CA5";
paths = (
{
closed = 1;
nodes = (
"90 -155 LINE",
"180 -155 LINE",
"180 726 LINE",
"90 726 LINE"
);
},
{
closed = 1;
nodes = (
"90 -155 LINE",
"336 -155 LINE",
"336 -69 LINE",
"90 -69 LINE"
);
},
{
closed = 1;
nodes = (
"90 640 LINE",
"336 640 LINE",
"336 726 LINE",
"90 726 LINE"
);
}
);
width = 341;
}
);
leftKerningGroup = bracketleft;
rightKerningGroup = bracketleft;
unicode = 005B;
},
{
glyphname = bracketright;
lastChange = "2019-11-06 02:08:32 +0000";
layers = (
{
layerId = "800095D7-3F7A-4DA4-A19A-FCDA22F72CA5";
paths = (
{
closed = 1;
nodes = (
"161 726 LINE",
"161 -155 LINE",
"251 -155 LINE",
"251 726 LINE"
);
},
{
closed = 1;
nodes = (
"5 -69 LINE",
"5 -155 LINE",
"251 -155 LINE",
"251 -69 LINE"
);
},
{
closed = 1;
nodes = (
"5 726 LINE",
"5 640 LINE",
"251 640 LINE",
"251 726 LINE"
);
}
);
width = 341;
}
);
leftKerningGroup = bracketright;
unicode = 005D;
},
{
glyphname = hyphen;
lastChange = "2019-11-06 02:08:43 +0000";
layers = (
{
layerId = "800095D7-3F7A-4DA4-A19A-FCDA22F72CA5";
paths = (
{
closed = 1;
nodes = (
"45 253 LINE",
"395 253 LINE",
"395 339 LINE",
"45 339 LINE"
);
}
);
width = 440;
}
);
leftKerningGroup = hyphen;
rightKerningGroup = hyphen;
unicode = 002D;
},
{
glyphname = softhyphen;
lastChange = "2019-11-22 20:17:11 +0000";
layers = (
{
layerId = "800095D7-3F7A-4DA4-A19A-FCDA22F72CA5";
paths = (
{
closed = 1;
nodes = (
"45 253 LINE",
"395 253 LINE",
"395 339 LINE",
"45 339 LINE"
);
}
);
width = 440;
}
);
leftKerningGroup = hyphen;
rightKerningGroup = hyphen;
unicode = 00AD;
},
{
glyphname = endash;
lastChange = "2019-11-06 02:08:53 +0000";
layers = (
{
layerId = "800095D7-3F7A-4DA4-A19A-FCDA22F72CA5";
paths = (
{
closed = 1;
nodes = (
"55 253 LINE",
"604 253 LINE",
"604 339 LINE",
"55 339 LINE"
);
}
);
width = 659;
}
);
leftKerningGroup = hyphen;
rightKerningGroup = hyphen;
unicode = 2013;
},
{
glyphname = emdash;
lastChange = "2019-11-06 02:08:53 +0000";
layers = (
{
layerId = "800095D7-3F7A-4DA4-A19A-FCDA22F72CA5";
paths = (
{
closed = 1;
nodes = (
"65 253 LINE",
"832 253 LINE",
"832 339 LINE",
"65 339 LINE"
);
}
);
width = 897;
}
);
leftKerningGroup = hyphen;
rightKerningGroup = hyphen;
unicode = 2014;
},
{
glyphname = underscore;
lastChange = "2019-11-06 02:09:03 +0000";
layers = (
{
layerId = "800095D7-3F7A-4DA4-A19A-FCDA22F72CA5";
paths = (
{
closed = 1;
nodes = (
"15 -135 LINE",
"514 -135 LINE",
"514 -59 LINE",
"15 -59 LINE"
);
}
);
width = 529;
}
);
leftKerningGroup = underscore;
rightKerningGroup = underscore;
unicode = 005F;
},
{
glyphname = quotedblleft;
lastChange = "2019-11-06 02:09:24 +0000";
layers = (
{
layerId = "800095D7-3F7A-4DA4-A19A-FCDA22F72CA5";
paths = (
{
closed = 1;
nodes = (
"327 710 LINE",
"259 710 LINE",
"213 629 LINE",
"270 599 LINE"
);
},
{
closed = 1;
nodes = (
"213 475 LINE",
"327 475 LINE",
"327 589 LINE",
"213 589 LINE"
);
},
{
closed = 1;
nodes = (
"213 554 LINE",
"281 554 LINE",
"281 629 LINE",
"213 629 LINE"
);
},
{
closed = 1;
nodes = (
"154 710 LINE",
"86 710 LINE",
"40 629 LINE",
"97 599 LINE"
);
},
{
closed = 1;
nodes = (
"40 475 LINE",
"154 475 LINE",
"154 589 LINE",
"40 589 LINE"
);
},
{
closed = 1;
nodes = (
"40 554 LINE",
"108 554 LINE",
"108 629 LINE",
"40 629 LINE"
);
}
);
width = 367;
}
);
leftKerningGroup = quoteleft;
rightKerningGroup = quoteleft;
unicode = 201C;
},
{
glyphname = quotedblright;
lastChange = "2019-11-06 02:09:32 +0000";
layers = (
{
layerId = "800095D7-3F7A-4DA4-A19A-FCDA22F72CA5";
paths = (
{
closed = 1;
nodes = (
"40 475 LINE",
"108 475 LINE",
"154 556 LINE",
"97 586 LINE"
);
},
{
closed = 1;
nodes = (
"154 710 LINE",
"40 710 LINE",
"40 596 LINE",
"154 596 LINE"
);
},
{
closed = 1;
nodes = (
"154 631 LINE",
"86 631 LINE",
"86 556 LINE",
"154 556 LINE"
);
},
{
closed = 1;
nodes = (
"213 475 LINE",
"281 475 LINE",
"327 556 LINE",
"270 586 LINE"
);
},
{
closed = 1;
nodes = (
"327 710 LINE",
"213 710 LINE",
"213 596 LINE",
"327 596 LINE"
);
},
{
closed = 1;
nodes = (
"327 631 LINE",
"259 631 LINE",
"259 556 LINE",
"327 556 LINE"
);
}
);
width = 367;
}
);
leftKerningGroup = quoteright;
rightKerningGroup = quoteright;
unicode = 201D;
},
{
glyphname = quoteleft;
lastChange = "2019-11-06 02:09:45 +0000";
layers = (
{
layerId = "800095D7-3F7A-4DA4-A19A-FCDA22F72CA5";
paths = (
{
closed = 1;
nodes = (
"154 710 LINE",
"86 710 LINE",
"40 629 LINE",
"97 599 LINE"
);
},
{
closed = 1;
nodes = (
"40 475 LINE",
"154 475 LINE",
"154 589 LINE",
"40 589 LINE"
);
},
{
closed = 1;
nodes = (
"40 554 LINE",
"108 554 LINE",
"108 629 LINE",
"40 629 LINE"
);
}
);
width = 194;
}
);
leftKerningGroup = quoteleft;
rightKerningGroup = quoteleft;
unicode = 2018;
},
{
glyphname = quoteright;
lastChange = "2019-11-06 02:09:48 +0000";
layers = (
{
layerId = "800095D7-3F7A-4DA4-A19A-FCDA22F72CA5";
paths = (
{
closed = 1;
nodes = (
"40 475 LINE",
"108 475 LINE",
"154 556 LINE",
"97 586 LINE"
);
},
{
closed = 1;
nodes = (
"154 710 LINE",
"40 710 LINE",
"40 596 LINE",
"154 596 LINE"
);
},
{
closed = 1;
nodes = (
"154 631 LINE",
"86 631 LINE",
"86 556 LINE",
"154 556 LINE"
);
}
);
width = 194;
}
);
leftKerningGroup = quoteright;
rightKerningGroup = quoteright;
unicode = 2019;
},
{
glyphname = guillemetleft;
lastChange = "2019-11-06 02:05:13 +0000";
layers = (
{
layerId = "800095D7-3F7A-4DA4-A19A-FCDA22F72CA5";
paths = (
{
closed = 1;
nodes = (
"30 274 LINE",
"120 274 LINE",
"307 480 LINE",
"212 480 LINE"
);
},
{
closed = 1;
nodes = (
"307 68 LINE",
"120 274 LINE",
"30 274 LINE",
"212 68 LINE"
);
},
{
closed = 1;
nodes = (
"235 274 LINE",
"325 274 LINE",
"512 480 LINE",
"417 480 LINE"
);
},
{
closed = 1;
nodes = (
"512 68 LINE",
"325 274 LINE",
"235 274 LINE",
"417 68 LINE"
);
}
);
width = 532;
}
);
leftKerningGroup = guillemotleft;
rightKerningGroup = guillemotleft;
unicode = 00AB;
},
{
glyphname = guillemetright;
lastChange = "2019-11-06 02:05:32 +0000";
layers = (
{
layerId = "800095D7-3F7A-4DA4-A19A-FCDA22F72CA5";
paths = (
{
closed = 1;
nodes = (
"225 480 LINE",
"412 274 LINE",
"502 274 LINE",
"320 480 LINE"
);
},
{
closed = 1;
nodes = (
"502 274 LINE",
"412 274 LINE",
"225 68 LINE",
"320 68 LINE"
);
},
{
closed = 1;
nodes = (
"20 480 LINE",
"207 274 LINE",
"297 274 LINE",
"115 480 LINE"
);
},
{
closed = 1;
nodes = (
"297 274 LINE",
"207 274 LINE",
"20 68 LINE",
"115 68 LINE"
);
}
);
width = 532;
}
);
leftKerningGroup = guillemotright;
rightKerningGroup = guillemotright;
unicode = 00BB;
},
{
glyphname = guilsinglleft;
lastChange = "2019-11-06 02:05:36 +0000";
layers = (
{
layerId = "800095D7-3F7A-4DA4-A19A-FCDA22F72CA5";
paths = (
{
closed = 1;
nodes = (
"30 274 LINE",
"120 274 LINE",
"307 480 LINE",
"212 480 LINE"
);
},
{
closed = 1;
nodes = (
"307 68 LINE",
"120 274 LINE",
"30 274 LINE",
"212 68 LINE"
);
}
);
width = 327;
}
);
leftKerningGroup = guillemotleft;
rightKerningGroup = guillemotleft;
unicode = 2039;
},
{
glyphname = guilsinglright;
lastChange = "2019-11-06 02:05:43 +0000";
layers = (
{
layerId = "800095D7-3F7A-4DA4-A19A-FCDA22F72CA5";
paths = (
{
closed = 1;
nodes = (
"20 480 LINE",
"207 274 LINE",
"297 274 LINE",
"115 480 LINE"
);
},
{
closed = 1;
nodes = (
"297 274 LINE",
"207 274 LINE",
"20 68 LINE",
"115 68 LINE"
);
}
);
width = 327;
}
);
leftKerningGroup = guillemotright;
rightKerningGroup = guillemotright;
unicode = 203A;
},
{
glyphname = quotedbl;
lastChange = "2019-11-06 02:04:53 +0000";
layers = (
{
layerId = "800095D7-3F7A-4DA4-A19A-FCDA22F72CA5";
paths = (
{
closed = 1;
nodes = (
"133 606 OFFCURVE",
"160 632 OFFCURVE",
"160 665 CURVE SMOOTH",
"160 698 OFFCURVE",
"133 726 OFFCURVE",
"100 726 CURVE SMOOTH",
"67 726 OFFCURVE",
"40 698 OFFCURVE",
"40 665 CURVE SMOOTH",
"40 632 OFFCURVE",
"67 606 OFFCURVE",
"100 606 CURVE SMOOTH"
);
},
{
closed = 1;
nodes = (
"40 636 OFFCURVE",
"73 526 OFFCURVE",
"82 480 CURVE",
"118 480 LINE",
"127 526 OFFCURVE",
"160 636 OFFCURVE",
"160 665 CURVE",
"40 665 LINE"
);
},
{
closed = 1;
nodes = (
"312 606 OFFCURVE",
"339 632 OFFCURVE",
"339 665 CURVE SMOOTH",
"339 698 OFFCURVE",
"312 726 OFFCURVE",
"279 726 CURVE SMOOTH",
"246 726 OFFCURVE",
"219 698 OFFCURVE",
"219 665 CURVE SMOOTH",
"219 632 OFFCURVE",
"246 606 OFFCURVE",
"279 606 CURVE SMOOTH"
);
},
{
closed = 1;
nodes = (
"219 636 OFFCURVE",
"252 526 OFFCURVE",
"261 480 CURVE",
"297 480 LINE",
"306 526 OFFCURVE",
"339 636 OFFCURVE",
"339 665 CURVE",
"219 665 LINE"
);
}
);
width = 379;
}
);
leftKerningGroup = quotedbl;
rightKerningGroup = quotedbl;
unicode = 0022;
},
{
glyphname = quotesingle;
lastChange = "2019-11-06 02:05:03 +0000";
layers = (
{
layerId = "800095D7-3F7A-4DA4-A19A-FCDA22F72CA5";
paths = (
{
closed = 1;
nodes = (
"133 606 OFFCURVE",
"160 632 OFFCURVE",
"160 665 CURVE SMOOTH",
"160 698 OFFCURVE",
"133 726 OFFCURVE",
"100 726 CURVE SMOOTH",
"67 726 OFFCURVE",
"40 698 OFFCURVE",
"40 665 CURVE SMOOTH",
"40 632 OFFCURVE",
"67 606 OFFCURVE",
"100 606 CURVE SMOOTH"
);
},
{
closed = 1;
nodes = (
"40 636 OFFCURVE",
"73 526 OFFCURVE",
"82 480 CURVE",
"118 480 LINE",
"127 526 OFFCURVE",
"160 636 OFFCURVE",
"160 665 CURVE",
"40 665 LINE"
);
}
);
width = 200;
}
);
leftKerningGroup = quotedbl;
rightKerningGroup = quotedbl;
unicode = 0027;
},
{
glyphname = cent;
lastChange = "2019-11-06 02:10:41 +0000";
layers = (
{
components = (
{
name = c;
transform = "{1, 0, 0, 1, 10, 116}";
}
);
layerId = "800095D7-3F7A-4DA4-A19A-FCDA22F72CA5";
paths = (
{
closed = 1;
nodes = (
"227 0 LINE",
"307 0 LINE",
"307 710 LINE",
"227 710 LINE"
);
}
);
width = 552;
}
);
rightKerningGroup = cent;
unicode = 00A2;
},
{
glyphname = currency;
lastChange = "2019-11-06 00:42:29 +0000";
layers = (
{
layerId = "800095D7-3F7A-4DA4-A19A-FCDA22F72CA5";
paths = (
{
closed = 1;
nodes = (
"220 112 OFFCURVE",
"356 112 OFFCURVE",
"440 196 CURVE SMOOTH",
"524 280 OFFCURVE",
"524 416 OFFCURVE",
"440 500 CURVE SMOOTH",
"355 585 OFFCURVE",
"220 584 OFFCURVE",
"136 500 CURVE SMOOTH",
"52 416 OFFCURVE",
"51 281 OFFCURVE",
"136 196 CURVE SMOOTH"
);
},
{
closed = 1;
nodes = (
"132 305 OFFCURVE",
"132 397 OFFCURVE",
"188 454 CURVE SMOOTH",
"244 511 OFFCURVE",
"337 510 OFFCURVE",
"393 454 CURVE SMOOTH",
"450 397 OFFCURVE",
"450 305 OFFCURVE",
"393 249 CURVE SMOOTH",
"336 193 OFFCURVE",
"245 192 OFFCURVE",
"188 249 CURVE SMOOTH"
);
},
{
closed = 1;
nodes = (
"368 478 LINE",
"418 428 LINE",
"536 547 LINE",
"487 596 LINE"
);
},
{
closed = 1;
nodes = (
"94 596 LINE",
"45 546 LINE",
"163 428 LINE",
"213 478 LINE"
);
},
{
closed = 1;
nodes = (
"45 155 LINE",
"95 105 LINE",
"213 223 LINE",
"163 273 LINE"
);
},
{
closed = 1;
nodes = (
"418 273 LINE",
"369 224 LINE",
"487 105 LINE",
"536 155 LINE"
);
}
);
width = 581;
}
);
unicode = 00A4;
},
{
glyphname = dollar;
lastChange = "2019-11-06 02:10:26 +0000";
layers = (
{
components = (
{
name = S;
transform = "{1, 0, 0, 1, 12, 0}";
}
);
layerId = "800095D7-3F7A-4DA4-A19A-FCDA22F72CA5";
paths = (
{
closed = 1;
nodes = (
"319 -85 LINE",
"399 -85 LINE",
"399 796 LINE",
"319 796 LINE"
);
}
);
width = 700;
}
);
rightKerningGroup = dollar;
unicode = 0024;
},
{
glyphname = euro;
lastChange = "2019-10-29 04:51:48 +0000";
layers = (
{
layerId = "800095D7-3F7A-4DA4-A19A-FCDA22F72CA5";
paths = (
{
closed = 1;
nodes = (
"145 100 OFFCURVE",
"274 -16 OFFCURVE",
"444 -16 CURVE SMOOTH",
"517 -16 OFFCURVE",
"568 -2 OFFCURVE",
"592 12 CURVE",
"592 93 LINE",
"562 80 OFFCURVE",
"526 73 OFFCURVE",
"485 73 CURVE SMOOTH",
"295 73 OFFCURVE",
"235 192 OFFCURVE",
"235 329 CURVE SMOOTH",
"235 381 LINE SMOOTH",
"235 518 OFFCURVE",
"295 640 OFFCURVE",
"485 640 CURVE SMOOTH",
"526 640 OFFCURVE",
"562 632 OFFCURVE",
"592 619 CURVE",
"592 695 LINE",
"565 710 OFFCURVE",
"515 726 OFFCURVE",
"444 726 CURVE SMOOTH",
"274 726 OFFCURVE",
"145 610 OFFCURVE",
"145 389 CURVE SMOOTH",
"145 321 LINE SMOOTH"
);
},
{
closed = 1;
nodes = (
"50 389 LINE",
"513 389 LINE",
"513 459 LINE",
"50 459 LINE"
);
},
{
closed = 1;
nodes = (
"50 250 LINE",
"513 250 LINE",
"513 320 LINE",
"50 320 LINE"
);
}
);
width = 642;
}
);
unicode = 20AC;
},
{
glyphname = sterling;
lastChange = "2019-11-06 00:42:16 +0000";
layers = (
{
layerId = "800095D7-3F7A-4DA4-A19A-FCDA22F72CA5";
paths = (
{
closed = 1;
nodes = (
"104 341 OFFCURVE",
"179 315 OFFCURVE",
"182 189 CURVE SMOOTH",
"183 150 OFFCURVE",
"136 90 OFFCURVE",
"65 90 CURVE",
"65 42 LINE",
"210 42 OFFCURVE",
"268 131 OFFCURVE",
"267 199 CURVE SMOOTH",
"266 320 OFFCURVE",
"194 367 OFFCURVE",
"194 464 CURVE SMOOTH",
"194 518 OFFCURVE",
"226 640 OFFCURVE",
"416 640 CURVE SMOOTH",
"473 640 OFFCURVE",
"513 631 OFFCURVE",
"543 618 CURVE",
"543 694 LINE",
"516 709 OFFCURVE",
"462 726 OFFCURVE",
"375 726 CURVE SMOOTH",
"205 726 OFFCURVE",
"104 610 OFFCURVE",
"104 472 CURVE SMOOTH"
);
},
{
closed = 1;
nodes = (
"65 320 LINE",
"494 320 LINE",
"494 390 LINE",
"65 390 LINE"
);
},
{
closed = 1;
nodes = (
"65 0 LINE",
"543 0 LINE",
"543 90 LINE",
"65 90 LINE"
);
}
);
width = 568;
}
);
unicode = 00A3;
},
{
glyphname = yen;
lastChange = "2019-11-06 00:42:46 +0000";
layers = (
{
layerId = "800095D7-3F7A-4DA4-A19A-FCDA22F72CA5";
paths = (
{
closed = 1;
nodes = (
"314 284 LINE",
"125 710 LINE",
"25 710 LINE",
"224 284 LINE"
);
},
{
closed = 1;
nodes = (
"97 284 LINE",
"560 284 LINE",
"560 354 LINE",
"97 354 LINE"
);
},
{
closed = 1;
nodes = (
"631 710 LINE",
"531 710 LINE",
"342 284 LINE",
"432 284 LINE"
);
},
{
closed = 1;
nodes = (
"283 0 LINE",
"373 0 LINE",
"373 337 LINE",
"283 337 LINE"
);
},
{
closed = 1;
nodes = (
"97 144 LINE",
"560 144 LINE",
"560 214 LINE",
"97 214 LINE"
);
}
);
width = 656;
}
);
unicode = 00A5;
},
{
glyphname = divisionslash;
lastChange = "2019-11-26 01:32:03 +0000";
layers = (
{
layerId = "800095D7-3F7A-4DA4-A19A-FCDA22F72CA5";
paths = (
{
closed = 1;
nodes = (
"-30 0 LINE",
"61 0 LINE",
"538 710 LINE",
"448 710 LINE"
);
}
);
width = 508;
}
);
unicode = 2215;
},
{
glyphname = notequal;
lastChange = "2019-11-06 00:40:50 +0000";
layers = (
{
components = (
{
name = stem_lowercase;
transform = "{0, -1, 0.87412, 0, 65, 390}";
},
{
name = stem_lowercase;
transform = "{0, -1, 0.87412, 0, 65, 570}";
}
);
layerId = "800095D7-3F7A-4DA4-A19A-FCDA22F72CA5";
paths = (
{
closed = 1;
nodes = (
"124 114 LINE",
"214 114 LINE",
"427 578 LINE",
"337 578 LINE"
);
}
);
width = 550;
}
);
unicode = 2260;
},
{
glyphname = greater;
lastChange = "2019-11-06 00:40:31 +0000";
layers = (
{
layerId = "800095D7-3F7A-4DA4-A19A-FCDA22F72CA5";
paths = (
{
closed = 1;
nodes = (
"35 414 LINE",
"515 240 LINE",
"515 330 LINE",
"35 512 LINE"
);
},
{
closed = 1;
nodes = (
"515 240 LINE",
"515 330 LINE",
"35 157 LINE",
"35 58 LINE"
);
}
);
width = 550;
}
);
unicode = 003E;
},
{
glyphname = less;
lastChange = "2019-11-06 00:40:31 +0000";
layers = (
{
layerId = "800095D7-3F7A-4DA4-A19A-FCDA22F72CA5";
paths = (
{
closed = 1;
nodes = (
"35 330 LINE",
"35 240 LINE",
"515 414 LINE",
"515 512 LINE"
);
},
{
closed = 1;
nodes = (
"515 157 LINE",
"35 330 LINE",
"35 240 LINE",
"515 58 LINE"
);
}
);
width = 550;
}
);
unicode = 003C;
},
{
glyphname = greaterequal;
lastChange = "2019-11-06 00:40:19 +0000";
layers = (
{
layerId = "800095D7-3F7A-4DA4-A19A-FCDA22F72CA5";
paths = (
{
closed = 1;
nodes = (
"55 424 LINE",
"535 324 LINE",
"535 400 LINE",
"55 522 LINE"
);
},
{
closed = 1;
nodes = (
"535 310 LINE",
"535 386 LINE",
"55 287 LINE",
"55 188 LINE"
);
},
{
closed = 1;
nodes = (
"535 41 LINE",
"535 131 LINE",
"55 131 LINE",
"55 41 LINE"
);
}
);
width = 590;
}
);
unicode = 2265;
},
{
glyphname = lessequal;
lastChange = "2019-11-06 00:40:19 +0000";
layers = (
{
layerId = "800095D7-3F7A-4DA4-A19A-FCDA22F72CA5";
paths = (
{
closed = 1;
nodes = (
"55 400 LINE",
"55 324 LINE",
"535 424 LINE",
"535 522 LINE"
);
},
{
closed = 1;
nodes = (
"535 287 LINE",
"55 386 LINE",
"55 310 LINE",
"535 188 LINE"
);
},
{
closed = 1;
nodes = (
"535 131 LINE",
"55 131 LINE",
"55 41 LINE",
"535 41 LINE"
);
}
);
width = 590;
}
);
unicode = 2264;
},
{
glyphname = plusminus;
lastChange = "2019-11-06 00:40:19 +0000";
layers = (
{
layerId = "800095D7-3F7A-4DA4-A19A-FCDA22F72CA5";
paths = (
{
closed = 1;
nodes = (
"535 131 LINE",
"55 131 LINE",
"55 41 LINE",
"535 41 LINE"
);
},
{
closed = 1;
nodes = (
"535 418 LINE",
"55 418 LINE",
"55 328 LINE",
"535 328 LINE"
);
},
{
closed = 1;
nodes = (
"340 189 LINE",
"340 556 LINE",
"250 556 LINE",
"250 189 LINE"
);
}
);
width = 590;
}
);
unicode = 00B1;
},
{
glyphname = approxequal;
lastChange = "2019-11-06 03:05:23 +0000";
layers = (
{
layerId = "800095D7-3F7A-4DA4-A19A-FCDA22F72CA5";
paths = (
{
closed = 1;
nodes = (
"282 496 OFFCURVE",
"302 419 OFFCURVE",
"368 419 CURVE SMOOTH",
"401 419 OFFCURVE",
"425 451 OFFCURVE",
"425 489 CURVE",
"515 489 LINE",
"515 433 OFFCURVE",
"476 332 OFFCURVE",
"359 332 CURVE",
"262 332 OFFCURVE",
"248 410 OFFCURVE",
"188 410 CURVE",
"149 410 OFFCURVE",
"125 374 OFFCURVE",
"125 339 CURVE",
"35 339 LINE",
"35 430 OFFCURVE",
"101 496 OFFCURVE",
"197 496 CURVE"
);
},
{
closed = 1;
nodes = (
"282 285 OFFCURVE",
"302 208 OFFCURVE",
"368 208 CURVE SMOOTH",
"401 208 OFFCURVE",
"425 240 OFFCURVE",
"425 278 CURVE",
"515 278 LINE",
"515 222 OFFCURVE",
"476 121 OFFCURVE",
"359 121 CURVE",
"262 121 OFFCURVE",
"248 199 OFFCURVE",
"188 199 CURVE",
"149 199 OFFCURVE",
"125 163 OFFCURVE",
"125 128 CURVE",
"35 128 LINE",
"35 219 OFFCURVE",
"101 285 OFFCURVE",
"197 285 CURVE"
);
}
);
width = 550;
}
);
unicode = 2248;
},
{
glyphname = asciitilde;
lastChange = "2019-11-06 02:13:05 +0000";
layers = (
{
layerId = "800095D7-3F7A-4DA4-A19A-FCDA22F72CA5";
paths = (
{
closed = 1;
nodes = (
"282 383 OFFCURVE",
"302 306 OFFCURVE",
"368 306 CURVE SMOOTH",
"401 306 OFFCURVE",
"425 338 OFFCURVE",
"425 376 CURVE",
"515 376 LINE",
"515 320 OFFCURVE",
"476 219 OFFCURVE",
"359 219 CURVE",
"262 219 OFFCURVE",
"248 297 OFFCURVE",
"188 297 CURVE",
"149 297 OFFCURVE",
"125 261 OFFCURVE",
"125 226 CURVE",
"35 226 LINE",
"35 317 OFFCURVE",
"101 383 OFFCURVE",
"197 383 CURVE"
);
}
);
width = 550;
}
);
leftKerningGroup = asciitilde;
rightKerningGroup = asciitilde;
unicode = 007E;
},
{
glyphname = logicalnot;
lastChange = "2019-11-06 00:40:19 +0000";
layers = (
{
layerId = "800095D7-3F7A-4DA4-A19A-FCDA22F72CA5";
paths = (
{
closed = 1;
nodes = (
"535 318 LINE",
"55 318 LINE",
"55 228 LINE",
"535 228 LINE"
);
},
{
closed = 1;
nodes = (
"535 39 LINE",
"535 291 LINE",
"445 291 LINE",
"445 39 LINE"
);
}
);
width = 590;
}
);
unicode = 00AC;
},
{
glyphname = asciicircum;
lastChange = "2019-11-06 02:13:26 +0000";
layers = (
{
layerId = "800095D7-3F7A-4DA4-A19A-FCDA22F72CA5";
paths = (
{
closed = 1;
nodes = (
"115 383 LINE",
"261 710 LINE",
"176 710 LINE",
"25 383 LINE"
);
},
{
closed = 1;
nodes = (
"261 710 LINE",
"176 710 LINE",
"321 383 LINE",
"411 383 LINE"
);
}
);
width = 436;
}
);
leftKerningGroup = asciicircum;
rightKerningGroup = asciicircum;
unicode = 005E;
},
{
glyphname = emptyset;
lastChange = "2019-11-04 20:01:23 +0000";
layers = (
{
layerId = "800095D7-3F7A-4DA4-A19A-FCDA22F72CA5";
paths = (
{
closed = 1;
nodes = (
"241 -28 OFFCURVE",
"421 -26 OFFCURVE",
"530 83 CURVE SMOOTH",
"640 193 OFFCURVE",
"641 371 OFFCURVE",
"530 482 CURVE SMOOTH",
"421 591 OFFCURVE",
"242 591 OFFCURVE",
"131 481 CURVE SMOOTH",
"22 373 OFFCURVE",
"23 193 OFFCURVE",
"131 84 CURVE SMOOTH"
);
},
{
closed = 1;
nodes = (
"77 209 OFFCURVE",
"77 356 OFFCURVE",
"167 446 CURVE SMOOTH",
"257 536 OFFCURVE",
"404 536 OFFCURVE",
"494 446 CURVE SMOOTH",
"585 355 OFFCURVE",
"585 209 OFFCURVE",
"494 118 CURVE SMOOTH",
"404 28 OFFCURVE",
"257 29 OFFCURVE",
"167 119 CURVE SMOOTH"
);
},
{
closed = 1;
nodes = (
"62 48 LINE",
"98 13 LINE",
"600 515 LINE",
"564 550 LINE"
);
}
);
width = 663;
}
);
unicode = 2205;
},
{
glyphname = infinity;
lastChange = "2019-11-06 03:04:37 +0000";
layers = (
{
layerId = "800095D7-3F7A-4DA4-A19A-FCDA22F72CA5";
paths = (
{
closed = 1;
nodes = (
"50 180 OFFCURVE",
"129 115 OFFCURVE",
"232 115 CURVE SMOOTH",
"252 115 LINE SMOOTH",
"360 115 OFFCURVE",
"406 182 OFFCURVE",
"449 239 CURVE",
"493 182 OFFCURVE",
"539 115 OFFCURVE",
"647 115 CURVE SMOOTH",
"667 115 LINE SMOOTH",
"770 115 OFFCURVE",
"849 180 OFFCURVE",
"849 306 CURVE SMOOTH",
"849 306 LINE SMOOTH",
"849 431 OFFCURVE",
"770 496 OFFCURVE",
"667 496 CURVE SMOOTH",
"647 496 LINE SMOOTH",
"539 496 OFFCURVE",
"493 429 OFFCURVE",
"450 372 CURVE",
"406 429 OFFCURVE",
"360 496 OFFCURVE",
"252 496 CURVE SMOOTH",
"232 496 LINE SMOOTH",
"129 496 OFFCURVE",
"50 431 OFFCURVE",
"50 306 CURVE SMOOTH",
"50 306 LINE SMOOTH"
);
},
{
closed = 1;
nodes = (
"136 306 LINE SMOOTH",
"136 370 OFFCURVE",
"181 406 OFFCURVE",
"232 406 CURVE SMOOTH",
"252 406 LINE SMOOTH",
"318 406 OFFCURVE",
"362 355 OFFCURVE",
"401 305 CURVE",
"362 256 OFFCURVE",
"318 205 OFFCURVE",
"252 205 CURVE SMOOTH",
"232 205 LINE SMOOTH",
"181 205 OFFCURVE",
"136 241 OFFCURVE",
"136 306 CURVE SMOOTH"
);
},
{
closed = 1;
nodes = (
"537 355 OFFCURVE",
"581 406 OFFCURVE",
"647 406 CURVE SMOOTH",
"667 406 LINE SMOOTH",
"718 406 OFFCURVE",
"763 370 OFFCURVE",
"763 306 CURVE SMOOTH",
"763 306 LINE SMOOTH",
"763 241 OFFCURVE",
"718 205 OFFCURVE",
"667 205 CURVE SMOOTH",
"647 205 LINE SMOOTH",
"581 205 OFFCURVE",
"537 256 OFFCURVE",
"498 306 CURVE"
);
}
);
width = 899;
}
);
leftKerningGroup = infinity;
rightKerningGroup = infinity;
unicode = 221E;
},
{
glyphname = integral;
lastChange = "2019-11-06 00:47:55 +0000";
layers = (
{
layerId = "800095D7-3F7A-4DA4-A19A-FCDA22F72CA5";
paths = (
{
closed = 1;
nodes = (
"51 -123 LINE SMOOTH",
"140 -123 OFFCURVE",
"224 -94 OFFCURVE",
"237 55 CURVE",
"280 532 LINE",
"292 632 OFFCURVE",
"325 640 OFFCURVE",
"405 640 CURVE SMOOTH",
"422 640 LINE",
"422 726 LINE",
"376 726 LINE SMOOTH",
"287 726 OFFCURVE",
"202 697 OFFCURVE",
"190 548 CURVE",
"147 71 LINE",
"134 -29 OFFCURVE",
"102 -37 OFFCURVE",
"22 -37 CURVE SMOOTH",
"5 -37 LINE",
"5 -123 LINE"
);
}
);
width = 427;
}
);
unicode = 222B;
},
{
glyphname = product;
lastChange = "2019-11-05 23:40:47 +0000";
layers = (
{
layerId = "800095D7-3F7A-4DA4-A19A-FCDA22F72CA5";
paths = (
{
closed = 1;
nodes = (
"185 -155 LINE",
"275 -155 LINE",
"275 726 LINE",
"185 726 LINE"
);
},
{
closed = 1;
nodes = (
"455 -155 LINE",
"545 -155 LINE",
"545 726 LINE",
"455 726 LINE"
);
},
{
closed = 1;
nodes = (
"50 726 LINE",
"50 636 LINE",
"680 636 LINE",
"680 726 LINE"
);
}
);
width = 730;
}
);
unicode = 220F;
},
{
glyphname = summation;
lastChange = "2019-11-06 02:15:16 +0000";
layers = (
{
layerId = "800095D7-3F7A-4DA4-A19A-FCDA22F72CA5";
paths = (
{
closed = 1;
nodes = (
"45 726 LINE",
"45 636 LINE",
"505 636 LINE",
"505 726 LINE"
);
},
{
closed = 1;
nodes = (
"45 -65 LINE",
"45 -155 LINE",
"505 -155 LINE",
"505 -65 LINE"
);
},
{
closed = 1;
nodes = (
"303 286 LINE",
"422 286 LINE",
"167 636 LINE",
"45 636 LINE"
);
},
{
closed = 1;
nodes = (
"45 -65 LINE",
"167 -65 LINE",
"422 286 LINE",
"303 286 LINE"
);
}
);
width = 530;
}
);
leftKerningGroup = summation;
unicode = 2211;
},
{
glyphname = radical;
lastChange = "2019-11-06 02:15:32 +0000";
layers = (
{
layerId = "800095D7-3F7A-4DA4-A19A-FCDA22F72CA5";
paths = (
{
closed = 1;
nodes = (
"415 726 LINE",
"415 631 LINE",
"689 631 LINE",
"689 726 LINE"
);
},
{
closed = 1;
nodes = (
"195 -160 LINE",
"295 -160 LINE",
"515 726 LINE",
"415 726 LINE"
);
},
{
closed = 1;
nodes = (
"35 274 LINE",
"155 -160 LINE",
"255 -160 LINE",
"135 274 LINE"
);
}
);
width = 654;
}
);
rightKerningGroup = radical;
unicode = 221A;
},
{
glyphname = partialdiff;
lastChange = "2019-11-06 03:07:41 +0000";
layers = (
{
layerId = "800095D7-3F7A-4DA4-A19A-FCDA22F72CA5";
paths = (
{
closed = 1;
nodes = (
"204 76 OFFCURVE",
"136 150 OFFCURVE",
"136 251 CURVE SMOOTH",
"136 325 OFFCURVE",
"170 410 OFFCURVE",
"276 410 CURVE SMOOTH",
"373 410 OFFCURVE",
"425 347 OFFCURVE",
"425 251 CURVE SMOOTH",
"425 153 OFFCURVE",
"390 76 OFFCURVE",
"276 76 CURVE SMOOTH"
);
},
{
closed = 1;
nodes = (
"515 688 OFFCURVE",
"224 726 OFFCURVE",
"132 726 CURVE",
"132 646 LINE",
"231 646 OFFCURVE",
"404 582 OFFCURVE",
"419 418 CURVE",
"390 470 OFFCURVE",
"325 496 OFFCURVE",
"271 496 CURVE SMOOTH",
"131 496 OFFCURVE",
"46 413 OFFCURVE",
"46 251 CURVE SMOOTH",
"46 77 OFFCURVE",
"156 -16 OFFCURVE",
"276 -16 CURVE SMOOTH",
"390 -16 OFFCURVE",
"515 55 OFFCURVE",
"515 276 CURVE"
);
}
);
width = 564;
}
);
unicode = 2202;
},
{
glyphname = micro;
lastChange = "2019-11-22 20:19:40 +0000";
layers = (
{
components = (
{
name = u;
}
);
layerId = "800095D7-3F7A-4DA4-A19A-FCDA22F72CA5";
paths = (
{
closed = 1;
nodes = (
"75 -190 LINE",
"165 -190 LINE",
"165 326 LINE",
"75 326 LINE"
);
}
);
width = 584;
}
);
unicode = 00B5;
},
{
glyphname = percent;
lastChange = "2019-11-06 03:00:43 +0000";
layers = (
{
layerId = "800095D7-3F7A-4DA4-A19A-FCDA22F72CA5";
paths = (
{
closed = 1;
nodes = (
"162 0 LINE",
"263 0 LINE",
"725 710 LINE",
"624 710 LINE"
);
},
{
closed = 1;
nodes = (
"329 373 OFFCURVE",
"408 452 OFFCURVE",
"408 549 CURVE SMOOTH",
"408 647 OFFCURVE",
"329 726 OFFCURVE",
"232 726 CURVE SMOOTH",
"134 726 OFFCURVE",
"55 647 OFFCURVE",
"55 549 CURVE SMOOTH",
"55 452 OFFCURVE",
"134 373 OFFCURVE",
"232 373 CURVE SMOOTH"
);
},
{
closed = 1;
nodes = (
"181 460 OFFCURVE",
"142 501 OFFCURVE",
"142 550 CURVE SMOOTH",
"142 600 OFFCURVE",
"181 640 OFFCURVE",
"233 640 CURVE SMOOTH",
"282 640 OFFCURVE",
"322 600 OFFCURVE",
"322 550 CURVE SMOOTH",
"322 501 OFFCURVE",
"282 460 OFFCURVE",
"233 460 CURVE SMOOTH"
);
},
{
closed = 1;
nodes = (
"761 -16 OFFCURVE",
"840 63 OFFCURVE",
"840 160 CURVE SMOOTH",
"840 256 OFFCURVE",
"761 337 OFFCURVE",
"664 337 CURVE SMOOTH",
"566 337 OFFCURVE",
"487 258 OFFCURVE",
"487 160 CURVE SMOOTH",
"487 63 OFFCURVE",
"566 -16 OFFCURVE",
"664 -16 CURVE SMOOTH"
);
},
{
closed = 1;
nodes = (
"613 71 OFFCURVE",
"574 112 OFFCURVE",
"574 161 CURVE SMOOTH",
"574 211 OFFCURVE",
"613 251 OFFCURVE",
"665 251 CURVE SMOOTH",
"714 251 OFFCURVE",
"754 211 OFFCURVE",
"754 161 CURVE SMOOTH",
"754 112 OFFCURVE",
"714 71 OFFCURVE",
"665 71 CURVE SMOOTH"
);
}
);
width = 885;
}
);
leftKerningGroup = percent;
rightKerningGroup = percent;
unicode = 0025;
},
{
glyphname = perthousand;
lastChange = "2019-11-06 03:03:55 +0000";
layers = (
{
layerId = "800095D7-3F7A-4DA4-A19A-FCDA22F72CA5";
paths = (
{
closed = 1;
nodes = (
"162 0 LINE",
"263 0 LINE",
"725 710 LINE",
"624 710 LINE"
);
},
{
closed = 1;
nodes = (
"329 373 OFFCURVE",
"408 452 OFFCURVE",
"408 549 CURVE SMOOTH",
"408 647 OFFCURVE",
"329 726 OFFCURVE",
"232 726 CURVE SMOOTH",
"134 726 OFFCURVE",
"55 647 OFFCURVE",
"55 549 CURVE SMOOTH",
"55 452 OFFCURVE",
"134 373 OFFCURVE",
"232 373 CURVE SMOOTH"
);
},
{
closed = 1;
nodes = (
"181 460 OFFCURVE",
"142 501 OFFCURVE",
"142 550 CURVE SMOOTH",
"142 600 OFFCURVE",
"181 640 OFFCURVE",
"233 640 CURVE SMOOTH",
"282 640 OFFCURVE",
"322 600 OFFCURVE",
"322 550 CURVE SMOOTH",
"322 501 OFFCURVE",
"282 460 OFFCURVE",
"233 460 CURVE SMOOTH"
);
},
{
closed = 1;
nodes = (
"761 -16 OFFCURVE",
"840 63 OFFCURVE",
"840 160 CURVE SMOOTH",
"840 256 OFFCURVE",
"761 337 OFFCURVE",
"664 337 CURVE SMOOTH",
"566 337 OFFCURVE",
"487 258 OFFCURVE",
"487 160 CURVE SMOOTH",
"487 63 OFFCURVE",
"566 -16 OFFCURVE",
"664 -16 CURVE SMOOTH"
);
},
{
closed = 1;
nodes = (
"613 71 OFFCURVE",
"574 112 OFFCURVE",
"574 161 CURVE SMOOTH",
"574 211 OFFCURVE",
"613 251 OFFCURVE",
"665 251 CURVE SMOOTH",
"714 251 OFFCURVE",
"754 211 OFFCURVE",
"754 161 CURVE SMOOTH",
"754 112 OFFCURVE",
"714 71 OFFCURVE",
"665 71 CURVE SMOOTH"
);
},
{
closed = 1;
nodes = (
"1028 -16 OFFCURVE",
"1107 63 OFFCURVE",
"1107 160 CURVE SMOOTH",
"1107 256 OFFCURVE",
"1028 337 OFFCURVE",
"931 337 CURVE SMOOTH",
"833 337 OFFCURVE",
"754 258 OFFCURVE",
"754 160 CURVE SMOOTH",
"754 63 OFFCURVE",
"833 -16 OFFCURVE",
"931 -16 CURVE SMOOTH"
);
},
{
closed = 1;
nodes = (
"880 71 OFFCURVE",
"841 112 OFFCURVE",
"841 161 CURVE SMOOTH",
"841 211 OFFCURVE",
"880 251 OFFCURVE",
"932 251 CURVE SMOOTH",
"981 251 OFFCURVE",
"1021 211 OFFCURVE",
"1021 161 CURVE SMOOTH",
"1021 112 OFFCURVE",
"981 71 OFFCURVE",
"932 71 CURVE SMOOTH"
);
}
);
width = 1152;
}
);
leftKerningGroup = percent;
unicode = 2030;
},
{
glyphname = upArrow;
lastChange = "2019-11-06 00:49:21 +0000";
layers = (
{
layerId = "800095D7-3F7A-4DA4-A19A-FCDA22F72CA5";
paths = (
{
closed = 1;
nodes = (
"399 663 LINE",
"336 726 LINE",
"40 430 LINE",
"104 367 LINE"
);
},
{
closed = 1;
nodes = (
"632 430 LINE",
"336 726 LINE",
"273 663 LINE",
"568 367 LINE"
);
},
{
closed = 1;
nodes = (
"381 663 LINE",
"291 663 LINE",
"291 -16 LINE",
"381 -16 LINE"
);
}
);
width = 642;
}
);
unicode = 2191;
},
{
glyphname = northEastArrow;
lastChange = "2019-11-06 00:50:01 +0000";
layers = (
{
layerId = "800095D7-3F7A-4DA4-A19A-FCDA22F72CA5";
paths = (
{
closed = 1;
nodes = (
"511 637 LINE",
"511 726 LINE",
"92 726 LINE",
"93 636 LINE"
);
},
{
closed = 1;
nodes = (
"511 307 LINE",
"511 726 LINE",
"422 726 LINE",
"421 308 LINE"
);
},
{
closed = 1;
nodes = (
"498 649 LINE",
"434 713 LINE",
"-46 233 LINE",
"18 169 LINE"
);
}
);
width = 611;
}
);
unicode = 2197;
},
{
glyphname = rightArrow;
lastChange = "2019-11-06 00:49:29 +0000";
layers = (
{
layerId = "800095D7-3F7A-4DA4-A19A-FCDA22F72CA5";
paths = (
{
closed = 1;
nodes = (
"480 -16 LINE",
"775 279 LINE",
"712 342 LINE",
"416 47 LINE"
);
},
{
closed = 1;
nodes = (
"712 216 LINE",
"775 279 LINE",
"479 575 LINE",
"417 512 LINE"
);
},
{
closed = 1;
nodes = (
"34 235 LINE",
"712 235 LINE",
"713 324 LINE",
"34 325 LINE"
);
}
);
width = 819;
}
);
unicode = 2192;
},
{
glyphname = southEastArrow;
lastChange = "2019-11-06 00:50:13 +0000";
layers = (
{
layerId = "800095D7-3F7A-4DA4-A19A-FCDA22F72CA5";
paths = (
{
closed = 1;
nodes = (
"523 0 LINE",
"612 0 LINE",
"612 418 LINE",
"522 418 LINE"
);
},
{
closed = 1;
nodes = (
"193 0 LINE",
"612 0 LINE",
"612 89 LINE",
"194 89 LINE"
);
},
{
closed = 1;
nodes = (
"536 12 LINE",
"599 76 LINE",
"119 556 LINE",
"55 492 LINE"
);
}
);
width = 712;
}
);
unicode = 2198;
},
{
glyphname = downArrow;
lastChange = "2019-11-06 00:49:40 +0000";
layers = (
{
layerId = "800095D7-3F7A-4DA4-A19A-FCDA22F72CA5";
paths = (
{
closed = 1;
nodes = (
"232 47 LINE",
"295 -16 LINE",
"591 280 LINE",
"527 343 LINE"
);
},
{
closed = 1;
nodes = (
"-1 280 LINE",
"295 -16 LINE",
"358 47 LINE",
"63 343 LINE"
);
},
{
closed = 1;
nodes = (
"250 47 LINE",
"340 47 LINE",
"340 726 LINE",
"250 726 LINE"
);
}
);
width = 618;
}
);
unicode = 2193;
},
{
glyphname = southWestArrow;
lastChange = "2019-11-06 00:50:19 +0000";
layers = (
{
layerId = "800095D7-3F7A-4DA4-A19A-FCDA22F72CA5";
paths = (
{
closed = 1;
nodes = (
"45 418 LINE",
"45 0 LINE",
"134 0 LINE",
"135 418 LINE"
);
},
{
closed = 1;
nodes = (
"45 89 LINE",
"45 0 LINE",
"464 0 LINE",
"463 89 LINE"
);
},
{
closed = 1;
nodes = (
"538 556 LINE",
"58 76 LINE",
"121 12 LINE",
"602 492 LINE"
);
}
);
width = 602;
}
);
unicode = 2199;
},
{
glyphname = leftArrow;
lastChange = "2019-11-06 00:49:13 +0000";
layers = (
{
layerId = "800095D7-3F7A-4DA4-A19A-FCDA22F72CA5";
paths = (
{
closed = 1;
nodes = (
"295 575 LINE",
"0 280 LINE",
"63 217 LINE",
"359 512 LINE"
);
},
{
closed = 1;
nodes = (
"63 343 LINE",
"0 280 LINE",
"296 -16 LINE",
"358 47 LINE"
);
},
{
closed = 1;
nodes = (
"741 324 LINE",
"63 324 LINE",
"62 235 LINE",
"741 234 LINE"
);
}
);
width = 811;
}
);
unicode = 2190;
},
{
glyphname = northWestArrow;
lastChange = "2019-11-06 00:49:50 +0000";
layers = (
{
layerId = "800095D7-3F7A-4DA4-A19A-FCDA22F72CA5";
paths = (
{
closed = 1;
nodes = (
"472 726 LINE",
"55 726 LINE",
"55 637 LINE",
"473 636 LINE"
);
},
{
closed = 1;
nodes = (
"144 726 LINE",
"55 726 LINE",
"55 308 LINE",
"143 308 LINE"
);
},
{
closed = 1;
nodes = (
"610 233 LINE",
"130 713 LINE",
"67 651 LINE",
"546 170 LINE"
);
}
);
width = 710;
}
);
unicode = 2196;
},
{
glyphname = leftRightArrow;
lastChange = "2019-11-06 00:51:26 +0000";
layers = (
{
layerId = "800095D7-3F7A-4DA4-A19A-FCDA22F72CA5";
paths = (
{
closed = 1;
nodes = (
"229 588 LINE",
"0 359 LINE",
"49 310 LINE",
"279 539 LINE"
);
},
{
closed = 1;
nodes = (
"49 408 LINE",
"0 359 LINE",
"230 128 LINE",
"278 177 LINE"
);
},
{
closed = 1;
nodes = (
"606 393 LINE",
"49 393 LINE",
"48 323 LINE",
"606 323 LINE"
);
},
{
closed = 1;
nodes = (
"555 128 LINE",
"784 357 LINE",
"735 406 LINE",
"505 177 LINE"
);
},
{
closed = 1;
nodes = (
"735 308 LINE",
"784 357 LINE",
"554 588 LINE",
"506 539 LINE"
);
},
{
closed = 1;
nodes = (
"178 323 LINE",
"735 323 LINE",
"736 393 LINE",
"178 393 LINE"
);
}
);
width = 828;
}
);
unicode = 2194;
},
{
glyphname = upDownArrow;
lastChange = "2019-11-06 00:51:06 +0000";
layers = (
{
layerId = "800095D7-3F7A-4DA4-A19A-FCDA22F72CA5";
paths = (
{
closed = 1;
nodes = (
"500 520 LINE",
"271 749 LINE",
"222 700 LINE",
"451 470 LINE"
);
},
{
closed = 1;
nodes = (
"320 700 LINE",
"271 749 LINE",
"40 519 LINE",
"89 471 LINE"
);
},
{
closed = 1;
nodes = (
"305 143 LINE",
"305 700 LINE",
"235 701 LINE",
"235 143 LINE"
);
},
{
closed = 1;
nodes = (
"40 194 LINE",
"269 -35 LINE",
"318 14 LINE",
"89 244 LINE"
);
},
{
closed = 1;
nodes = (
"220 14 LINE",
"269 -35 LINE",
"500 195 LINE",
"451 243 LINE"
);
},
{
closed = 1;
nodes = (
"235 571 LINE",
"235 14 LINE",
"305 13 LINE",
"305 571 LINE"
);
}
);
width = 510;
}
);
unicode = 2195;
},
{
glyphname = lozenge;
lastChange = "2019-11-04 19:48:48 +0000";
layers = (
{
layerId = "800095D7-3F7A-4DA4-A19A-FCDA22F72CA5";
paths = (
{
closed = 1;
nodes = (
"138 312 LINE",
"292 624 LINE",
"212 624 LINE",
"50 312 LINE"
);
},
{
closed = 1;
nodes = (
"292 624 LINE",
"212 624 LINE",
"367 312 LINE",
"455 312 LINE"
);
},
{
closed = 1;
nodes = (
"367 312 LINE",
"213 0 LINE",
"293 0 LINE",
"455 312 LINE"
);
},
{
closed = 1;
nodes = (
"213 0 LINE",
"293 0 LINE",
"138 312 LINE",
"50 312 LINE"
);
}
);
width = 505;
}
);
unicode = 25CA;
},
{
glyphname = at;
lastChange = "2019-11-06 02:16:53 +0000";
layers = (
{
layerId = "800095D7-3F7A-4DA4-A19A-FCDA22F72CA5";
paths = (
{
closed = 1;
nodes = (
"50 584 OFFCURVE",
"119 657 OFFCURVE",
"217 657 CURVE",
"437 657 LINE",
"437 571 LINE",
"226 571 LINE",
"176 571 OFFCURVE",
"140 543 OFFCURVE",
"140 511 CURVE",
"50 511 LINE"
);
},
{
closed = 1;
nodes = (
"710 86 LINE",
"692 86 OFFCURVE",
"671 92 OFFCURVE",
"671 123 CURVE",
"671 197 LINE",
"581 197 LINE",
"581 100 LINE",
"581 26 OFFCURVE",
"653 0 OFFCURVE",
"710 0 CURVE"
);
},
{
closed = 1;
nodes = (
"767 0 OFFCURVE",
"839 26 OFFCURVE",
"839 100 CURVE",
"839 197 LINE",
"749 197 LINE",
"749 123 LINE",
"749 92 OFFCURVE",
"728 86 OFFCURVE",
"710 86 CURVE",
"710 0 LINE"
);
},
{
closed = 1;
nodes = (
"749 511 LINE",
"749 543 OFFCURVE",
"713 571 OFFCURVE",
"663 571 CURVE",
"437 571 LINE",
"437 657 LINE",
"672 657 LINE",
"770 657 OFFCURVE",
"839 584 OFFCURVE",
"839 511 CURVE"
);
},
{
closed = 1;
nodes = (
"749 197 LINE",
"839 197 LINE",
"839 511 LINE",
"749 511 LINE"
);
},
{
closed = 1;
nodes = (
"50 -30 LINE",
"140 -30 LINE",
"140 511 LINE",
"50 511 LINE"
);
},
{
closed = 1;
nodes = (
"140 -30 LINE",
"140 -62 OFFCURVE",
"176 -90 OFFCURVE",
"226 -90 CURVE",
"742 -90 LINE",
"742 -176 LINE",
"217 -176 LINE",
"119 -176 OFFCURVE",
"50 -103 OFFCURVE",
"50 -30 CURVE"
);
},
{
closed = 1;
nodes = (
"581 480 LINE",
"581 188 LINE",
"671 188 LINE",
"671 480 LINE"
);
},
{
closed = 1;
nodes = (
"581 229 LINE",
"581 106 OFFCURVE",
"497 70 OFFCURVE",
"437 70 CURVE SMOOTH",
"340 70 OFFCURVE",
"297 128 OFFCURVE",
"297 218 CURVE SMOOTH",
"297 262 LINE SMOOTH",
"297 352 OFFCURVE",
"340 410 OFFCURVE",
"437 410 CURVE SMOOTH",
"497 410 OFFCURVE",
"581 374 OFFCURVE",
"581 251 CURVE",
"587 381 LINE",
"560 447 OFFCURVE",
"494 496 OFFCURVE",
"418 496 CURVE SMOOTH",
"302 496 OFFCURVE",
"207 427 OFFCURVE",
"207 278 CURVE SMOOTH",
"207 202 LINE SMOOTH",
"207 53 OFFCURVE",
"302 -16 OFFCURVE",
"418 -16 CURVE SMOOTH",
"494 -16 OFFCURVE",
"560 33 OFFCURVE",
"587 99 CURVE"
);
}
);
width = 889;
}
);
leftKerningGroup = at;
rightKerningGroup = at;
unicode = 0040;
},
{
glyphname = ampersand;
lastChange = "2019-11-06 03:06:14 +0000";
layers = (
{
layerId = "800095D7-3F7A-4DA4-A19A-FCDA22F72CA5";
paths = (
{
closed = 1;
nodes = (
"225 726 OFFCURVE",
"160 677 OFFCURVE",
"160 574 CURVE",
"250 574 LINE",
"250 625 OFFCURVE",
"286 640 OFFCURVE",
"331 640 CURVE",
"321 726 LINE"
);
},
{
closed = 1;
nodes = (
"540 675 OFFCURVE",
"477 726 OFFCURVE",
"380 726 CURVE",
"370 640 LINE",
"414 640 OFFCURVE",
"450 625 OFFCURVE",
"450 574 CURVE",
"540 574 LINE"
);
},
{
closed = 1;
nodes = (
"70 40 OFFCURVE",
"168 -16 OFFCURVE",
"276 -16 CURVE",
"305 -16 LINE",
"305 70 LINE",
"196 70 OFFCURVE",
"160 111 OFFCURVE",
"160 170 CURVE",
"70 170 LINE",
"70 144 LINE"
);
},
{
closed = 1;
nodes = (
"676 350 LINE",
"590 350 LINE",
"590 190 LINE",
"591 129 OFFCURVE",
"555 68 OFFCURVE",
"445 70 CURVE",
"445 -16 LINE",
"474 -16 LINE",
"582 -16 OFFCURVE",
"676 60 OFFCURVE",
"676 164 CURVE"
);
},
{
closed = 1;
nodes = (
"305 -16 LINE",
"445 -16 LINE",
"445 70 LINE",
"305 70 LINE"
);
},
{
closed = 1;
nodes = (
"160 441 OFFCURVE",
"234 396 OFFCURVE",
"292 350 CURVE",
"733 0 LINE",
"862 0 LINE",
"379 391 LINE",
"323 442 OFFCURVE",
"250 475 OFFCURVE",
"250 554 CURVE",
"160 554 LINE"
);
},
{
closed = 1;
nodes = (
"450 554 LINE",
"450 380 OFFCURVE",
"70 403 OFFCURVE",
"70 190 CURVE",
"160 181 LINE",
"160 313 OFFCURVE",
"540 325 OFFCURVE",
"540 554 CURVE"
);
},
{
closed = 1;
nodes = (
"331 640 LINE",
"370 640 LINE",
"380 726 LINE",
"321 726 LINE"
);
},
{
closed = 1;
nodes = (
"70 170 LINE",
"160 170 LINE",
"160 181 LINE",
"70 190 LINE"
);
},
{
closed = 1;
nodes = (
"450 554 LINE",
"540 554 LINE",
"540 574 LINE",
"450 574 LINE"
);
},
{
closed = 1;
nodes = (
"160 554 LINE",
"250 554 LINE",
"250 574 LINE",
"160 574 LINE"
);
}
);
width = 862;
}
);
leftKerningGroup = ampersand;
rightKerningGroup = ampersand;
unicode = 0026;
},
{
glyphname = paragraph;
lastChange = "2019-11-06 02:50:57 +0000";
layers = (
{
layerId = "800095D7-3F7A-4DA4-A19A-FCDA22F72CA5";
paths = (
{
closed = 1;
nodes = (
"460 0 LINE",
"550 0 LINE",
"550 710 LINE",
"460 710 LINE"
);
},
{
closed = 1;
nodes = (
"280 0 LINE",
"370 0 LINE",
"370 710 LINE",
"280 710 LINE"
);
},
{
closed = 1;
nodes = (
"35 402 OFFCURVE",
"118 312 OFFCURVE",
"219 312 CURVE SMOOTH",
"370 312 LINE",
"370 710 LINE",
"219 710 LINE SMOOTH",
"118 710 OFFCURVE",
"35 620 OFFCURVE",
"35 512 CURVE SMOOTH"
);
}
);
width = 575;
}
);
leftKerningGroup = paragraph;
rightKerningGroup = paragraph;
unicode = 00B6;
},
{
glyphname = section;
lastChange = "2019-11-06 02:17:21 +0000";
layers = (
{
layerId = "800095D7-3F7A-4DA4-A19A-FCDA22F72CA5";
paths = (
{
closed = 1;
nodes = (
"542 113 OFFCURVE",
"501 174 OFFCURVE",
"319 174 CURVE SMOOTH",
"241 174 OFFCURVE",
"195 217 OFFCURVE",
"195 266 CURVE SMOOTH",
"195 317 OFFCURVE",
"225 365 OFFCURVE",
"303 365 CURVE SMOOTH",
"381 365 OFFCURVE",
"413 405 OFFCURVE",
"313 405 CURVE SMOOTH",
"181 405 OFFCURVE",
"105 328 OFFCURVE",
"105 247 CURVE SMOOTH",
"105 164 OFFCURVE",
"171 95 OFFCURVE",
"281 95 CURVE SMOOTH",
"423 95 OFFCURVE",
"452 68 OFFCURVE",
"452 25 CURVE SMOOTH",
"452 -9 OFFCURVE",
"433 -51 OFFCURVE",
"319 -51 CURVE SMOOTH",
"225 -51 OFFCURVE",
"193 -18 OFFCURVE",
"185 17 CURVE",
"85 17 LINE",
"107 -80 OFFCURVE",
"176 -137 OFFCURVE",
"318 -137 CURVE SMOOTH",
"472 -137 OFFCURVE",
"542 -72 OFFCURVE",
"542 24 CURVE SMOOTH"
);
},
{
closed = 1;
nodes = (
"542 380 OFFCURVE",
"474 448 OFFCURVE",
"311 448 CURVE SMOOTH",
"230 448 OFFCURVE",
"195 467 OFFCURVE",
"195 507 CURVE SMOOTH",
"195 540 OFFCURVE",
"238 575 OFFCURVE",
"303 575 CURVE SMOOTH",
"381 575 OFFCURVE",
"411 541 OFFCURVE",
"421 506 CURVE",
"521 506 LINE",
"499 603 OFFCURVE",
"413 648 OFFCURVE",
"313 648 CURVE SMOOTH",
"181 648 OFFCURVE",
"105 590 OFFCURVE",
"105 499 CURVE SMOOTH",
"105 426 OFFCURVE",
"167 365 OFFCURVE",
"303 365 CURVE SMOOTH",
"439 365 OFFCURVE",
"452 309 OFFCURVE",
"452 270 CURVE SMOOTH",
"452 227 OFFCURVE",
"433 174 OFFCURVE",
"319 174 CURVE",
"318 139 LINE",
"472 139 OFFCURVE",
"542 207 OFFCURVE",
"542 283 CURVE SMOOTH"
);
}
);
width = 627;
}
);
leftKerningGroup = section;
unicode = 00A7;
},
{
glyphname = copyright;
lastChange = "2019-11-06 02:36:08 +0000";
layers = (
{
components = (
{
name = c;
transform = "{0.77268, 0, 0, 0.77268, 229, 168}";
}
);
layerId = "800095D7-3F7A-4DA4-A19A-FCDA22F72CA5";
paths = (
{
closed = 1;
nodes = (
"655 -36 OFFCURVE",
"830 139 OFFCURVE",
"830 354 CURVE SMOOTH",
"830 569 OFFCURVE",
"655 744 OFFCURVE",
"440 744 CURVE SMOOTH",
"225 744 OFFCURVE",
"50 569 OFFCURVE",
"50 354 CURVE SMOOTH",
"50 139 OFFCURVE",
"225 -36 OFFCURVE",
"440 -36 CURVE SMOOTH"
);
},
{
closed = 1;
nodes = (
"264 34 OFFCURVE",
"120 178 OFFCURVE",
"120 354 CURVE SMOOTH",
"120 530 OFFCURVE",
"264 674 OFFCURVE",
"440 674 CURVE SMOOTH",
"616 674 OFFCURVE",
"760 530 OFFCURVE",
"760 354 CURVE SMOOTH",
"760 176 OFFCURVE",
"617 34 OFFCURVE",
"440 34 CURVE SMOOTH"
);
}
);
width = 880;
}
);
leftKerningGroup = copyright;
rightKerningGroup = copyright;
unicode = 00A9;
},
{
glyphname = registered;
lastChange = "2019-11-06 02:36:31 +0000";
layers = (
{
layerId = "800095D7-3F7A-4DA4-A19A-FCDA22F72CA5";
paths = (
{
closed = 1;
nodes = (
"359 296 OFFCURVE",
"455 392 OFFCURVE",
"455 511 CURVE SMOOTH",
"455 630 OFFCURVE",
"359 726 OFFCURVE",
"240 726 CURVE SMOOTH",
"120 726 OFFCURVE",
"25 630 OFFCURVE",
"25 511 CURVE SMOOTH",
"25 392 OFFCURVE",
"120 296 OFFCURVE",
"240 296 CURVE SMOOTH"
);
},
{
closed = 1;
nodes = (
"149 346 OFFCURVE",
"75 420 OFFCURVE",
"75 511 CURVE SMOOTH",
"75 602 OFFCURVE",
"149 676 OFFCURVE",
"240 676 CURVE SMOOTH",
"331 676 OFFCURVE",
"405 602 OFFCURVE",
"405 511 CURVE SMOOTH",
"405 420 OFFCURVE",
"331 346 OFFCURVE",
"240 346 CURVE SMOOTH"
);
},
{
closed = 1;
nodes = (
"157 411 LINE",
"200 411 LINE",
"200 615 LINE",
"157 615 LINE"
);
},
{
closed = 1;
nodes = (
"177 524 LINE",
"177 487 LINE",
"266 487 LINE",
"298 487 OFFCURVE",
"329 502 OFFCURVE",
"329 551 CURVE SMOOTH",
"329 595 OFFCURVE",
"298 615 OFFCURVE",
"266 615 CURVE",
"177 615 LINE",
"177 578 LINE",
"253 578 LINE",
"276 578 OFFCURVE",
"288 570 OFFCURVE",
"288 551 CURVE SMOOTH",
"288 529 OFFCURVE",
"276 524 OFFCURVE",
"253 524 CURVE"
);
},
{
closed = 1;
nodes = (
"339 411 LINE",
"287 499 LINE",
"243 499 LINE",
"291 411 LINE"
);
}
);
width = 480;
}
);
leftKerningGroup = copyright;
rightKerningGroup = copyright;
unicode = 00AE;
},
{
glyphname = trademark;
lastChange = "2019-11-06 02:17:54 +0000";
layers = (
{
layerId = "800095D7-3F7A-4DA4-A19A-FCDA22F72CA5";
paths = (
{
closed = 1;
nodes = (
"144 338 LINE",
"204 338 LINE",
"204 710 LINE",
"144 710 LINE"
);
},
{
closed = 1;
nodes = (
"30 650 LINE",
"318 650 LINE",
"318 710 LINE",
"30 710 LINE"
);
},
{
closed = 1;
nodes = (
"532 338 LINE",
"592 338 LINE",
"492 710 LINE",
"432 710 LINE"
);
},
{
closed = 1;
nodes = (
"386 649 LINE",
"450 649 LINE",
"450 710 LINE",
"386 710 LINE"
);
},
{
closed = 1;
nodes = (
"548 338 LINE",
"613 338 LINE",
"613 398 LINE",
"548 398 LINE"
);
},
{
closed = 1;
nodes = (
"368 338 LINE",
"428 338 LINE",
"428 710 LINE",
"368 710 LINE"
);
},
{
closed = 1;
nodes = (
"674 710 LINE",
"574 338 LINE",
"634 338 LINE",
"734 710 LINE"
);
},
{
closed = 1;
nodes = (
"711 710 LINE",
"711 650 LINE",
"775 650 LINE",
"775 710 LINE"
);
},
{
closed = 1;
nodes = (
"738 710 LINE",
"738 338 LINE",
"798 338 LINE",
"798 710 LINE"
);
}
);
width = 858;
}
);
leftKerningGroup = trademark;
rightKerningGroup = trademark;
unicode = 2122;
},
{
glyphname = degree;
lastChange = "2019-11-06 00:47:37 +0000";
layers = (
{
layerId = "800095D7-3F7A-4DA4-A19A-FCDA22F72CA5";
paths = (
{
closed = 1;
nodes = (
"258 386 OFFCURVE",
"325 453 OFFCURVE",
"325 536 CURVE SMOOTH",
"325 619 OFFCURVE",
"258 686 OFFCURVE",
"175 686 CURVE SMOOTH",
"92 686 OFFCURVE",
"25 619 OFFCURVE",
"25 536 CURVE SMOOTH",
"25 453 OFFCURVE",
"92 386 OFFCURVE",
"175 386 CURVE SMOOTH"
);
},
{
closed = 1;
nodes = (
"122 441 OFFCURVE",
"80 483 OFFCURVE",
"80 536 CURVE SMOOTH",
"80 589 OFFCURVE",
"122 631 OFFCURVE",
"176 631 CURVE SMOOTH",
"228 631 OFFCURVE",
"270 589 OFFCURVE",
"270 536 CURVE SMOOTH",
"270 483 OFFCURVE",
"228 441 OFFCURVE",
"176 441 CURVE SMOOTH"
);
}
);
width = 350;
}
);
unicode = 00B0;
},
{
glyphname = bar;
lastChange = "2019-11-06 02:18:14 +0000";
layers = (
{
layerId = "800095D7-3F7A-4DA4-A19A-FCDA22F72CA5";
paths = (
{
closed = 1;
nodes = (
"90 -155 LINE",
"180 -155 LINE",
"180 726 LINE",
"90 726 LINE"
);
}
);
width = 270;
}
);
leftKerningGroup = bar;
rightKerningGroup = bar;
unicode = 007C;
},
{
glyphname = brokenbar;
lastChange = "2019-11-06 02:18:19 +0000";
layers = (
{
layerId = "800095D7-3F7A-4DA4-A19A-FCDA22F72CA5";
paths = (
{
closed = 1;
nodes = (
"90 366 LINE",
"180 366 LINE",
"180 726 LINE",
"90 726 LINE"
);
},
{
closed = 1;
nodes = (
"90 -155 LINE",
"180 -155 LINE",
"180 205 LINE",
"90 205 LINE"
);
}
);
width = 270;
}
);
leftKerningGroup = bar;
rightKerningGroup = bar;
unicode = 00A6;
},
{
glyphname = dagger;
lastChange = "2019-11-06 02:18:28 +0000";
layers = (
{
layerId = "800095D7-3F7A-4DA4-A19A-FCDA22F72CA5";
paths = (
{
closed = 1;
nodes = (
"150 316 LINE",
"220 316 LINE",
"220 756 LINE",
"150 756 LINE"
);
},
{
closed = 1;
nodes = (
"45 627 LINE",
"45 557 LINE",
"325 557 LINE",
"325 627 LINE"
);
}
);
width = 370;
}
);
leftKerningGroup = dagger;
rightKerningGroup = dagger;
unicode = 2020;
},
{
glyphname = daggerdbl;
lastChange = "2019-11-06 02:18:31 +0000";
layers = (
{
layerId = "800095D7-3F7A-4DA4-A19A-FCDA22F72CA5";
paths = (
{
closed = 1;
nodes = (
"150 316 LINE",
"220 316 LINE",
"220 756 LINE",
"150 756 LINE"
);
},
{
closed = 1;
nodes = (
"45 627 LINE",
"45 557 LINE",
"325 557 LINE",
"325 627 LINE"
);
},
{
closed = 1;
nodes = (
"220 693 LINE",
"150 693 LINE",
"150 253 LINE",
"220 253 LINE"
);
},
{
closed = 1;
nodes = (
"325 382 LINE",
"325 452 LINE",
"45 452 LINE",
"45 382 LINE"
);
}
);
width = 370;
}
);
leftKerningGroup = dagger;
rightKerningGroup = dagger;
unicode = 2021;
},
{
glyphname = dieresiscomb;
lastChange = "2019-11-20 19:38:36 +0000";
layers = (
{
layerId = "800095D7-3F7A-4DA4-A19A-FCDA22F72CA5";
paths = (
{
closed = 1;
nodes = (
"237 606 OFFCURVE",
"264 632 OFFCURVE",
"264 665 CURVE SMOOTH",
"264 698 OFFCURVE",
"237 726 OFFCURVE",
"204 726 CURVE SMOOTH",
"171 726 OFFCURVE",
"144 698 OFFCURVE",
"144 665 CURVE SMOOTH",
"144 632 OFFCURVE",
"171 606 OFFCURVE",
"204 606 CURVE SMOOTH"
);
},
{
closed = 1;
nodes = (
"411 606 OFFCURVE",
"438 632 OFFCURVE",
"438 665 CURVE SMOOTH",
"438 698 OFFCURVE",
"411 726 OFFCURVE",
"378 726 CURVE SMOOTH",
"345 726 OFFCURVE",
"318 698 OFFCURVE",
"318 665 CURVE SMOOTH",
"318 632 OFFCURVE",
"345 606 OFFCURVE",
"378 606 CURVE SMOOTH"
);
}
);
width = 600;
}
);
unicode = 0308;
},
{
glyphname = dotaccentcomb;
lastChange = "2019-11-20 19:38:28 +0000";
layers = (
{
layerId = "800095D7-3F7A-4DA4-A19A-FCDA22F72CA5";
paths = (
{
closed = 1;
nodes = (
"143 606 OFFCURVE",
"170 632 OFFCURVE",
"170 665 CURVE SMOOTH",
"170 698 OFFCURVE",
"143 726 OFFCURVE",
"110 726 CURVE SMOOTH",
"77 726 OFFCURVE",
"50 698 OFFCURVE",
"50 665 CURVE SMOOTH",
"50 632 OFFCURVE",
"77 606 OFFCURVE",
"110 606 CURVE SMOOTH"
);
}
);
width = 220;
}
);
unicode = 0307;
},
{
glyphname = gravecomb;
lastChange = "2019-11-06 01:06:21 +0000";
layers = (
{
anchors = (
{
name = _top;
position = "{204, 480}";
},
{
name = top;
position = "{204, 750}";
}
);
layerId = "800095D7-3F7A-4DA4-A19A-FCDA22F72CA5";
paths = (
{
closed = 1;
nodes = (
"247 570 LINE",
"134 720 LINE",
"34 720 LINE",
"157 570 LINE"
);
}
);
width = 281;
}
);
unicode = 0300;
},
{
glyphname = acutecomb;
lastChange = "2019-11-20 19:38:20 +0000";
layers = (
{
anchors = (
{
name = _top;
position = "{118, 500}";
},
{
name = top;
position = "{163, 794}";
}
);
layerId = "800095D7-3F7A-4DA4-A19A-FCDA22F72CA5";
paths = (
{
closed = 1;
nodes = (
"248 726 LINE",
"148 726 LINE",
"35 576 LINE",
"125 576 LINE"
);
}
);
width = 283;
}
);
unicode = 0301;
},
{
glyphname = hungarumlautcomb;
lastChange = "2019-11-20 19:38:13 +0000";
layers = (
{
anchors = (
{
name = _top;
position = "{238, 500}";
},
{
name = _top_;
position = "{94, 506}";
},
{
name = top;
position = "{283, 794}";
},
{
name = top_;
position = "{139, 800}";
}
);
layerId = "800095D7-3F7A-4DA4-A19A-FCDA22F72CA5";
paths = (
{
closed = 1;
nodes = (
"368 726 LINE",
"268 726 LINE",
"155 576 LINE",
"245 576 LINE"
);
},
{
closed = 1;
nodes = (
"224 726 LINE",
"124 726 LINE",
"30 576 LINE",
"120 576 LINE"
);
}
);
width = 403;
}
);
unicode = 030B;
},
{
glyphname = circumflexcomb;
lastChange = "2019-11-20 19:38:06 +0000";
layers = (
{
layerId = "800095D7-3F7A-4DA4-A19A-FCDA22F72CA5";
paths = (
{
closed = 1;
nodes = (
"233 726 LINE",
"148 726 LINE",
"35 576 LINE",
"125 576 LINE"
);
},
{
closed = 1;
nodes = (
"346 576 LINE",
"233 726 LINE",
"148 726 LINE",
"256 576 LINE"
);
}
);
width = 381;
}
);
unicode = 0302;
},
{
glyphname = caroncomb;
lastChange = "2019-11-20 19:35:14 +0000";
layers = (
{
layerId = "800095D7-3F7A-4DA4-A19A-FCDA22F72CA5";
paths = (
{
closed = 1;
nodes = (
"35 726 LINE",
"148 576 LINE",
"233 576 LINE",
"125 726 LINE"
);
},
{
closed = 1;
nodes = (
"148 576 LINE",
"233 576 LINE",
"346 726 LINE",
"256 726 LINE"
);
}
);
width = 381;
}
);
unicode = 030C;
},
{
glyphname = brevecomb;
lastChange = "2019-11-21 02:25:16 +0000";
layers = (
{
layerId = "800095D7-3F7A-4DA4-A19A-FCDA22F72CA5";
paths = (
{
closed = 1;
nodes = (
"35 623 OFFCURVE",
"102 556 OFFCURVE",
"185 556 CURVE SMOOTH",
"268 556 OFFCURVE",
"335 623 OFFCURVE",
"335 706 CURVE",
"270 706 LINE",
"270 653 OFFCURVE",
"228 621 OFFCURVE",
"186 621 CURVE SMOOTH",
"142 621 OFFCURVE",
"100 653 OFFCURVE",
"100 706 CURVE",
"35 706 LINE"
);
}
);
width = 370;
}
);
unicode = 0306;
},
{
glyphname = ringcomb;
lastChange = "2019-11-06 01:06:30 +0000";
layers = (
{
layerId = "800095D7-3F7A-4DA4-A19A-FCDA22F72CA5";
paths = (
{
closed = 1;
nodes = (
"201 556 OFFCURVE",
"247 602 OFFCURVE",
"247 662 CURVE SMOOTH",
"247 721 OFFCURVE",
"201 768 OFFCURVE",
"142 768 CURVE SMOOTH",
"83 768 OFFCURVE",
"35 721 OFFCURVE",
"35 662 CURVE SMOOTH",
"35 602 OFFCURVE",
"83 556 OFFCURVE",
"142 556 CURVE SMOOTH"
);
},
{
closed = 1;
nodes = (
"112 609 OFFCURVE",
"88 633 OFFCURVE",
"88 662 CURVE SMOOTH",
"88 692 OFFCURVE",
"112 715 OFFCURVE",
"142 715 CURVE SMOOTH",
"171 715 OFFCURVE",
"194 692 OFFCURVE",
"194 662 CURVE SMOOTH",
"194 633 OFFCURVE",
"171 609 OFFCURVE",
"142 609 CURVE SMOOTH"
);
}
);
width = 282;
}
);
unicode = 030A;
},
{
glyphname = tildecomb;
lastChange = "2019-11-22 02:23:39 +0000";
layers = (
{
layerId = "800095D7-3F7A-4DA4-A19A-FCDA22F72CA5";
paths = (
{
closed = 1;
nodes = (
"209 726 OFFCURVE",
"199 668 OFFCURVE",
"244 668 CURVE SMOOTH",
"271 668 OFFCURVE",
"277 695 OFFCURVE",
"277 726 CURVE",
"347 726 LINE",
"347 679 OFFCURVE",
"329 602 OFFCURVE",
"243 602 CURVE",
"173 602 OFFCURVE",
"175 660 OFFCURVE",
"137 660 CURVE",
"112 660 OFFCURVE",
"101 631 OFFCURVE",
"101 602 CURVE",
"31 602 LINE",
"31 677 OFFCURVE",
"83 726 OFFCURVE",
"133 726 CURVE"
);
}
);
width = 378;
}
);
unicode = 0303;
},
{
glyphname = macroncomb;
lastChange = "2019-11-20 19:42:41 +0000";
layers = (
{
layerId = "800095D7-3F7A-4DA4-A19A-FCDA22F72CA5";
paths = (
{
closed = 1;
nodes = (
"223 623 LINE",
"516 623 LINE",
"516 693 LINE",
"223 693 LINE"
);
}
);
width = 600;
}
);
unicode = 0304;
},
{
glyphname = cedillacomb;
lastChange = "2019-11-20 19:40:56 +0000";
layers = (
{
layerId = "800095D7-3F7A-4DA4-A19A-FCDA22F72CA5";
paths = (
{
closed = 1;
nodes = (
"220 -66 OFFCURVE",
"146 -32 OFFCURVE",
"78 -38 CURVE",
"47 -70 LINE",
"47 -104 LINE",
"86 -92 OFFCURVE",
"154 -98 OFFCURVE",
"154 -135 CURVE",
"154 -177 OFFCURVE",
"70 -177 OFFCURVE",
"32 -170 CURVE",
"32 -227 LINE",
"98 -238 OFFCURVE",
"220 -237 OFFCURVE",
"220 -135 CURVE"
);
},
{
closed = 1;
nodes = (
"156 11 LINE",
"90 11 LINE",
"47 -70 LINE",
"114 -70 LINE"
);
}
);
width = 255;
}
);
unicode = 0327;
},
{
glyphname = ogonekcomb;
lastChange = "2019-11-20 19:41:08 +0000";
layers = (
{
layerId = "800095D7-3F7A-4DA4-A19A-FCDA22F72CA5";
paths = (
{
closed = 1;
nodes = (
"35 -212 OFFCURVE",
"157 -213 OFFCURVE",
"223 -202 CURVE",
"223 -136 LINE",
"185 -143 OFFCURVE",
"101 -143 OFFCURVE",
"101 -101 CURVE",
"101 -40 OFFCURVE",
"171 -20 OFFCURVE",
"210 -20 CURVE",
"168 6 LINE",
"100 12 OFFCURVE",
"35 -23 OFFCURVE",
"35 -110 CURVE"
);
}
);
width = 258;
}
);
unicode = 0328;
},
{
glyphname = shoulder_01;
lastChange = "2019-06-14 15:34:53 +0000";
layers = (
{
layerId = "800095D7-3F7A-4DA4-A19A-FCDA22F72CA5";
paths = (
{
closed = 1;
nodes = (
"344 0 LINE",
"344 298 LINE SMOOTH",
"344 447 OFFCURVE",
"246 496 OFFCURVE",
"163 496 CURVE SMOOTH",
"95 496 OFFCURVE",
"11 447 OFFCURVE",
"-16 381 CURVE",
"0 251 LINE",
"0 374 OFFCURVE",
"84 410 OFFCURVE",
"134 410 CURVE SMOOTH",
"218 410 OFFCURVE",
"254 372 OFFCURVE",
"254 282 CURVE SMOOTH",
"254 0 LINE"
);
}
);
width = 385;
}
);
},
{
glyphname = stem_lowercase;
lastChange = "2019-06-12 23:10:38 +0000";
layers = (
{
layerId = "800095D7-3F7A-4DA4-A19A-FCDA22F72CA5";
paths = (
{
closed = 1;
nodes = (
"90 0 LINE",
"180 0 LINE",
"180 480 LINE",
"90 480 LINE"
);
}
);
width = 180;
}
);
},
{
glyphname = stem_upper;
lastChange = "2019-06-24 22:00:53 +0000";
layers = (
{
layerId = "800095D7-3F7A-4DA4-A19A-FCDA22F72CA5";
paths = (
{
closed = 1;
nodes = (
"90 0 LINE",
"180 0 LINE",
"180 710 LINE",
"90 710 LINE"
);
}
);
width = 180;
}
);
},
{
glyphname = stem_lowercase_n;
lastChange = "2019-06-13 22:07:06 +0000";
layers = (
{
layerId = "800095D7-3F7A-4DA4-A19A-FCDA22F72CA5";
paths = (
{
closed = 1;
nodes = (
"90 0 LINE",
"180 0 LINE",
"180 400 LINE",
"174 400 LINE",
"174 480 LINE",
"90 480 LINE"
);
}
);
width = 270;
}
);
},
{
glyphname = bulb_lowercase;
lastChange = "2019-06-24 15:51:54 +0000";
layers = (
{
layerId = "800095D7-3F7A-4DA4-A19A-FCDA22F72CA5";
paths = (
{
closed = 1;
nodes = (
"201 33 OFFCURVE",
"275 -16 OFFCURVE",
"343 -16 CURVE SMOOTH",
"459 -16 OFFCURVE",
"554 53 OFFCURVE",
"554 202 CURVE SMOOTH",
"554 278 LINE SMOOTH",
"554 427 OFFCURVE",
"459 496 OFFCURVE",
"343 496 CURVE SMOOTH",
"275 496 OFFCURVE",
"201 447 OFFCURVE",
"174 381 CURVE",
"180 251 LINE",
"180 374 OFFCURVE",
"264 410 OFFCURVE",
"324 410 CURVE SMOOTH",
"421 410 OFFCURVE",
"464 352 OFFCURVE",
"464 262 CURVE SMOOTH",
"464 218 LINE SMOOTH",
"464 128 OFFCURVE",
"421 70 OFFCURVE",
"324 70 CURVE SMOOTH",
"264 70 OFFCURVE",
"180 106 OFFCURVE",
"180 229 CURVE",
"174 99 LINE"
);
}
);
width = 624;
}
);
},
{
glyphname = descender_lowercase;
lastChange = "2019-06-13 20:11:00 +0000";
layers = (
{
layerId = "800095D7-3F7A-4DA4-A19A-FCDA22F72CA5";
paths = (
{
closed = 1;
nodes = (
"90 -190 LINE",
"180 -190 LINE",
"180 480 LINE",
"90 480 LINE"
);
}
);
width = 624;
}
);
},
{
glyphname = Smiley;
lastChange = "2019-07-12 21:09:28 +0000";
layers = (
{
layerId = "800095D7-3F7A-4DA4-A19A-FCDA22F72CA5";
paths = (
{
closed = 1;
nodes = (
"448 -16 OFFCURVE",
"563 98 OFFCURVE",
"563 240 CURVE SMOOTH",
"563 381 OFFCURVE",
"448 496 OFFCURVE",
"307 496 CURVE SMOOTH",
"165 496 OFFCURVE",
"50 381 OFFCURVE",
"50 240 CURVE SMOOTH",
"50 98 OFFCURVE",
"165 -16 OFFCURVE",
"307 -16 CURVE SMOOTH"
);
},
{
closed = 1;
nodes = (
"222 294 OFFCURVE",
"214 315 OFFCURVE",
"214 338 CURVE SMOOTH",
"214 359 OFFCURVE",
"222 377 OFFCURVE",
"240 377 CURVE SMOOTH",
"258 377 OFFCURVE",
"266 359 OFFCURVE",
"266 338 CURVE SMOOTH",
"266 315 OFFCURVE",
"255 294 OFFCURVE",
"240 294 CURVE SMOOTH"
);
},
{
closed = 1;
nodes = (
"389 89 OFFCURVE",
"439 143 OFFCURVE",
"439 209 CURVE",
"461 209 LINE",
"461 124 OFFCURVE",
"393 68 OFFCURVE",
"306 68 CURVE",
"306 89 LINE"
);
},
{
closed = 1;
nodes = (
"306 68 LINE",
"218 68 OFFCURVE",
"151 124 OFFCURVE",
"151 209 CURVE",
"173 209 LINE",
"173 143 OFFCURVE",
"222 89 OFFCURVE",
"306 89 CURVE"
);
},
{
closed = 1;
nodes = (
"195 232 LINE SMOOTH",
"199 232 OFFCURVE",
"203 228 OFFCURVE",
"203 224 CURVE SMOOTH",
"203 217 LINE SMOOTH",
"203 212 OFFCURVE",
"199 209 OFFCURVE",
"195 209 CURVE SMOOTH",
"132 209 LINE SMOOTH",
"128 209 OFFCURVE",
"124 212 OFFCURVE",
"124 217 CURVE SMOOTH",
"124 224 LINE SMOOTH",
"124 228 OFFCURVE",
"128 232 OFFCURVE",
"132 232 CURVE SMOOTH"
);
},
{
closed = 1;
nodes = (
"481 232 LINE SMOOTH",
"485 232 OFFCURVE",
"489 228 OFFCURVE",
"489 224 CURVE SMOOTH",
"489 217 LINE SMOOTH",
"489 212 OFFCURVE",
"485 209 OFFCURVE",
"481 209 CURVE SMOOTH",
"418 209 LINE SMOOTH",
"414 209 OFFCURVE",
"410 212 OFFCURVE",
"410 217 CURVE SMOOTH",
"410 224 LINE SMOOTH",
"410 228 OFFCURVE",
"414 232 OFFCURVE",
"418 232 CURVE SMOOTH"
);
},
{
closed = 1;
nodes = (
"355 294 OFFCURVE",
"347 315 OFFCURVE",
"347 338 CURVE SMOOTH",
"347 359 OFFCURVE",
"355 377 OFFCURVE",
"373 377 CURVE SMOOTH",
"391 377 OFFCURVE",
"399 359 OFFCURVE",
"399 338 CURVE SMOOTH",
"399 315 OFFCURVE",
"389 294 OFFCURVE",
"373 294 CURVE SMOOTH"
);
}
